<svg width="30" height="30" viewBox="0 0 30 30" fill="none" xmlns="http://www.w3.org/2000/svg">
<path d="M9.12765 3.87729C9.11933 3.87973 9.11231 3.88535 9.1081 3.89293C9.10389 3.90051 9.10283 3.90944 9.10515 3.91779C9.10515 3.94779 9.11865 3.93879 9.30315 3.94929C9.46215 3.95829 9.60315 3.96579 9.67215 3.96579H9.71415C9.72027 3.96416 9.72585 3.96094 9.73032 3.95646C9.7348 3.95199 9.73802 3.94641 9.73965 3.94029C9.74128 3.93425 9.7413 3.9279 9.73972 3.92185C9.73814 3.9158 9.73502 3.91027 9.73065 3.90579C9.68415 3.85929 9.13215 3.87579 9.12765 3.87729ZM8.92065 2.98329C8.90939 3.16061 8.90939 3.33847 8.92065 3.51579C8.92065 3.53379 8.91015 3.59979 8.95815 3.59979C8.96784 3.5998 8.97716 3.59606 8.98415 3.58934C8.99114 3.58263 8.99526 3.57348 8.99565 3.56379C9.00758 3.37048 9.00758 3.17661 8.99565 2.98329C8.99565 2.97335 8.9917 2.96381 8.98467 2.95678C8.97764 2.94974 8.9681 2.94579 8.95815 2.94579C8.94821 2.94579 8.93867 2.94974 8.93164 2.95678C8.9246 2.96381 8.92065 2.97335 8.92065 2.98329ZM8.25015 3.80529C8.24231 3.80896 8.23579 3.81497 8.2315 3.82249C8.2272 3.83001 8.22533 3.83867 8.22615 3.84729C8.22615 3.90579 8.29215 3.89979 8.38365 3.91029C8.46772 3.9179 8.55134 3.92991 8.63415 3.94629C8.64205 3.94582 8.6496 3.94286 8.65571 3.93783C8.66183 3.93281 8.6662 3.92598 8.66819 3.91832C8.67019 3.91067 8.66972 3.90257 8.66683 3.8952C8.66395 3.88783 8.65881 3.88156 8.65215 3.87729C8.52334 3.83015 8.38731 3.80579 8.25015 3.80529ZM8.85015 4.12029C8.76615 4.50729 8.75265 4.57779 8.81115 4.57779C8.86965 4.57779 8.86365 4.55379 8.93115 4.14129C8.93115 4.08879 8.85015 4.06779 8.85015 4.12029ZM10.1087 1.47879C9.94815 1.73529 10.1597 2.14479 10.4792 2.07879C10.57 2.06728 10.654 2.02414 10.7162 1.95695C10.7785 1.88975 10.8151 1.80278 10.8197 1.71129C10.8542 1.34979 10.3157 1.14879 10.1087 1.47879ZM10.2002 1.86729C10.171 1.82369 10.1521 1.77405 10.1448 1.7221C10.1375 1.67015 10.1421 1.61723 10.1582 1.56729C10.2542 1.26729 10.6982 1.34679 10.7447 1.63629C10.7762 1.81179 10.4027 2.17929 10.2002 1.86729ZM2.82915 5.37429C2.82077 5.37458 2.81264 5.37728 2.80576 5.38208C2.79887 5.38687 2.79352 5.39356 2.79035 5.40133C2.78718 5.4091 2.78633 5.41762 2.78789 5.42586C2.78945 5.4341 2.79336 5.44172 2.79915 5.44779C2.87715 5.53179 3.15165 6.02379 3.30915 6.16929C3.38115 6.11079 3.82665 5.37729 3.79965 5.33679C3.47831 5.38271 3.15308 5.39528 2.82915 5.37429ZM3.70515 5.39979C3.59976 5.63664 3.46359 5.85856 3.30015 6.05979L2.91915 5.45979C3.18257 5.46898 3.44618 5.44886 3.70515 5.39979ZM1.60215 18.4873C1.61214 18.4872 1.62175 18.4835 1.62915 18.4768C1.63342 18.4727 1.63681 18.4678 1.63913 18.4624C1.64145 18.457 1.64265 18.4512 1.64265 18.4453C1.64265 18.4394 1.64145 18.4336 1.63913 18.4282C1.63681 18.4227 1.63342 18.4179 1.62915 18.4138C1.52737 18.3305 1.41156 18.266 1.28715 18.2233C1.27514 18.2242 1.2639 18.2295 1.25565 18.2383C1.25133 18.2447 1.24902 18.2523 1.24902 18.26C1.24902 18.2678 1.25133 18.2754 1.25565 18.2818C1.25565 18.2908 1.27215 18.2983 1.36815 18.3493C1.44215 18.3836 1.5125 18.4254 1.57815 18.4738C1.58415 18.4812 1.59273 18.486 1.60215 18.4873ZM1.65015 18.8383C1.54071 18.9894 1.45286 19.155 1.38915 19.3303C1.38835 19.3379 1.39013 19.3456 1.39421 19.3522C1.39829 19.3587 1.40442 19.3637 1.41165 19.3663H1.42515C1.43053 19.3662 1.43581 19.3648 1.44051 19.3621C1.44522 19.3595 1.44922 19.3558 1.45215 19.3513L1.52115 19.2238C1.58715 19.1038 1.67115 18.9388 1.71465 18.8923C1.72246 18.884 1.7268 18.873 1.7268 18.8615C1.7268 18.8501 1.72246 18.8391 1.71465 18.8308C1.71149 18.8244 1.70645 18.8192 1.7002 18.8158C1.69396 18.8124 1.68682 18.811 1.67976 18.8119C1.67271 18.8127 1.66608 18.8157 1.66078 18.8204C1.65548 18.8251 1.65177 18.8314 1.65015 18.8383ZM2.30265 17.8813C2.3091 17.8743 2.31328 17.8656 2.31462 17.8562C2.31596 17.8468 2.3144 17.8373 2.31015 17.8288C2.30427 17.8196 2.29524 17.8129 2.28476 17.8098C2.27427 17.8068 2.26304 17.8077 2.25315 17.8123C2.14987 17.9236 2.06845 18.0534 2.01315 18.1948C2.01253 18.1996 2.0129 18.2046 2.01424 18.2093C2.01558 18.214 2.01786 18.2183 2.02095 18.2221C2.02404 18.2259 2.02786 18.229 2.0322 18.2313C2.03653 18.2336 2.04128 18.2349 2.04615 18.2353C2.05518 18.2358 2.06409 18.2331 2.07126 18.2276C2.07843 18.2221 2.08336 18.2142 2.08515 18.2053C2.13244 18.1087 2.19029 18.0176 2.25765 17.9338C2.29065 17.8993 2.29965 17.8873 2.30265 17.8813ZM2.26665 18.6478C2.26183 18.6465 2.25679 18.6462 2.25185 18.6469C2.2469 18.6475 2.24213 18.6492 2.23781 18.6517C2.23349 18.6542 2.22971 18.6575 2.22668 18.6615C2.22365 18.6654 2.22143 18.67 2.22015 18.6748C2.21887 18.6796 2.21855 18.6846 2.21922 18.6896C2.21988 18.6945 2.22151 18.6993 2.22402 18.7036C2.22653 18.708 2.22986 18.7117 2.23383 18.7148C2.2378 18.7178 2.24233 18.72 2.24715 18.7213C2.27865 18.7303 2.73165 18.8608 2.76615 18.8608C2.77291 18.86 2.77931 18.8574 2.78462 18.8531C2.78993 18.8489 2.79393 18.8432 2.79615 18.8368C2.79806 18.8299 2.79778 18.8226 2.79536 18.8159C2.79295 18.8092 2.7885 18.8034 2.78265 18.7993C2.76015 18.7828 2.27265 18.6493 2.26665 18.6478ZM27.5042 10.4368C27.4999 10.4314 27.4944 10.4271 27.4881 10.4242C27.4819 10.4213 27.475 10.42 27.4682 10.4203C27.4622 10.4203 27.4563 10.422 27.4513 10.4252C27.4462 10.4283 27.4422 10.4329 27.4397 10.4383C27.2897 10.6753 26.9717 11.2183 26.9387 11.2753C26.931 11.2804 26.9253 11.2879 26.9223 11.2965C26.9194 11.3052 26.9193 11.3146 26.9222 11.3233C26.9239 11.3311 26.9283 11.338 26.9346 11.343C26.9409 11.3479 26.9487 11.3505 26.9567 11.3503C28.1012 11.2438 28.0637 11.2558 28.0772 11.2228C28.0907 11.1898 28.1087 11.2618 27.5042 10.4368ZM27.9662 11.1763L27.0317 11.2618C27.1517 11.0683 27.3572 10.7248 27.4472 10.5733C27.4592 10.5538 27.4682 10.5373 27.4757 10.5268C27.7247 10.8643 27.8897 11.0833 27.9662 11.1763ZM28.4897 8.80779C28.4171 8.75196 28.329 8.72018 28.2375 8.71686C28.146 8.71355 28.0558 8.73888 27.9794 8.78932C27.903 8.83976 27.8443 8.91279 27.8114 8.99821C27.7785 9.08363 27.7732 9.17719 27.796 9.26582C27.8189 9.35446 27.8688 9.43374 27.9389 9.49261C28.009 9.55148 28.0957 9.587 28.187 9.59421C28.2782 9.60142 28.3694 9.57996 28.4479 9.53283C28.5264 9.48569 28.5882 9.41524 28.6247 9.33129C28.6555 9.24036 28.6592 9.1424 28.6352 9.04941C28.6112 8.95642 28.5606 8.87245 28.4897 8.80779ZM27.9257 9.36729C27.877 9.30095 27.8521 9.22014 27.855 9.13791C27.8579 9.05567 27.8884 8.97681 27.9416 8.91406C27.9948 8.8513 28.0676 8.80831 28.1483 8.79202C28.229 8.77574 28.3128 8.78711 28.3862 8.82429C28.4641 8.87522 28.524 8.94953 28.5571 9.03657C28.5903 9.1236 28.595 9.2189 28.5707 9.30879C28.5425 9.36777 28.4995 9.41842 28.4459 9.45575C28.3923 9.49308 28.3299 9.51582 28.2648 9.52172C28.1997 9.52762 28.1343 9.51649 28.0748 9.48941C28.0153 9.46233 27.9639 9.42025 27.9257 9.36729ZM22.9772 11.0818C22.7477 11.3203 22.9922 11.8498 23.3777 11.7418C23.4543 11.7184 23.5219 11.6722 23.5715 11.6093C23.6211 11.5464 23.6504 11.4699 23.6552 11.3899C23.6601 11.31 23.6405 11.2304 23.5989 11.1619C23.5573 11.0935 23.4958 11.0393 23.4227 11.0068C23.3495 10.973 23.2678 10.9621 23.1883 10.9755C23.1088 10.9889 23.0352 11.0259 22.9772 11.0818ZM23.5967 11.3353C23.6018 11.4037 23.5868 11.4722 23.5535 11.5321C23.5202 11.5921 23.47 11.641 23.4092 11.6728C23.0672 11.8468 22.8347 11.3728 22.9787 11.1523C23.0192 11.0934 23.0774 11.0489 23.1448 11.025C23.2122 11.0012 23.2855 10.9993 23.354 11.0196C23.4226 11.0399 23.483 11.0814 23.5266 11.1381C23.5701 11.1948 23.5947 11.2638 23.5967 11.3353ZM22.6592 10.5343C22.6517 10.5463 22.6592 10.5643 22.6757 10.5598C23.3507 10.3468 23.3252 10.3588 23.3237 10.3378C23.2037 8.95479 22.4462 7.82229 22.4132 7.83429C21.8402 8.02179 21.8327 8.00379 21.8462 8.03229C22.2238 8.82778 22.4971 9.66875 22.6592 10.5343ZM22.4297 7.91679C23.1392 9.11679 23.2187 10.0528 23.2382 10.2748C23.0462 10.3363 22.9097 10.3798 22.7207 10.4503C22.5564 9.62438 22.2845 8.82357 21.9122 8.06829C22.4462 7.88379 22.4132 7.88829 22.4297 7.91679ZM15.5807 11.8648C16.3097 11.9263 19.4717 11.9938 19.7807 11.9968C20.3117 11.9968 20.8592 11.8468 20.9417 11.3173C20.9747 11.1013 21.0917 9.49029 21.0722 9.21729C21.0077 8.25429 20.6507 7.57629 18.9722 7.35279C17.9897 7.22229 15.3977 7.15029 14.5937 7.72179C14.1797 8.02179 14.2277 8.63079 14.2157 9.08829C14.2084 9.62727 14.239 10.1661 14.3072 10.7008C14.4002 11.5138 14.6387 11.7853 15.5807 11.8648ZM18.5267 10.3153C18.5249 10.3199 18.5219 10.3238 18.5179 10.3266C18.5138 10.3294 18.5091 10.3309 18.5042 10.3309C18.4993 10.3309 18.4945 10.3294 18.4904 10.3266C18.4864 10.3238 18.4834 10.3199 18.4817 10.3153C18.4779 10.0802 18.4899 9.84522 18.5177 9.61179C18.5177 9.59379 18.5537 9.59079 18.5582 9.61179C18.5635 9.84673 18.553 10.0818 18.5267 10.3153ZM18.3002 8.68479C18.4112 8.69229 18.9002 8.73579 18.9587 8.75529C18.9797 8.76279 18.9872 8.80179 18.9587 8.80629C18.9017 8.80629 18.4052 8.74929 18.2942 8.73279C18.2612 8.72829 18.2687 8.68329 18.3002 8.68479ZM15.9812 10.5793C15.9829 10.5747 15.9859 10.5707 15.9899 10.5679C15.994 10.5651 15.9988 10.5636 16.0037 10.5636C16.0086 10.5636 16.0133 10.5651 16.0174 10.5679C16.0214 10.5707 16.0244 10.5747 16.0262 10.5793C16.0425 10.7287 16.0465 10.8792 16.0382 11.0293C16.6697 11.0293 17.2967 11.1448 17.9282 11.1358C17.9372 11.0338 17.9462 10.9348 17.9612 10.8358C17.9612 10.8028 18.0197 10.8118 18.0182 10.8358C18.0182 10.9453 18.0017 11.0533 17.9897 11.1613C17.9897 11.1696 17.9863 11.1777 17.9804 11.1836C17.9745 11.1895 17.9665 11.1928 17.9582 11.1928C17.6312 11.1928 16.3322 11.0848 16.0082 11.0908C15.9995 11.0904 15.9913 11.0868 15.9852 11.0807C15.9791 11.0746 15.9755 11.0664 15.9752 11.0578C15.9651 10.8984 15.9671 10.7384 15.9812 10.5793ZM15.3812 10.0723C15.3796 10.0762 15.3769 10.0795 15.3734 10.0819C15.37 10.0842 15.3659 10.0855 15.3617 10.0855C15.3575 10.0855 15.3534 10.0842 15.3499 10.0819C15.3464 10.0795 15.3437 10.0762 15.3422 10.0723C15.3089 9.85142 15.3008 9.62748 15.3182 9.40479C15.3182 9.38379 15.3557 9.38979 15.3572 9.40479C15.3557 9.52479 15.3962 10.0213 15.3797 10.0723H15.3812ZM15.8312 8.46879C15.8356 8.47081 15.8394 8.47408 15.8421 8.4782C15.8448 8.48232 15.8462 8.48713 15.8462 8.49204C15.8462 8.49695 15.8448 8.50176 15.8421 8.50588C15.8394 8.51001 15.8356 8.51327 15.8312 8.51529C15.5921 8.58911 15.3486 8.64773 15.1022 8.69079C14.9582 8.63529 15.7967 8.46279 15.8282 8.46879H15.8312ZM25.8737 27.4993C25.8737 27.5113 25.9052 27.5233 25.9082 27.5113C26.0041 27.1992 26.1677 26.9121 26.3873 26.6704C26.6069 26.4288 26.8771 26.2385 27.1787 26.1133C27.348 26.0483 27.5226 25.9981 27.7007 25.9633C27.9917 25.9108 26.2502 25.9063 25.8737 27.4993ZM25.3877 26.8588C25.4909 26.4805 25.7294 26.1532 26.0578 25.939C26.3862 25.7247 26.7818 25.6384 27.1697 25.6963C27.1832 25.6963 27.1862 25.6738 27.1697 25.6708C26.5847 25.5403 25.5887 25.7383 25.3562 26.8483C25.3502 26.8588 25.3847 26.8693 25.3877 26.8588Z" fill="#02494E"/>
<path d="M28.7999 26.8588C28.9334 26.8288 29.0669 26.8033 29.2019 26.7838C29.2439 26.7838 29.2229 26.7478 28.8089 26.2528C29.0384 26.1898 29.0759 26.1973 29.0504 26.1688C28.0619 25.1278 26.1449 23.8258 26.0939 23.8288C24.9419 23.8798 23.5829 24.5323 23.3549 25.6693C23.0075 25.473 22.6273 25.3414 22.2329 25.2808C22.4455 24.5924 22.4392 23.855 22.2149 23.1703C23.6369 21.9703 23.8499 20.7433 23.8739 20.6968C26.4239 19.9993 26.8814 18.8473 26.4809 17.0968C26.1925 15.8544 25.5549 14.7204 24.6434 13.8283C24.6329 12.8398 24.7634 10.8883 24.0884 8.85431C22.8119 5.00231 19.8419 4.43381 19.7609 4.42031C19.6804 4.40909 19.5991 4.40457 19.5179 4.40681C21.2249 1.88681 18.0044 1.22681 17.0954 2.26631C16.5764 2.86631 16.9199 3.72131 17.3219 4.43681C16.8404 4.50881 15.3719 4.82681 14.2394 6.40481C13.0499 8.06981 12.9074 10.3663 12.9989 12.6208C12.3524 12.1588 12.2789 12.1168 12.2894 12.1708C12.3179 12.2953 12.4259 12.7858 12.4604 12.9028L11.8964 12.5503C11.8829 12.5413 11.8694 12.5503 11.8709 12.5698C11.9204 12.8248 11.9774 13.0768 12.0314 13.3303C11.8069 13.2444 11.5781 13.1703 11.3459 13.1083C11.5199 13.4758 12.3119 15.1063 12.8954 16.3048C11.7614 16.2433 11.5349 14.8048 10.8824 14.0743C10.6546 13.8156 10.3548 13.6307 10.0213 13.5433C9.68779 13.4559 9.33583 13.47 9.0104 13.5838C8.7569 13.1773 8.3099 13.3108 8.2799 13.5838C8.0309 13.2163 7.6799 13.0903 7.2404 13.0618C6.84657 12.4796 6.48938 11.8734 6.1709 11.2468C6.16914 11.2437 6.16649 11.2412 6.16328 11.2396C6.16007 11.238 6.15646 11.2373 6.1529 11.2378C5.4734 11.3638 3.5204 11.7163 3.5234 11.7208C3.5984 11.8873 3.6494 12.0103 3.5489 12.1708C3.4184 12.3793 3.2234 12.1708 3.2039 12.1333C2.7989 11.4778 5.4704 16.3783 5.4854 16.3768C6.3854 16.3528 8.4074 16.0333 8.4944 16.0123C8.5513 16.0023 8.60472 15.978 8.64969 15.9417C8.69467 15.9055 8.72972 15.8584 8.75159 15.805C8.77346 15.7515 8.78143 15.6933 8.77475 15.636C8.76807 15.5786 8.74697 15.5238 8.7134 15.4768L8.3039 14.8003C8.32847 14.7597 8.34954 14.717 8.3669 14.6728C8.4509 14.9278 8.8979 15.0373 9.1064 14.6413C9.5564 14.6413 9.9029 14.9923 10.0979 15.3778C10.5014 16.1803 10.8824 18.6688 13.1909 18.4843C13.3858 18.4748 13.578 18.4353 13.7609 18.3673C13.9604 19.6498 14.4719 22.0543 15.5939 22.7173C15.4049 23.1823 15.3854 23.8588 15.4439 24.3568C15.7994 27.7768 19.2404 28.1308 20.8289 27.0568C21.8684 27.7663 22.2869 28.5043 22.3469 28.4818C22.4639 28.4338 22.5779 28.3798 22.6964 28.3318C23.9939 27.8218 24.9464 28.0438 25.3259 28.1638C25.4981 28.2267 25.6655 28.3019 25.8269 28.3888C25.8282 28.4565 25.851 28.5221 25.892 28.576C25.933 28.6299 25.99 28.6694 26.0549 28.6888C26.3549 28.7713 26.5544 28.4368 26.4539 28.2673C26.9144 27.9673 28.0184 27.6673 29.2394 27.7573C29.2979 27.7498 29.2499 27.7153 28.7999 26.8588ZM29.1569 26.7493C28.1504 26.8858 26.5754 27.4483 26.1569 28.3693C26.4569 27.3193 27.7184 26.5693 28.7699 26.2693C28.7699 26.2663 29.0309 26.5888 29.1614 26.7493H29.1569ZM25.2974 24.0163C25.5599 23.9473 25.7849 23.9218 26.0474 23.8663C27.8714 25.1608 27.7274 25.0393 28.9754 26.1508C28.4559 26.2661 27.9598 26.469 27.5084 26.7508C26.8019 27.1708 26.2724 27.6268 26.0879 28.4233C25.3634 27.2878 24.2369 26.4208 23.4059 25.7128C23.6459 24.8833 24.1844 24.3088 25.3019 24.0163H25.2974ZM23.6474 20.6743C22.6859 20.5603 21.7964 19.2013 22.2839 18.8743C22.5653 18.8152 22.8405 18.7298 23.1059 18.6193C22.9919 19.2073 24.0254 20.4283 24.6989 20.3308C24.3575 20.4687 24.0072 20.5834 23.6504 20.6743H23.6474ZM17.9474 19.3243C17.7419 19.4353 17.4644 19.2208 17.7164 18.7618C17.9399 18.3538 18.6059 17.8858 18.7169 18.4258C18.6933 18.4165 18.6686 18.4105 18.6434 18.4078C18.5951 18.4233 18.5487 18.4444 18.5054 18.4708C17.7839 18.8383 17.9879 19.3003 17.9564 19.3183L17.9474 19.3243ZM17.6114 18.2143C17.2844 18.2608 17.1794 18.4153 16.8614 18.3103C16.7162 18.2608 16.5892 18.1689 16.4969 18.0463C16.1564 17.6818 16.1579 17.1808 16.1099 16.8373C16.4302 16.8444 16.7506 16.8349 17.0699 16.8088C17.0428 17.1031 17.1011 17.3989 17.2379 17.6608C17.4374 18.0058 18.0194 18.2713 18.2354 18.0688C18.2366 18.1086 18.2453 18.1477 18.2609 18.1843C18.18 18.2227 18.1023 18.2673 18.0284 18.3178C17.8189 18.4814 17.6624 18.7031 17.5784 18.9553C17.4265 18.7716 17.2882 18.5771 17.1644 18.3733C17.1959 18.3733 17.5379 18.2593 17.6144 18.2353C17.618 18.2361 17.6217 18.2354 17.6248 18.2335C17.6279 18.2315 17.6301 18.2284 17.6309 18.2248C17.6317 18.2212 17.631 18.2175 17.6291 18.2144C17.6271 18.2113 17.624 18.2091 17.6204 18.2083L17.6114 18.2143ZM19.7024 13.0918C19.7024 13.1983 19.7204 13.2748 19.7174 13.3813C19.2344 13.5223 15.7364 14.6248 15.6254 14.6638C16.9248 13.9882 18.2952 13.459 19.7114 13.0858L19.7024 13.0918ZM15.6689 14.5798C16.7292 13.7241 17.9473 13.085 19.2539 12.6988C19.2539 12.8488 19.2854 12.9763 19.2884 13.1293C18.0439 13.5011 16.8355 13.9846 15.6779 14.5738L15.6689 14.5798ZM16.4189 16.7938C16.4189 16.7788 15.8264 14.7328 15.7994 14.6758L20.0999 13.5763C20.1179 14.0968 20.2169 17.2843 20.2244 17.5828C20.2094 17.5828 18.2234 18.0328 18.2219 18.0478C18.1524 18.0799 18.0764 18.0953 17.9999 18.0928C17.7612 18.0598 17.5401 17.9485 17.3714 17.7763C17.2624 17.6364 17.1835 17.4753 17.1399 17.3034C17.0963 17.1314 17.0888 16.9523 17.1179 16.7773C17.1254 16.7488 17.1464 16.7683 16.4234 16.7878L16.4189 16.7938ZM16.0619 14.5723C16.1609 14.5378 19.9394 13.3888 20.0429 13.3603C20.0429 13.4233 20.0654 13.4593 20.0624 13.5223C18.8474 13.8568 16.1189 14.5573 16.0664 14.5663L16.0619 14.5723ZM15.6779 14.7013C15.6404 14.731 15.5973 14.7529 15.5512 14.7658C15.5051 14.7786 15.4568 14.7821 15.4094 14.7761C15.3619 14.7701 15.3161 14.7547 15.2746 14.7308C15.2331 14.7069 15.1969 14.6749 15.1679 14.6368C15.1708 14.6345 15.1731 14.6315 15.1747 14.6281C15.1763 14.6247 15.177 14.621 15.1769 14.6173C15.1934 14.6278 15.3674 14.7253 15.4394 14.7673C15.5218 14.7501 15.603 14.7276 15.6824 14.6998L15.6779 14.7013ZM15.7619 14.6833C15.7799 14.8333 16.3709 16.7833 16.3754 16.7953C16.2642 16.7865 16.1524 16.7916 16.0424 16.8103C16.0694 17.4313 16.2314 18.1168 16.8104 18.3418C16.8779 18.5458 16.5179 18.6853 16.3469 18.3418C16.2824 18.2068 15.2819 15.0028 15.1754 14.6863C15.2125 14.7285 15.2583 14.7621 15.3097 14.7849C15.3611 14.8076 15.4168 14.819 15.473 14.8181C15.5292 14.8173 15.5845 14.8042 15.6351 14.7799C15.6858 14.7556 15.7306 14.7206 15.7664 14.6773L15.7619 14.6833ZM18.6449 18.4243C18.6449 18.4243 19.2044 18.6568 19.2614 18.6763C19.0289 18.6943 18.4019 19.4443 18.8369 19.9798C18.7649 19.9348 18.0524 19.4788 18.0014 19.3588C17.8409 18.9658 18.4349 18.5158 18.6494 18.4183L18.6449 18.4243ZM19.5569 18.7708C19.6465 18.8027 19.7389 18.8263 19.8329 18.8413C19.3949 18.9673 19.0829 19.9873 19.6229 20.3908C19.3578 20.277 19.1016 20.1437 18.8564 19.9918C18.5774 19.5328 18.9599 18.4993 19.5614 18.7648L19.5569 18.7708ZM19.9139 18.8608C20.1474 18.9128 20.3838 18.9504 20.6219 18.9733C20.1254 19.1398 20.0384 20.2993 20.5994 20.7133C20.2979 20.6423 20.0025 20.5475 19.7159 20.4298C19.1999 19.9888 19.4099 18.8998 19.9184 18.8548L19.9139 18.8608ZM20.6549 18.9763C20.8732 18.9973 21.0926 19.0048 21.3119 18.9988C20.8799 19.5448 21.3689 20.5348 21.8489 20.8768C21.4608 20.8659 21.0747 20.8187 20.6954 20.7358C20.1674 20.3848 20.1149 19.1203 20.6594 18.9703L20.6549 18.9763ZM21.3449 18.9988C21.6449 18.9889 21.9435 18.9533 22.2374 18.8923C21.7874 19.2508 22.5854 20.5723 23.5799 20.6923C23.03 20.8245 22.4654 20.886 21.8999 20.8753C20.8844 19.8808 21.2909 19.0813 21.3494 18.9928L21.3449 18.9988ZM24.8294 20.2783C24.0719 20.4703 23.1929 19.1563 23.1404 18.9088C23.1234 18.8128 23.1199 18.7148 23.1299 18.6178C23.3905 18.5157 23.6281 18.3627 23.8289 18.1678C23.9069 19.1473 25.5284 19.7788 25.9709 19.5568C25.6814 19.9753 24.8384 20.2708 24.8339 20.2723L24.8294 20.2783ZM26.0759 19.4383C26.0228 19.4914 25.9581 19.5315 25.8869 19.5553C25.5209 19.6648 24.0359 19.1053 23.8514 18.1408C24.0245 17.9307 24.1292 17.6727 24.1514 17.4013C24.5009 18.1918 26.1824 18.4708 26.5109 17.8138C26.5724 18.5773 26.3849 19.0678 26.0804 19.4323L26.0759 19.4383ZM26.1344 16.2688C25.9844 16.6723 25.0844 17.0623 24.1844 16.6903C24.1574 16.6783 24.1514 16.7143 24.1634 16.7203C25.0079 17.1103 25.9739 16.7908 26.1509 16.3273C26.321 16.7774 26.4363 17.2462 26.4944 17.7238C26.3369 18.3643 24.7079 18.2278 24.1454 17.3818C24.1783 17.0012 24.1029 16.619 23.9279 16.2793C24.0044 16.1938 24.6869 15.4618 25.6814 15.3148C25.8575 15.6189 26.0104 15.9358 26.1389 16.2628L26.1344 16.2688ZM25.6694 15.2848C25.328 15.3233 24.9978 15.4299 24.6983 15.5984C24.3989 15.7669 24.1364 15.9939 23.9264 16.2658C23.8223 16.057 23.6912 15.8629 23.5364 15.6883C23.5469 15.6193 23.5529 15.5503 23.5664 15.4813C23.7164 14.7313 24.4799 14.0728 24.9479 14.2498C25.2206 14.5701 25.4636 14.9145 25.6739 15.2788L25.6694 15.2848ZM24.9029 14.1973C24.3029 13.9618 23.5199 14.9698 23.5199 15.6703C23.3874 15.5251 23.2445 15.3898 23.0924 15.2653C22.7624 14.1283 23.5529 13.4758 23.9924 13.3303C24.3243 13.5873 24.6307 13.8757 24.9074 14.1913L24.9029 14.1973ZM22.5464 14.9248C22.5464 14.9338 22.9049 15.1798 23.0594 15.3013C22.9004 15.7513 21.8459 15.7513 21.8939 14.4658C21.9554 12.8263 23.2199 12.4243 23.6129 12.6358C23.7002 12.6788 23.7687 12.7523 23.8052 12.8425C23.8417 12.9327 23.8437 13.0332 23.8109 13.1248C23.7899 13.1113 23.5214 12.9298 23.4029 12.8623C23.1395 13.02 22.9177 13.2386 22.7564 13.4998C22.6234 13.7093 22.5359 13.9444 22.4998 14.19C22.4636 14.4355 22.4795 14.6858 22.5464 14.9248ZM22.6139 14.9038C22.5989 14.8948 22.2269 13.8238 23.4239 12.9118C23.6204 13.0423 23.7809 13.1578 23.9669 13.3018C23.1089 13.5778 22.7564 14.5978 23.0594 15.2278C22.918 15.1104 22.7692 15.0022 22.6139 14.9038ZM16.9499 3.27281C16.6409 1.51331 20.1104 1.44431 19.9379 3.29681C19.8809 3.91181 19.4324 4.39481 19.1189 4.89581C18.8309 5.35631 18.7394 5.39231 18.5399 5.43281C18.6524 5.11631 18.9989 3.83231 19.0949 3.50681C19.0985 3.49965 19.0991 3.49136 19.0965 3.48376C19.094 3.47617 19.0886 3.46989 19.0814 3.46631C19.0742 3.46273 19.066 3.46214 19.0584 3.46467C19.0508 3.4672 19.0445 3.47265 19.0409 3.47981C19.0124 3.57281 18.9854 3.66581 18.9599 3.76031C18.7769 3.50231 18.9134 3.64631 18.6239 3.86831C18.4139 3.68081 18.3839 3.58181 18.3434 3.63881C18.2806 3.73072 18.2076 3.81525 18.1259 3.89081C17.9414 3.92081 17.8499 3.67031 17.8394 3.64031C17.8289 3.61031 17.7854 3.63131 17.7914 3.64931C17.7974 3.66731 18.2654 5.39231 18.2879 5.44931C17.8799 5.43281 17.0534 3.87431 16.9499 3.27281ZM18.4829 5.49731C18.9329 5.45531 19.2029 4.88531 19.2599 4.79981C19.5374 4.91831 19.5149 5.65631 18.7844 5.84981C17.7764 6.11231 17.1704 5.28881 17.6639 4.96031C17.9804 5.38181 18.0239 5.53931 18.4814 5.49731H18.4829ZM18.3404 5.45531C18.3404 5.38931 17.9849 4.09181 17.9039 3.86681C18.1184 4.04681 18.2129 3.93131 18.3749 3.70181C18.4289 3.75881 18.6059 3.95231 18.6374 3.92831C18.7241 3.86347 18.7974 3.78249 18.8534 3.68981L18.9464 3.81431C18.8879 4.02881 18.4964 5.44181 18.4964 5.44331C18.4442 5.45016 18.3916 5.45417 18.3389 5.45531H18.3404ZM14.2499 6.66281C15.5549 4.64381 17.3729 4.59731 17.3999 4.57331C17.4732 4.69963 17.5549 4.8209 17.6444 4.93631C17.1809 5.12681 17.4269 6.23531 18.7859 5.94581C19.6364 5.76431 19.5974 4.85981 19.2944 4.74581C19.3649 4.64081 19.4444 4.53731 19.5089 4.43381C21.0299 4.71581 23.0174 6.16631 23.9234 8.64281C24.5159 10.2628 24.5984 12.0298 24.5714 13.7593C24.3375 13.5331 24.0868 13.325 23.8214 13.1368C23.9489 13.1743 23.9354 12.4138 23.2034 12.5158C22.8071 12.5926 22.4563 12.8207 22.2254 13.1518C21.9735 13.5101 21.8261 13.9312 21.7994 14.3683C21.6854 15.7348 22.8854 15.8683 23.0924 15.3313C24.1019 16.1443 24.2924 17.1493 23.9729 17.8258C23.5229 18.7813 21.3104 19.4053 18.7589 18.4258C18.7668 18.3909 18.7666 18.3546 18.7583 18.3197C18.75 18.2849 18.7338 18.2524 18.7109 18.2248C18.6029 18.0748 18.4439 18.0973 18.2789 18.1648C18.2643 18.1297 18.2572 18.0919 18.2579 18.0538C18.6239 17.9968 20.2529 17.6398 20.2784 17.6308C20.3039 17.6218 20.2934 17.6128 20.2934 17.6068C20.2799 17.0743 20.1779 13.8163 20.1749 13.5193C20.1824 13.5013 20.1749 13.4728 20.1434 13.4818L20.1164 13.4908C20.1164 13.1908 20.1779 13.2343 19.7699 13.3528C19.7699 13.0258 19.7924 12.9778 19.7474 12.9898C19.6124 13.0243 19.4789 13.0603 19.3454 13.0993C19.3454 12.9493 19.3214 12.7888 19.3154 12.6328C19.3153 12.6301 19.3145 12.6275 19.3133 12.6252C19.312 12.6228 19.3102 12.6208 19.3081 12.6192C19.3059 12.6176 19.3034 12.6166 19.3008 12.6161C19.2982 12.6155 19.2955 12.6156 19.2929 12.6163C17.8943 13.0057 16.6007 13.7032 15.5069 14.6578C15.4919 14.6668 14.1674 13.4758 13.0769 12.6748C13.1459 10.6363 13.0814 8.47481 14.2499 6.66281ZM12.3374 12.2383C13.2149 12.8053 15.1244 14.4463 15.2999 14.6038L12.5159 12.9133C12.4964 12.7873 12.3629 12.3508 12.3374 12.2383ZM11.9414 12.6313C12.9119 13.2193 15.0524 14.5318 15.0599 14.5378C14.6099 14.3218 12.1589 13.3723 12.1139 13.3558C12.0629 13.1083 11.9999 12.8773 11.9414 12.6313ZM11.4254 13.1653C11.9129 13.3633 15.1274 14.6488 15.1319 14.6488C15.3239 15.3043 16.2584 18.3643 16.3484 18.4693C16.2899 18.4513 13.7099 17.5918 13.6094 17.5693C13.6034 17.5498 11.4344 13.1803 11.4254 13.1653ZM3.2999 12.2863C3.4679 12.3538 3.6629 12.1798 3.6434 11.9563C3.8999 12.4498 5.5334 15.5698 5.6444 15.8773C5.6549 15.9043 5.6594 15.8968 5.8784 15.8563C5.8926 15.9109 5.89332 15.9681 5.8805 16.023C5.86768 16.0779 5.8417 16.1289 5.8048 16.1716C5.7679 16.2142 5.72119 16.2473 5.66869 16.2679C5.61618 16.2885 5.55946 16.296 5.5034 16.2898C5.2499 15.7348 3.4604 12.5368 3.2999 12.2863ZM8.4824 15.9433C8.3699 15.9733 6.1484 16.2958 5.6849 16.3183C5.73233 16.3049 5.7764 16.2816 5.81422 16.2499C5.85205 16.2183 5.88279 16.1791 5.90444 16.1348C5.92609 16.0905 5.93817 16.0421 5.93989 15.9929C5.9416 15.9436 5.93292 15.8945 5.9144 15.8488C5.9459 15.8488 8.3234 15.4108 8.5484 15.4378C8.7464 15.4603 8.8259 15.8518 8.4854 15.9433H8.4824ZM8.5814 15.3628C8.4974 15.3268 5.8559 15.7828 5.6969 15.8128C5.4974 15.2773 3.6194 11.7808 3.5969 11.7478C4.2779 11.6368 5.9414 11.3158 6.1289 11.2828C6.43715 11.8938 6.78488 12.484 7.1699 13.0498C6.9299 13.0378 6.6194 13.0588 6.3344 13.0273C6.32883 13.0273 6.32349 13.0295 6.31955 13.0335C6.31562 13.0374 6.3134 13.0427 6.3134 13.0483C6.3404 13.3123 6.3404 13.5793 6.3689 13.8433C6.3689 13.8613 6.4064 13.8643 6.4094 13.8643C6.8354 13.8748 7.2764 13.7308 7.6964 13.8763C7.7909 14.0578 8.5574 15.3223 8.5844 15.3628H8.5814ZM7.7714 13.9168C7.80449 13.9351 7.83241 13.9615 7.8526 13.9935C7.87279 14.0255 7.88458 14.0621 7.8869 14.0998C7.8254 13.9993 7.7834 13.9303 7.7744 13.9168H7.7714ZM8.2754 14.7493L7.9049 14.1358C8.0549 13.6423 6.9314 13.7833 6.4289 13.8028C6.4034 13.5493 6.3974 13.3528 6.3719 13.0948C6.8099 13.1368 7.2569 13.0618 7.6799 13.2013C8.3099 13.4098 8.6024 14.0413 8.2784 14.7493H8.2754ZM9.0974 14.4613C8.9969 14.9113 8.5454 14.9848 8.3759 14.6293C8.43955 14.4671 8.46624 14.2927 8.45404 14.1189C8.44185 13.945 8.39107 13.7761 8.3054 13.6243C8.3054 13.6093 8.4554 13.2898 8.7089 13.3813C9.0614 13.4998 9.1709 14.1463 9.1004 14.4613H9.0974ZM9.1784 14.6008C9.15643 14.5993 9.13438 14.5993 9.1124 14.6008C9.2324 14.3353 9.1544 13.8508 9.0164 13.5988C9.5114 13.4458 9.5669 14.3623 9.1814 14.6008H9.1784ZM9.2354 14.6008C9.5054 14.4628 9.5999 13.7158 9.2099 13.5508C9.5264 13.4893 9.7799 13.4683 9.8624 13.7368C9.9719 14.0863 9.7934 14.6008 9.4394 14.6608C9.37515 14.6335 9.30756 14.6149 9.2384 14.6053L9.2354 14.6008ZM9.8009 14.9008C9.71081 14.8103 9.60641 14.7353 9.4919 14.6788C9.9194 14.6788 10.0919 13.7578 9.7394 13.5268C9.95332 13.5511 10.1606 13.6163 10.3499 13.7188C10.7819 14.1118 10.1564 15.0478 9.8039 14.9008H9.8009ZM9.8264 14.9323C10.1159 15.0823 10.7984 14.2753 10.4354 13.7668C10.6915 13.9286 10.9058 14.1486 11.0609 14.4088C11.0693 14.4584 11.0748 14.5085 11.0774 14.5588C11.0774 15.0703 10.5554 15.3733 10.0679 15.2473C10.001 15.1334 9.92092 15.0276 9.8294 14.9323H9.8264ZM10.0784 15.2698C10.1999 15.3192 10.3323 15.3358 10.4622 15.3181C10.5922 15.3003 10.7152 15.2488 10.819 15.1687C10.9228 15.0885 11.0038 14.9825 11.0539 14.8613C11.104 14.7401 11.1214 14.6079 11.1044 14.4778C11.2409 14.7013 11.3549 14.9383 11.4794 15.1693C11.4753 15.2343 11.4668 15.299 11.4539 15.3628C11.3414 15.7978 10.7999 16.0633 10.2974 15.7663C10.2409 15.5945 10.1686 15.4283 10.0814 15.2698H10.0784ZM10.3064 15.7903C10.7984 16.1803 11.4959 15.7903 11.5064 15.2323C11.6043 15.4186 11.7193 15.5954 11.8499 15.7603C11.8499 16.6828 10.8974 16.7758 10.4909 16.3258C10.4024 16.0678 10.3739 15.9703 10.3094 15.7903H10.3064ZM10.5119 16.3618C11.0219 17.0053 11.9624 16.4983 11.8904 15.8008C12.0028 15.9368 12.1342 16.056 12.2804 16.1548C12.4889 16.9933 11.4629 17.4718 10.8359 17.0458C10.7111 16.8266 10.6038 16.5979 10.5149 16.3618H10.5119ZM10.8719 17.1118C11.5709 17.6023 12.5219 16.9318 12.3179 16.1878C12.4489 16.27 12.5964 16.3222 12.7499 16.3408C12.9839 17.4748 12.0554 18.0778 11.5499 17.9218C11.2807 17.6873 11.0525 17.4095 10.8749 17.0998L10.8719 17.1118ZM11.5934 17.9653C12.4214 18.1738 13.0544 17.0248 12.7799 16.3528C12.8243 16.3565 12.869 16.3565 12.9134 16.3528C13.0994 16.7338 13.2614 17.0653 13.3754 17.2963C13.3748 17.5244 13.3144 17.7483 13.2001 17.9457C13.0859 18.1432 12.9219 18.3071 12.7244 18.4213C12.3067 18.3991 11.909 18.2357 11.5964 17.9578L11.5934 17.9653ZM12.7709 18.4153C12.9695 18.3147 13.1344 18.1584 13.2455 17.9655C13.3566 17.7726 13.409 17.5515 13.3964 17.3293C13.5674 17.6773 13.5119 17.6143 13.6634 17.6638C13.6889 17.8768 13.7174 18.0883 13.7489 18.2998C13.4332 18.3953 13.1032 18.4344 12.7739 18.4153H12.7709ZM15.9659 22.0498C15.902 21.6992 15.9112 21.3392 15.9929 20.9923C16.2194 20.2093 16.9904 19.6978 17.4749 20.4958C17.5259 20.5813 17.5754 20.6698 17.6249 20.7598C16.7159 20.9368 15.9794 22.0303 15.9659 22.0498ZM17.7764 22.0138C16.1459 23.5948 17.1089 25.5058 17.5349 25.9588C17.2874 25.7053 15.8264 23.6623 17.7674 21.9913C17.7734 21.9853 17.7869 22.0033 17.7764 22.0123V22.0138ZM17.5499 20.4703C17.4518 20.2729 17.2824 20.1201 17.0759 20.0428C16.5209 19.8928 15.6719 20.5483 15.9059 22.1428C15.8609 22.2103 15.6734 22.5313 15.6314 22.6243C14.1989 21.7033 13.9919 18.8053 13.8014 17.7088C14.4014 17.9083 16.6319 18.6178 16.6964 18.6088C16.754 18.6002 16.8061 18.5697 16.8416 18.5235C16.8771 18.4773 16.8934 18.4192 16.8869 18.3613C16.9667 18.3849 17.0498 18.395 17.1329 18.3913C17.2722 18.6044 17.4224 18.8102 17.5829 19.0078C17.5624 19.0823 17.5695 19.1617 17.6028 19.2314C17.6362 19.3011 17.6935 19.3565 17.7644 19.3873C17.801 19.403 17.8413 19.4079 17.8806 19.4015C17.9199 19.3952 17.9566 19.3777 17.9864 19.3513C18.1004 19.6513 19.3904 20.3338 19.7069 20.4688C20.989 21.0085 22.4151 21.1025 23.7569 20.7358C23.2004 22.7563 21.0419 24.1528 19.9739 24.2413C18.4094 24.3688 18.4079 23.0728 18.3404 22.6693C18.2142 21.894 17.9462 21.1485 17.5499 20.4703ZM18.7379 24.8878C18.5084 24.5878 18.4169 24.2068 18.6749 23.9263C18.9554 24.2698 19.3604 24.3763 19.7999 24.3328C20.0751 24.3207 20.3472 24.2702 20.6084 24.1828C20.6404 24.3794 20.6292 24.5805 20.5754 24.7723C20.2049 25.6153 19.1999 25.4743 18.7364 24.8878H18.7379ZM22.7879 28.1983C22.6378 28.2547 22.4941 28.3266 22.3589 28.4128C22.1039 28.0438 21.7694 27.7723 21.4454 27.4408C21.0854 27.0748 20.3474 26.6668 19.9454 26.4823L19.7504 26.3743C19.9484 26.2948 20.5574 26.0518 20.7134 25.9798C21.9134 26.7508 22.2809 27.4483 22.3454 27.4408C23.8574 27.3148 25.0859 27.7243 25.8239 28.2883C24.6779 27.6913 23.3774 27.9538 22.7819 28.1998L22.7879 28.1983ZM25.4999 28.0168C24.1019 27.0913 22.4039 27.3973 22.3799 27.3688C21.9219 26.8102 21.3751 26.3308 20.7614 25.9498C20.7625 25.9477 20.763 25.9454 20.763 25.9431C20.763 25.9407 20.7625 25.9384 20.7614 25.9363C20.5365 25.7821 20.2937 25.6557 20.0384 25.5598C20.5126 25.3614 21.0218 25.2602 21.5359 25.2623C22.0499 25.2644 22.5583 25.3696 23.0309 25.5718C23.1449 25.6198 23.2169 25.6708 23.3309 25.7098C23.3309 25.7098 24.1289 26.3848 24.4949 26.7118C25.0671 27.2176 25.5818 27.785 26.0294 28.4038C25.8656 28.2583 25.6883 28.1287 25.4999 28.0168ZM25.8719 28.3918L26.1254 28.5328C26.2095 28.448 26.2981 28.3679 26.3909 28.2928C26.3974 28.327 26.3971 28.3621 26.39 28.3962C26.383 28.4302 26.3693 28.4626 26.3497 28.4913C26.3301 28.5201 26.3051 28.5447 26.276 28.5638C26.2469 28.5829 26.2143 28.5961 26.1802 28.6026C26.146 28.6091 26.1109 28.6088 26.0768 28.6017C26.0427 28.5946 26.0104 28.5809 25.9816 28.5613C25.9529 28.5418 25.9282 28.5167 25.9092 28.4876C25.8901 28.4585 25.8769 28.426 25.8704 28.3918H25.8719ZM26.1479 28.4608C26.2297 28.2846 26.3391 28.1226 26.4719 27.9808C26.9669 27.4618 28.0484 27.0328 28.7699 26.8678C28.9199 27.1408 29.0564 27.4153 29.1944 27.6913C28.1999 27.5743 26.6429 27.8443 26.1464 28.4608H26.1479ZM4.1489 22.9498C4.14655 22.9487 4.14399 22.9482 4.1414 22.9482C4.13881 22.9482 4.13626 22.9487 4.1339 22.9498C4.13285 22.9519 4.1323 22.9542 4.1323 22.9566C4.1323 22.9589 4.13285 22.9612 4.1339 22.9633C4.13347 22.9663 4.13369 22.9694 4.13455 22.9723C4.13541 22.9752 4.13689 22.9779 4.13888 22.9801C4.14088 22.9824 4.14334 22.9842 4.14611 22.9855C4.14887 22.9867 4.15187 22.9873 4.1549 22.9873L4.6439 23.0053C5.3939 23.0353 6.6659 23.0833 6.8279 23.0833C6.83198 23.0821 6.83556 23.0797 6.83811 23.0763C6.84067 23.0729 6.84205 23.0688 6.84205 23.0646C6.84205 23.0603 6.84067 23.0562 6.83811 23.0528C6.83556 23.0494 6.83198 23.047 6.8279 23.0458C6.6209 23.0308 5.7779 22.9978 4.2974 22.9468L4.1489 22.9498ZM5.9999 22.6498L6.5849 22.6663C6.58759 22.6665 6.59028 22.6662 6.59283 22.6653C6.59537 22.6644 6.5977 22.663 6.59967 22.6612C6.60164 22.6593 6.60322 22.6571 6.60429 22.6546C6.60536 22.6522 6.60591 22.6495 6.6059 22.6468C6.60611 22.644 6.60576 22.6413 6.60489 22.6386C6.60402 22.636 6.60264 22.6336 6.60083 22.6315C6.59902 22.6294 6.59681 22.6277 6.59433 22.6265C6.59186 22.6252 6.58916 22.6245 6.5864 22.6243C5.9864 22.5763 4.7204 22.5478 3.9599 22.5298H3.8999C3.5999 22.5298 3.3749 22.5178 3.2999 22.5133C3.29618 22.5132 3.29247 22.5139 3.28909 22.5155C3.28571 22.5171 3.28273 22.5194 3.2804 22.5223C3.27856 22.5258 3.2776 22.5296 3.2776 22.5336C3.2776 22.5375 3.27856 22.5413 3.2804 22.5448C3.28215 22.5482 3.28472 22.551 3.28787 22.5531C3.29101 22.5552 3.29464 22.5565 3.2984 22.5568C3.9149 22.5898 5.2154 22.6228 5.9999 22.6498Z" fill="#02494E"/>
<path d="M13.1457 24.1184C13.8822 23.5424 13.6767 22.8704 13.2402 22.7444C13.4592 22.5944 13.4862 22.5824 13.4622 22.5464C13.4582 22.5405 13.4522 22.5362 13.4452 22.5346C13.4383 22.5329 13.431 22.5339 13.4247 22.5374C12.8112 22.5989 12.6222 21.8114 13.2132 21.3299C13.2149 21.3282 13.2162 21.3262 13.2171 21.324C13.218 21.3218 13.2185 21.3195 13.2185 21.3171C13.2185 21.3148 13.218 21.3124 13.2171 21.3102C13.2162 21.308 13.2149 21.306 13.2132 21.3044C13.2151 21.2995 13.2151 21.2942 13.2132 21.2894C13.2102 21.2858 13.2061 21.2831 13.2016 21.2818C13.1971 21.2804 13.1922 21.2805 13.1877 21.2819L11.8692 21.1994C11.9757 21.1364 12.0057 21.1319 12.0102 21.0839C12.0147 21.0359 11.7987 20.9264 11.9067 20.5919C11.947 20.4499 12.0055 20.3138 12.0807 20.1869C12.4887 19.9799 12.4767 19.9754 12.4707 19.9529C12.4675 19.9417 12.4616 19.9314 12.4535 19.923C12.4454 19.9146 12.4353 19.9084 12.4242 19.9049C11.3637 19.8299 7.78772 19.6604 7.77422 19.6709C5.37422 20.6624 2.94572 21.8474 2.82422 21.9494C2.54522 22.1774 2.49272 22.6304 2.49572 22.7909C0.899719 24.0179 0.887719 24.0359 0.817219 24.1724C0.764347 24.2779 0.749354 24.3984 0.774752 24.5136C0.800151 24.6289 0.864396 24.7319 0.956719 24.8054C1.33172 25.0829 1.74872 24.7919 2.10872 25.2014C2.173 25.2717 2.22003 25.356 2.24606 25.4477C2.2721 25.5393 2.27643 25.6358 2.25872 25.7294C1.64372 26.0399 1.22672 26.1119 1.32272 26.1794C2.00072 26.4359 1.80872 27.1634 1.22222 27.3299C1.21633 27.3313 1.21108 27.3347 1.20733 27.3394C1.20358 27.3442 1.20154 27.3501 1.20154 27.3561C1.20154 27.3622 1.20358 27.3681 1.20733 27.3728C1.21108 27.3776 1.21633 27.381 1.22222 27.3824C1.24622 27.3824 8.12222 27.9194 8.66372 27.9689C8.85577 27.993 9.05081 27.9704 9.23222 27.9029C9.33872 27.8579 12.6897 25.6529 12.8787 25.5239C13.1787 25.3214 13.4787 25.0619 13.5342 24.6809C13.5612 24.4604 13.4427 24.2354 13.1457 24.1184ZM1.47272 26.1854C1.48772 26.1854 9.09422 26.7854 9.12272 26.7974C9.17855 26.8085 9.23144 26.8311 9.27795 26.864C9.32446 26.8968 9.36356 26.939 9.39272 26.9879C9.55772 27.3344 9.35522 27.8054 8.79272 27.9089C8.63222 27.8999 2.31572 27.4064 1.34972 27.3359C1.86722 27.0944 1.99622 26.4869 1.47272 26.1854ZM1.90772 24.9749C7.78322 25.3904 8.62922 25.4249 8.65772 25.4249C8.78772 25.4591 8.90488 25.5306 8.99481 25.6306C9.08473 25.7305 9.14351 25.8545 9.1639 25.9874C9.18429 26.1203 9.16542 26.2563 9.10961 26.3786C9.05379 26.5009 8.96346 26.6042 8.84972 26.6759C8.64272 26.6609 2.83922 26.2259 2.01722 26.1614C2.41922 25.9304 2.44772 25.2614 1.90772 24.9749ZM11.9247 21.0749C11.7972 21.1499 8.09972 23.3414 7.98572 23.3999C7.73972 23.4134 7.48172 23.1419 7.56722 22.7339C7.68872 22.1534 7.86722 22.2119 12.0057 20.2094C11.8407 20.4914 11.6652 20.8814 11.9247 21.0704V21.0749ZM8.06522 22.0364H8.05622C3.46172 22.0364 3.08822 21.9059 2.75972 22.0994C2.90972 21.8939 2.88572 21.9494 5.65622 20.6969C6.76772 20.1929 7.62872 19.7969 7.75622 19.7444C8.90972 19.8419 11.8167 19.9424 12.3357 19.9694C11.9142 20.1749 8.26322 21.9254 8.06522 22.0319V22.0364ZM4.71572 22.0904C5.69222 22.1174 6.90572 22.1504 7.96472 22.1114C7.50122 22.3529 7.26122 23.1179 7.77272 23.4299C3.55322 23.3294 2.88572 23.5949 2.62172 23.1104C2.55683 22.9842 2.52974 22.842 2.54372 22.7009C2.65472 21.9674 2.76422 22.0349 4.71572 22.0859V22.0904ZM3.12422 23.4404C3.16022 23.4584 7.77422 23.5034 7.96472 23.5034C7.98422 23.5034 10.3212 22.1099 11.7657 21.2534C11.8812 21.2669 12.8487 21.3179 13.1052 21.3269C12.6717 21.6104 9.07022 23.8994 8.76722 24.1664C7.52372 24.0779 1.45322 23.9504 1.43672 23.9504C1.26684 23.9391 1.09702 23.9733 0.944719 24.0494C1.04822 23.9459 2.04422 23.1869 2.48222 22.8494C2.52122 23.2499 2.84972 23.4869 3.12422 23.4419V23.4404ZM13.3092 22.6124C12.8412 22.9124 9.14972 25.2719 8.97722 25.3799C8.73272 25.2854 8.55722 25.1744 8.52722 24.8444C8.46422 24.1649 8.96672 24.1499 13.0497 21.4184C12.5862 21.8999 12.8172 22.5929 13.3092 22.6139V22.6124ZM9.08222 26.5499C9.33572 26.1974 9.25772 25.6289 8.83922 25.4249C8.98922 25.4249 8.75822 25.6229 11.0052 24.1619C11.9187 23.5844 13.0332 22.8794 13.1772 22.7804C13.2631 22.8005 13.3423 22.8426 13.407 22.9025C13.4717 22.9625 13.5197 23.0383 13.5462 23.1224C13.7352 23.6969 13.0587 24.1229 12.5562 24.4649C11.7312 25.0304 9.65372 26.2394 9.08222 26.5499ZM8.77172 25.3634C4.60022 25.0874 1.31972 24.8834 1.18622 24.8504C1.11157 24.8391 1.0408 24.8098 0.980004 24.765C0.919212 24.7203 0.870234 24.6614 0.837301 24.5934C0.804369 24.5255 0.788471 24.4506 0.790983 24.3751C0.793495 24.2997 0.814341 24.226 0.851719 24.1604C0.907219 24.1769 0.851719 24.0104 1.43672 24.0014C1.71722 24.0014 7.96622 24.1754 8.72072 24.2039C8.32922 24.6179 8.42222 25.1564 8.77172 25.3694V25.3634ZM1.88522 26.1479C1.72022 26.1374 1.58522 26.1314 1.45772 26.1254C1.65272 26.0549 2.05772 25.8854 2.21972 25.8014C2.15512 25.9559 2.03611 26.0813 1.88522 26.1539V26.1479ZM8.98172 26.6849C10.3895 25.9152 11.7568 25.0735 13.0782 24.1634C13.1667 24.2129 13.4367 24.3764 13.4607 24.5414C13.4952 24.7769 13.3182 25.0214 13.2402 25.1159C13.1307 25.2494 9.53822 27.6344 9.32072 27.7724C9.24152 27.8222 9.1542 27.8577 9.06272 27.8774C9.61322 27.6539 9.75722 26.8094 8.98172 26.6909V26.6849Z" fill="#02494E"/>
</svg>
