<svg width="375" height="375" viewBox="0 0 375 375" fill="none" xmlns="http://www.w3.org/2000/svg">
<path fill-rule="evenodd" clip-rule="evenodd" d="M125 280.289C72.2997 258.983 72.6245 285.729 49.1353 246.289C25.6461 206.848 47.3582 148.74 116.288 130.789C185.217 112.838 281 28.1303 332.132 168.988C346.501 208.571 318.813 314 219.334 313.79C148.123 313.637 160.618 294.289 125 280.289Z" fill="#C6ECCF"/>
<path fill-rule="evenodd" clip-rule="evenodd" d="M211.88 198.789C211.631 198.593 211.695 197.995 211.769 197.592C212.238 195.036 214.497 193.324 216.49 191.728C218.483 190.131 220.544 187.986 220.337 185.393C220.058 181.891 221.672 178.569 222.658 175.205C223.643 171.84 223.818 167.695 221.306 165.317C220.436 164.493 219.326 163.977 218.45 163.16C217.573 162.343 216.943 161.018 217.442 159.913C217.017 160.168 216.592 160.422 216.167 160.677C216.049 158.969 214.109 158.209 212.649 157.391C210.145 155.988 208.314 153.153 208.515 150.224C208.716 147.294 211.271 144.596 214.117 144.761C215.338 144.832 216.908 145.219 217.514 144.124C219.757 140.079 225.571 139.613 228.212 135.833C228.787 135.009 231.564 132.549 231.29 134.289C230.68 138.156 234.068 137.034 235.405 138.653C241.23 145.71 241.678 156.404 240.628 166.539C238.379 188.225 224.976 209.092 211.88 198.789Z" fill="white"/>
<path fill-rule="evenodd" clip-rule="evenodd" d="M227.691 140.61C229.048 139.151 231.024 138.289 233.016 138.289C236.308 139.995 239.564 142.304 242.784 145.214C244.804 144.415 246.226 144.253 247.053 144.727C248.292 145.439 249.052 146.789 249.411 148.172C250.564 152.609 248.112 157.2 245.096 160.651C243.781 162.156 242.315 163.594 241.51 165.424C240.704 167.254 240.74 169.64 242.206 170.999C245.871 174.396 247.095 179.756 246.89 184.75C246.686 189.744 245.262 194.598 244.464 199.532C243.579 205.008 243.469 210.609 244.137 216.116C244.343 217.817 244.641 219.557 245.529 221.022C246.417 222.487 248.024 223.632 249.732 223.506C249.127 224.371 247.669 224.431 246.995 223.618C247.659 224.309 248.322 224.999 248.986 225.689C248.183 225.521 247.38 225.352 246.577 225.184C253.291 229.001 260.244 232.398 267.381 235.348C266.964 233.945 265.493 233.182 264.163 232.574C260.448 230.875 256.732 229.175 253.016 227.476C258.598 227.982 263.988 230.407 268.071 234.248C272.989 238.875 280.949 238.616 286.281 242.757C287.425 243.646 288.454 244.779 288.838 246.175C289.377 248.137 288.514 250.283 287.093 251.738C285.672 253.194 283.77 254.073 281.868 254.794C276.184 256.947 270.073 257.963 263.998 257.764C263.483 256.858 263.998 255.652 264.837 255.033C265.676 254.414 266.744 254.225 267.763 254.006C272.097 253.073 276.247 251.293 279.91 248.794C280.732 248.232 281.626 247.224 281.097 246.38C280.901 246.066 280.553 245.887 280.219 245.728C274.468 242.982 268.043 241.662 261.676 241.918C263.555 241.578 265.435 241.238 267.315 240.899C262.347 237.935 257.124 235.398 251.723 233.326C250.044 232.682 248 232.128 246.572 233.222C243.089 235.894 239.605 238.565 236.122 241.237C240.613 241.316 245.084 242.421 249.096 244.443C248.178 246.45 246.115 247.881 243.915 248.038C244.956 246.97 245.997 245.903 247.038 244.835C239.623 240.238 229.046 245.042 221.62 240.462C218.308 238.419 216.112 234.738 212.522 233.238C209.096 231.807 205.194 232.679 201.591 233.57C199.227 234.155 196.744 234.804 195 236.503C195.048 234.793 196.673 233.556 198.27 232.947C199.868 232.338 201.642 232.057 202.986 231.001C204.35 229.929 205.047 228.236 206.123 226.876C207.199 225.515 209.106 224.442 210.625 225.278C210.157 221.665 213.226 218.718 215.307 215.728C217.677 212.323 218.943 208.162 218.873 204.013C216.233 205.417 215.045 209.034 216.341 211.73C216.916 212.927 215.77 214.437 214.446 214.532C213.121 214.626 211.906 213.651 211.307 212.466C210.709 211.28 210.6 209.916 210.51 208.591C210.384 206.718 210.279 204.807 210.761 202.993C211.674 199.557 214.54 197.001 217.514 195.054C220.488 193.106 223.754 191.513 226.247 188.979C228.997 186.183 230.627 182.314 230.706 178.393C231.854 183.618 229.267 140.254 227.691 140.61ZM215.595 212.513C215.622 211.432 215.287 210.345 214.655 209.469C214.435 210.554 214.801 211.74 215.595 212.513Z" fill="white"/>
<path fill-rule="evenodd" clip-rule="evenodd" d="M178.36 210.808C176.193 212.33 173.951 213.935 172.69 216.259C171.43 218.583 171.488 221.847 173.545 223.514C178.579 227.593 176.969 235.715 179.974 241.445C181.623 244.59 184.797 247.569 183.907 251.005C183.209 253.697 180.313 255.103 177.734 256.163C176.522 256.66 175.241 257.168 173.942 256.999C172.643 256.83 171.369 255.713 171.53 254.418C171.816 252.1 175.888 251.68 175.961 249.346C175.982 248.691 175.646 248.083 175.32 247.513C173.116 243.662 170.912 239.811 168.708 235.96C166.129 241.342 165.094 247.448 165.755 253.375C165.962 255.235 164.571 256.978 162.878 257.79C161.186 258.603 159.248 258.69 157.371 258.762C155.833 258.82 154.196 258.856 152.876 258.068C151.556 257.281 150.815 255.339 151.809 254.169C152.704 253.115 154.344 253.257 155.648 252.794C159.113 251.566 159.262 246.804 158.769 243.173C157.817 236.157 156.865 229.141 155.914 222.125C155.432 218.572 154.893 214.869 152.836 211.927C145.76 201.81 155.017 186.382 148.327 176.008C146.273 172.823 144.208 169.517 143.52 165.794C142.832 162.071 143.829 157.79 146.916 155.583C149.233 153.927 149.511 150.68 149.828 147.856C150.409 142.685 151.828 137.608 154.012 132.882C149.03 129.261 142.99 127.102 136.833 126.741C137.023 127.862 137.429 128.947 138.023 129.919C134.479 128.592 131.748 125.307 131.099 121.591C130.531 122.904 129.964 124.218 129.397 125.531C124.518 115.59 128.029 103.78 131.601 93.3014C132.641 90.2503 133.681 87.1993 134.721 84.1483C135.972 80.4774 137.761 76.2864 141.532 75.3288C143.853 74.7394 146.981 76.9675 145.756 79.0181C142.713 78.2559 144.363 81.3184 145.51 80.0225C148.11 77.0833 150.23 73.5905 153.343 71.1808C159.277 66.5865 168.107 66.8791 174.549 70.7348C180.992 74.5904 185.213 81.4284 187.302 88.621C187.604 89.662 187.86 90.812 187.412 91.7996C186.964 92.7871 185.498 93.3395 184.757 92.5462C183.725 91.4409 182.291 93.5303 182.359 95.0386C182.707 102.769 187.638 109.47 189.933 116.862C192.17 124.072 191.852 131.789 191.512 139.328C191.04 149.812 189.732 178.818 189.308 182.817C188.508 190.351 186.844 197.827 186.946 205.403C187.077 215.137 190.112 224.579 193.312 233.777C194.644 237.605 196.064 241.517 198.713 244.59C201.362 247.663 205.542 249.76 209.5 248.831C206.692 251.637 201.898 251.539 198.412 249.63C194.927 247.721 192.474 244.406 190.244 241.125C188.822 239.031 184.955 243.197 183.275 241.302C185.341 240.87 187.295 239.915 188.904 238.552C185.389 229.304 181.875 220.056 178.36 210.808ZM160.311 100.807C159.952 100.443 159.39 100.083 158.972 100.377C159.433 100.843 159.296 101.741 158.717 102.049C158.028 101.798 158.273 100.78 158.08 100.074C157.832 99.1669 156.78 98.7725 155.861 98.5581C151.143 97.458 145.657 97.2705 142.522 93.5893C142.23 93.2467 141.955 92.87 141.559 92.6543C140.75 92.2135 139.684 92.6218 139.11 93.3404C138.536 94.0589 138.343 95.0015 138.209 95.9102C137.531 100.512 137.925 105.267 139.353 109.695C139.611 110.494 139.915 111.306 140.49 111.92C142.059 113.599 144.773 113.128 147.043 112.742C149.156 112.384 151.301 112.217 153.444 112.244C154.437 112.257 155.416 112.031 156.383 111.806C158.939 111.213 161.496 110.619 164.052 110.026C164.084 106.624 162.707 103.231 160.311 100.807Z" fill="white"/>
<path fill-rule="evenodd" clip-rule="evenodd" d="M254.398 300.316L260.481 301.216C261.594 301.381 262.824 301.611 263.5 302.495C263.189 302.767 262.716 302.724 262.303 302.665C259.95 302.328 257.596 301.99 255.243 301.653L258.043 304.87C258.525 305.424 259.045 306.003 259.752 306.223C260.372 306.417 261.261 306.477 261.335 307.112C260.483 307.47 259.47 307.249 258.684 306.766C257.898 306.283 257.293 305.569 256.702 304.867C255.752 303.739 254.802 302.611 253.852 301.484C253.604 301.189 253.352 300.752 253.606 300.461C253.789 300.252 254.12 300.275 254.398 300.316ZM286.974 275.289C287.161 276.1 286.322 276.727 285.632 277.165C280.096 280.677 277.359 287.309 274.953 293.521C274.767 294.001 274.719 294.755 275.216 294.833C276.18 293.017 278.072 291.759 280.078 291.598C278.555 292.659 277.946 294.678 277.85 296.566C277.755 298.455 278.064 300.352 277.891 302.235C276.945 302.143 276.701 300.852 276.712 299.875C276.735 297.941 276.758 296.007 276.781 294.074C273.284 296.227 272.444 300.963 271.951 305.122C271.757 305.417 271.263 305.29 271.092 304.98C270.92 304.669 270.971 304.285 271.031 303.933C272.462 295.469 275.716 287.335 280.493 280.286C275.878 282.759 271.939 286.548 269.232 291.118C268.539 289.826 269.527 288.284 270.506 287.205C275.115 282.12 280.762 278.034 286.974 275.289ZM244.041 270.789C246.479 272.483 248.916 274.178 251.354 275.872C255.219 278.559 259.124 281.281 262.258 284.793C262.042 281.584 262.848 278.314 264.531 275.573C264.73 275.248 265.08 274.885 265.427 275.042C265.672 275.154 265.742 275.462 265.782 275.728C266.473 280.335 267.163 284.941 267.854 289.548C265.869 285.859 264.898 281.632 265.071 277.447C263.863 279.388 262.873 281.629 263.179 283.894C263.924 289.423 271.692 292.105 272 297.675C265.229 289.333 258.184 280.805 248.742 275.674C253.138 281.916 258.158 287.721 263.701 292.973C265.266 294.455 267.003 296.195 266.892 298.347C263.204 294.014 256.909 292.094 251.429 293.63C254.578 294.799 257.646 296.184 260.606 297.771C262.343 298.703 264.191 299.888 264.709 301.789C259.712 298.05 253.916 295.381 247.825 294.013C252.436 291.327 258.45 291.228 263.147 293.762C256.052 287.367 250.242 279.701 244.479 272.085C244.192 271.706 243.888 271.239 244.041 270.789ZM214.526 245.293C225.921 247.477 237.122 250.671 247.954 254.823C249.238 255.316 250.557 255.847 251.524 256.823C252.679 257.988 253.184 259.629 253.649 261.201C255.599 267.798 257.55 274.396 259.5 280.994C255.992 274.106 253.484 266.712 252.079 259.113C243.442 262.557 233.816 262.07 224.52 261.799C210.196 261.381 195.854 261.601 181.549 262.459C182.505 262.673 183.46 262.887 184.416 263.1C182.234 263.831 179.877 263.771 177.578 263.69C160.223 263.077 142.896 261.693 125.664 259.544C121.99 259.086 118.129 258.515 115.211 256.24L107.317 279.667C106.866 281.004 105.375 282.622 104.41 281.592C103.277 280.383 101.319 281.642 100.2 282.864C95.9471 287.505 91.6947 292.147 87.4422 296.789C89.9338 292.478 93.0832 288.547 96.7481 285.174C92.6935 285.101 88.6436 286.913 86.0002 289.984C87.0154 283.843 93.3391 279.082 99.5314 279.797C95.402 280.366 91.5134 282.528 88.8535 285.733C93.3419 285.15 97.6661 283.352 101.243 280.584C102.532 279.586 104.543 279.678 105.735 280.788C108.223 273.354 110.71 265.92 113.197 258.486C113.557 257.409 113.858 256.06 113.04 255.272C127.037 250.639 141.743 248.149 156.487 247.917C144.767 249.736 133.048 251.556 121.328 253.375C119.526 253.655 117.353 254.257 116.928 256.028C118.95 256.541 120.972 257.054 123.005 257.518C154.122 264.626 186.547 260.237 218.466 260.621C229.499 260.754 240.812 261.424 251.293 257.981C235.449 250.638 218.261 246.196 200.839 244.941C205.28 243.724 210.002 244.426 214.526 245.293ZM82.843 252.152C87.8698 253.353 92.3891 256.043 96.8192 258.696C100.092 260.656 103.739 263.203 104.058 266.961L104.066 267.093L103.975 266.988C100.463 263.037 96.3104 259.651 91.7263 257.004C94.8765 260.559 98.0266 264.113 101.177 267.668C101.991 268.588 102.838 269.742 103.058 270.887C103.101 270.834 103.169 270.799 103.247 270.805L103.223 270.789C103.453 270.85 103.573 271.108 103.453 271.285C103.329 271.3 103.193 271.271 103.101 271.204C103.144 271.687 103.062 272.165 102.805 272.618C101.707 270.835 100.325 269.225 98.7273 267.867C99.991 270.594 101.255 273.322 102.519 276.049C101.233 275.623 100.101 274.751 99.364 273.62C99.1955 274.559 99.6122 275.579 100.392 276.134C99.105 276.78 97.6495 277.089 96.21 277.022C96.7899 277.442 97.3697 277.862 97.9496 278.282L85.9406 278.789C86.3101 278.142 86.8222 277.577 87.43 277.145C78.0682 276.142 71.2256 268.308 75.4203 271.138C82.2846 275.768 91.0825 277.452 99.1811 275.686C94.6984 274.381 90.4858 272.162 86.8793 269.206C89.4362 268.578 92.2694 269.195 94.3353 270.82L94.4844 270.94L88.9013 263.173C87.04 260.584 85.1787 257.995 83.3175 255.406C88.8477 261.154 94.3779 266.902 99.9082 272.65C96.9835 264.053 90.7837 256.606 82.843 252.152ZM95.2845 277.094L95.2276 277.158C95.0452 277.024 94.8625 277.402 95.0253 277.559C95.227 277.623 95.4617 277.569 95.6148 277.423C95.5047 277.314 95.3946 277.204 95.2845 277.094ZM296.685 251.305C300.924 252.226 305.163 253.147 309.402 254.068C310.702 254.35 312.346 255.108 312.128 256.437C312.039 256.979 311.635 257.406 311.236 257.778C309.79 259.131 308.155 260.275 306.396 261.166L310.817 262.274C311.989 262.568 313.222 262.895 314.082 263.755C314.941 264.615 315.224 266.194 314.342 267.031C315.605 269.221 316.781 271.461 317.867 273.746C318.406 274.88 318.883 276.357 318.047 277.289C316.609 274.024 315.17 270.76 313.732 267.495C311.843 268.654 309.532 269.087 307.36 268.688C307.966 267.854 309.087 267.632 310.103 267.521C311.119 267.409 312.225 267.307 312.969 266.597C313.713 265.887 313.673 264.33 312.687 264.06C309.919 263.302 307.152 262.545 304.385 261.788C306.45 259.886 308.657 258.142 310.98 256.577C311.1 255.962 310.357 255.575 309.76 255.414C303.269 253.66 296.663 252.344 290 251.479C291.999 250.366 294.455 250.821 296.685 251.305ZM82.076 269.294C82.3598 269.34 82.5847 269.565 82.7966 269.773C84.5859 271.529 86.8132 272.765 89.1818 273.317C90.3659 273.592 91.6892 273.76 92.5002 274.726C88.4898 275.151 84.3305 273.379 81.6828 270.117C81.6054 270.021 81.5264 269.919 81.5054 269.794C81.4543 269.491 81.7923 269.249 82.076 269.294ZM90.2597 270.43C92.2926 272.036 94.6748 273.201 97.1938 273.822C95.1848 272.181 92.7914 271.01 90.2597 270.43ZM94.8766 269.231C95.6286 271.144 97.2133 272.715 99.1372 273.456C97.9714 271.821 96.5237 270.385 94.8766 269.231ZM133.686 162.161C130.869 163.533 128.29 165.386 126.095 167.617C121.161 172.634 114.795 176.238 107.942 177.893L125.29 168.075C125.015 166.169 122.146 166.452 120.421 167.322C117.43 168.83 114.517 170.51 111.838 172.516C110.248 173.707 108.743 175.01 107.338 176.413C101.844 181.9 97.977 188.818 95.0621 196.003C90.8733 206.329 88.5143 217.544 89.5192 228.636C90.5241 239.727 95.0838 250.682 103.184 258.359C103.468 257.485 103.751 256.611 104.035 255.738C105.283 256.358 106.762 256.503 108.107 256.136C106.494 255.201 104.796 254.18 103.943 252.526C103.089 250.872 103.542 248.413 105.303 247.794C103.586 246.26 102.406 244.141 102.009 241.877C103.946 241.522 105.883 241.166 107.82 240.81C105.921 236.467 106.301 231.207 108.805 227.179C109.197 226.548 109.831 225.868 110.554 226.05C111.709 226.34 112.047 228.574 113.149 228.124L117.455 222.033L121.625 216.135L121.556 216.236C119.909 218.73 119.844 222.189 121.432 224.728C123.645 222.394 126.654 220.823 129.84 220.339C130.102 221.787 130.363 223.235 130.625 224.683C131.798 223.712 133.059 222.701 134.572 222.506C136.085 222.311 137.858 223.326 137.865 224.846C137.871 226.097 136.773 227.487 137.576 228.448C138.736 227.702 139.984 226.928 141.365 226.933C142.746 226.937 144.211 228.095 143.985 229.452C143.64 231.523 143.296 233.593 142.951 235.664C145.293 234.9 148.485 234.441 149.663 236.597C150.51 238.148 149.628 240.085 148.481 241.431C147.333 242.776 145.869 243.958 145.32 245.638C144.559 244.074 145.991 242.393 147.197 241.138C148.403 239.882 149.486 237.788 148.231 236.58C146.558 234.969 143.676 237.585 141.532 236.684C141.999 233.898 142.467 231.112 142.934 228.326C140.507 228.317 138.082 229.023 136.042 230.332C135.851 228.13 135.985 225.901 136.439 223.739C134.067 224.236 131.734 224.921 129.471 225.787C128.945 224.39 128.727 222.88 128.834 221.392L120.944 225.989C120.738 225.21 120.202 224.524 119.495 224.133C120.212 228.278 120.93 232.423 121.647 236.568C119.404 232.477 118.359 227.745 118.671 223.095C116.215 224.664 114.448 227.263 113.896 230.116C112.335 229.76 110.957 228.677 110.246 227.247C107.375 231.272 106.999 236.921 109.312 241.288C107.438 242.103 105.451 242.66 103.425 242.936L107.026 248.628C106.086 248.751 105.19 249.188 104.516 249.852C105.199 252.935 107.758 255.525 110.842 256.253C109.397 257.155 107.673 257.605 105.97 257.524C108.086 258.135 110.079 259.168 111.797 260.542C109.357 260.155 106.995 259.289 104.884 258.01C105.941 260.241 107.866 262.048 110.164 262.967C108.793 263.022 107.409 262.699 106.205 262.044C107.517 263.782 108.18 265.994 108.038 268.164C107.109 266.344 106.18 264.524 105.251 262.704C105.149 264.507 105.048 266.311 104.946 268.115C104.734 267.861 104.519 267.61 104.302 267.361L104.085 267.114L104.136 266.995C104.943 264.966 104.326 262.582 103.127 260.743C101.896 258.856 100.125 257.397 98.4837 255.851C91.5039 249.282 86.6145 240.863 81.825 232.573C80.023 229.454 78.221 226.335 76.419 223.215C73.9994 219.027 71.4924 214.269 72.7212 209.595C72.8969 208.926 73.1749 208.24 73.7334 207.83C72.8659 208.812 73.5237 210.376 74.4146 211.337C75.3056 212.297 76.4689 213.183 76.6557 214.478C78.6631 228.389 87.3115 240.32 95.6933 251.626C85.3429 233.983 87.0265 211.268 95.4033 192.615C99.9607 182.467 106.833 172.733 116.936 168.008C119.186 166.956 121.551 166.173 123.91 165.393C127.169 164.316 130.427 163.239 133.686 162.161ZM263.951 260.674C264.233 260.74 264.565 260.868 264.617 261.159C264.661 261.404 264.475 261.626 264.297 261.797C263.383 262.674 262.292 263.357 261.112 263.791C260.74 263.928 260.751 264.525 261.045 264.794C261.34 265.063 261.77 265.093 262.165 265.109C276.777 265.706 291.388 266.304 306 266.901C305.858 267.656 304.879 267.808 304.127 267.787C290.283 267.393 276.443 266.868 262.609 266.214C261.177 266.146 259.236 265.468 259.514 264.032C259.778 262.669 261.712 262.653 262.755 261.76L256.5 260.873C258.915 260.169 261.504 260.1 263.951 260.674ZM179.123 262.632L179.205 262.688C179.601 262.961 180.193 262.898 180.521 262.547C180.102 262.273 179.505 262.309 179.123 262.632ZM174.55 70.7347C180.992 74.5903 185.213 81.4283 187.302 88.6208C187.605 89.6618 187.861 90.8119 187.413 91.7994C186.977 92.7603 185.577 93.3092 184.819 92.6074L184.757 92.5461C183.725 91.4408 182.291 93.5302 182.359 95.0384C182.707 102.769 187.639 109.469 189.933 116.862C192.171 124.072 191.852 131.789 191.512 139.328C191.04 149.812 190.567 160.296 190.095 170.78C189.914 174.797 189.733 178.818 189.308 182.817C188.508 190.351 186.845 197.827 186.946 205.403C187.077 215.137 190.112 224.579 193.312 233.777C194.644 237.605 196.064 241.517 198.713 244.59C201.362 247.663 205.543 249.76 209.5 248.831C206.693 251.637 201.898 251.538 198.413 249.63C194.927 247.721 192.474 244.406 190.245 241.124C188.822 239.031 184.955 243.197 183.275 241.302C185.342 240.869 187.296 239.915 188.904 238.552C185.389 229.304 181.875 220.056 178.36 210.808C176.194 212.33 173.951 213.935 172.691 216.259C171.43 218.583 171.488 221.847 173.545 223.513C178.579 227.593 176.969 235.715 179.974 241.445C181.623 244.59 184.797 247.569 183.907 251.004C183.209 253.697 180.314 255.102 177.734 256.163C176.523 256.66 175.241 257.168 173.942 256.999C172.643 256.83 171.37 255.713 171.53 254.418C171.817 252.1 175.889 251.68 175.961 249.346C175.982 248.69 175.646 248.083 175.32 247.513C173.116 243.662 170.912 239.811 168.708 235.96C166.13 241.342 165.094 247.448 165.755 253.375C165.963 255.235 164.571 256.978 162.879 257.79C161.187 258.603 159.248 258.689 157.371 258.761C155.833 258.82 154.197 258.855 152.876 258.068C151.556 257.28 150.816 255.339 151.81 254.169C152.704 253.115 154.344 253.257 155.649 252.794C159.114 251.566 159.262 246.804 158.769 243.173L155.914 222.124C155.432 218.572 154.893 214.869 152.836 211.927C145.76 201.81 155.018 186.382 148.327 176.007C146.274 172.823 144.208 169.517 143.52 165.794C142.832 162.071 143.83 157.79 146.917 155.583C149.233 153.926 149.512 150.679 149.829 147.856C150.409 142.685 151.828 137.608 154.013 132.882C149.03 129.261 142.99 127.102 136.833 126.741C137.023 127.862 137.43 128.947 138.023 129.919C134.479 128.592 131.748 125.307 131.099 121.591C130.531 122.904 129.964 124.218 129.397 125.531C124.518 115.59 128.029 103.78 131.601 93.3012C132.641 90.2502 133.681 87.1992 134.721 84.1482C135.972 80.4772 137.762 76.2863 141.532 75.3287C143.853 74.7393 146.981 76.9674 145.756 79.018C142.713 78.2558 139.473 79.9041 137.466 82.3072C135.459 84.7103 134.431 87.7549 133.444 90.7228C130.136 100.678 126.793 111.285 129.295 121.472C129.676 120.763 130.403 120.249 131.2 120.124C132.022 122.431 133.286 124.581 134.902 126.424C138.319 125.171 142.089 124.891 145.655 125.625C145.384 125.959 145.112 126.293 144.84 126.626C147.673 128.552 150.954 129.82 154.35 130.3C156.176 127.212 158.001 124.124 159.827 121.035L160.163 120.465C161.788 117.704 163.37 114.852 163.878 111.701C158.327 113.088 152.644 113.953 146.93 114.279C144.44 114.421 141.669 114.365 139.834 112.681C138.719 111.658 138.141 110.187 137.715 108.737C136.178 103.501 136.2 97.8194 137.78 92.5951C135.534 92.4614 134.902 89.1355 136.205 87.3083C137.508 85.481 139.775 84.6642 141.664 83.4469C146.433 80.3735 148.858 74.6528 153.343 71.1807C159.278 66.5864 168.107 66.879 174.55 70.7347ZM233.016 138.289C237.955 140.848 242.386 144.382 245.98 148.628C246.165 150.918 246.528 153.194 247.065 155.428C247.802 153.282 248.548 151 248.057 148.785C247.566 146.569 245.316 144.581 243.145 145.238C244.048 144.13 245.814 144.015 247.053 144.727C248.293 145.439 249.052 146.789 249.412 148.172C250.564 152.609 248.113 157.199 245.097 160.651C243.781 162.156 242.315 163.594 241.51 165.424C240.704 167.254 240.74 169.64 242.206 170.999C245.872 174.396 247.095 179.755 246.89 184.75C246.686 189.744 245.262 194.598 244.465 199.532C243.58 205.008 243.469 210.609 244.137 216.116C244.344 217.817 244.641 219.557 245.529 221.022C246.417 222.487 248.024 223.632 249.732 223.506C249.184 224.29 247.935 224.413 247.204 223.824L247.139 223.768L247.991 224.654C248.323 224.999 248.655 225.344 248.987 225.689C248.183 225.521 247.38 225.352 246.577 225.184C253.291 229.001 260.244 232.398 267.381 235.348C266.964 233.945 265.494 233.182 264.163 232.574C260.448 230.874 256.732 229.175 253.017 227.476C258.598 227.982 263.988 230.407 268.071 234.248C272.989 238.875 280.949 238.616 286.282 242.757C287.425 243.645 288.454 244.779 288.838 246.175C289.377 248.137 288.514 250.282 287.093 251.738C285.672 253.194 283.77 254.073 281.868 254.794C276.184 256.947 270.073 257.963 263.999 257.764C263.483 256.858 263.998 255.651 264.837 255.033C265.676 254.414 266.744 254.225 267.763 254.005C272.097 253.073 276.247 251.293 279.91 248.794C280.733 248.232 281.626 247.224 281.098 246.379C280.902 246.066 280.553 245.887 280.219 245.728C274.468 242.982 268.043 241.662 261.676 241.918L267.315 240.899C262.347 237.935 257.124 235.398 251.723 233.326C250.044 232.682 248 232.127 246.573 233.222C243.089 235.894 239.605 238.565 236.122 241.237C240.614 241.316 245.084 242.421 249.096 244.443C248.178 246.45 246.115 247.881 243.915 248.038C244.956 246.97 245.997 245.903 247.038 244.835C239.623 240.237 229.047 245.042 221.621 240.462C218.308 238.419 216.113 234.738 212.522 233.238C209.097 231.807 205.195 232.679 201.591 233.57C199.227 234.155 196.744 234.803 195 236.503C195.049 234.793 196.673 233.556 198.271 232.947C199.868 232.338 201.642 232.057 202.986 231C204.351 229.929 205.048 228.236 206.123 226.876C207.199 225.515 209.106 224.442 210.626 225.278C210.157 221.665 213.227 218.718 215.307 215.728C217.677 212.323 218.944 208.162 218.873 204.013C216.233 205.416 215.046 209.034 216.341 211.73C216.916 212.927 215.771 214.437 214.446 214.532C213.122 214.626 211.906 213.651 211.308 212.466C210.709 211.28 210.6 209.916 210.51 208.591C210.384 206.718 210.279 204.807 210.761 202.993C211.674 199.557 214.54 197.001 217.514 195.054C220.488 193.106 223.754 191.513 226.247 188.979C228.998 186.183 230.627 182.314 230.707 178.392C231.854 183.618 229.148 189.448 224.417 191.944C220.234 194.151 215.981 196.653 213.361 200.592C210.741 204.53 210.276 210.296 213.529 213.73C212.996 210.94 213.742 207.93 215.516 205.712C216.953 203.917 218.962 202.685 220.948 201.524C225.552 198.834 230.265 196.329 235.07 194.018C234.744 192.778 235.771 191.371 237.051 191.304C235.605 189.001 236.977 185.474 239.599 184.754C238.826 185.741 238.03 186.776 237.774 188.003C237.517 189.23 237.979 190.705 239.133 191.196C236.862 191.211 236.47 194.83 234.385 195.729C230.092 197.58 225.932 199.74 221.948 202.187C221.654 202.368 221.351 202.568 221.067 202.789C221.121 202.789 221.179 202.804 221.239 202.838C221.543 204.921 221.582 207.042 221.355 209.135C221.323 209.427 221.194 209.802 220.898 209.788C220.598 209.774 220.51 209.377 220.509 209.078L220.5 203.771C220.5 203.572 220.554 203.338 220.646 203.148C220.093 203.671 219.694 204.295 219.728 205.038C219.903 208.948 218.76 212.906 216.527 216.12C218.993 213.973 221.459 211.826 223.925 209.678C224.718 208.988 226.416 208.659 226.395 209.71C222.618 212.222 218.781 214.789 215.92 218.309C213.059 221.828 211.272 226.512 212.266 230.938C211.162 230.525 211.065 229.05 210.804 227.9C210.543 226.75 209.143 225.548 208.358 226.428C206.498 228.511 204.638 230.595 202.778 232.678C206.895 230.129 212.724 230.794 216.162 234.205C220.717 238.725 226.927 243.027 233.081 241.211C238.641 239.57 241.892 233.491 247.327 231.473C242.359 219.448 241.31 205.839 244.377 193.194C245.237 189.646 246.422 186.061 246.036 182.431C245.437 176.805 241.211 172.212 239.804 166.732C239.203 168.318 237.647 169.497 235.958 169.647C237.892 167.168 239.827 164.689 241.761 162.211C244.721 158.418 245.386 152.959 243.403 148.575C241.419 144.191 236.866 141.085 232.061 140.86C232.667 141.447 233.273 142.034 233.878 142.62C232.774 143.004 231.671 143.388 230.567 143.772C230.359 143.029 230.152 142.285 229.945 141.541C230.77 140.874 231.595 140.207 232.421 139.54C230.844 139.897 229.268 140.254 227.691 140.61C229.048 139.151 231.025 138.289 233.016 138.289ZM151.32 75.7094C146.688 79.0329 142.883 83.3514 139.123 87.6301C138.178 88.7399 139.959 90.1209 141.381 90.453C147.765 91.9445 154.396 92.383 160.922 91.7455C159.179 94.2088 155.626 94.5072 152.634 94.0589C149.642 93.6106 146.569 92.6604 143.659 93.4877C149.608 96.0776 155.974 97.7126 162.438 98.3107L160.258 99.5866C164.64 101.944 165.987 107.806 164.904 112.649C163.821 117.493 160.906 121.688 158.558 126.064C154.337 133.928 151.844 142.707 151.304 151.608C157.294 149.436 159.338 142.095 159.9 135.769C160.463 129.443 160.719 122.325 165.404 118.018C161.843 126.041 160.568 135.057 161.764 143.748C156.773 148.28 151.782 152.813 146.791 157.345C143.135 160.664 144.956 166.629 147.032 171.102C147.284 171.646 147.565 172.222 148.083 172.528C149.366 173.286 150.937 171.758 151.071 170.279C151.205 168.799 150.562 167.346 150.587 165.86C150.613 164.374 151.871 162.677 153.288 163.139C151.751 161.784 153.619 159.376 155.417 158.389C160.192 155.768 165.585 154.271 171.033 154.055C172.675 153.99 173.411 152.037 173.934 150.484C174.456 148.931 175.873 147.139 177.367 147.824C174.665 138.36 180.132 128.509 180.002 118.67C183.318 127.955 174.628 138.798 178.972 147.651C177.281 148.731 175.591 149.811 173.9 150.891C175.318 151.467 176.525 152.543 177.257 153.883C168.979 154.663 160.849 156.986 153.414 160.696C154.971 161.715 154.466 164.594 152.654 165.025C149.967 176.258 151.216 188.385 156.136 198.839C156.953 194.448 160.025 190.534 164.106 188.687C159.866 192.039 157.375 197.221 156.369 202.519C155.363 207.818 155.712 213.275 156.297 218.636C156.933 224.46 157.843 230.256 159.024 235.996C159.828 239.905 160.759 243.937 159.927 247.84C159.094 251.744 155.901 255.48 151.896 255.476C154.558 257.034 157.758 257.657 160.812 257.212C163.699 256.79 164.937 253.231 164.735 250.331C164.532 247.432 163.519 244.467 164.376 241.688C164.803 240.306 165.665 239.097 166.188 237.747C167.126 235.327 166.92 232.644 166.967 230.05C167.073 224.224 168.554 218.428 171.256 213.261C171.724 214.179 171.555 215.381 170.851 216.136C182.275 206.925 189.1 192.307 188.81 177.668L187.84 179.224C188.71 164.172 189.581 149.12 190.452 134.068C190.667 130.345 190.881 126.585 190.268 122.907C188.526 112.458 180.253 103.209 181.473 92.6867C179.033 91.8595 176.593 91.0324 174.152 90.2052C177.506 90.4713 180.859 90.7374 184.212 91.0035C184.761 91.047 185.389 91.062 185.77 90.6654C186.159 90.2589 186.102 89.6118 185.982 89.0626C184.475 82.1438 177.743 77.8267 171.595 74.2761C174.987 74.7854 178.18 76.5175 180.451 79.0792C178.378 73.9415 172.802 70.7525 167.254 70.4296C161.556 70.0978 155.952 72.386 151.32 75.7094ZM275.522 252.608C273.018 254.633 269.588 254.91 266.417 255.467C265.872 255.563 265.216 255.779 265.127 256.325C265.705 256.683 266.432 256.67 267.111 256.63C272.681 256.309 278.196 255.05 283.354 252.921C283.064 252.255 282.105 252.34 281.406 252.538C280.883 252.686 280.359 252.834 279.836 252.982C279.24 253.151 278.588 253.318 278.017 253.077C277.446 252.836 277.12 251.989 277.587 251.582C276.801 251.475 276.139 252.109 275.522 252.608ZM169.934 220.903C168.9 224.404 168.433 228.127 169.072 231.72C170.006 236.976 173.182 241.511 176.026 246.034C176.899 247.423 177.782 249.004 177.451 250.609C177.093 252.348 175.452 253.479 173.945 254.425C176.445 255.632 179.289 253.809 181.459 252.081C181.788 251.819 182.14 251.519 182.212 251.106C182.278 250.726 182.089 250.354 181.905 250.015C179.814 246.141 177.722 242.268 175.631 238.394L175.583 235.67C175.556 234.087 175.526 232.486 175.138 230.95C174.213 227.283 171.378 224.4 169.934 220.903ZM112.728 252.47C112.907 252.633 113.001 252.876 113.186 253.031C113.47 253.27 113.878 253.241 114.243 253.289C114.608 253.338 115.03 253.579 114.999 253.952C113.962 254.519 112.587 254.357 111.704 253.565C111.436 253.289 111.432 252.794 111.694 252.513C111.957 252.232 112.444 252.212 112.728 252.47ZM262.504 250.295C262.741 250.334 263.047 250.472 262.994 250.708C262.968 250.825 262.856 250.899 262.753 250.96C261.523 251.675 260.128 252.101 258.709 252.193C258.195 252.226 257.758 252.555 257.363 252.894L257.273 252.972C256.854 253.337 256.401 253.724 255.849 253.783C255.298 253.843 254.664 253.388 254.77 252.841C254.863 252.358 255.416 252.141 255.889 252.008C256.743 251.766 257.598 251.525 258.453 251.283C258.568 251.132 258.609 250.928 258.564 250.744L252.409 250.834C252.175 250.838 251.926 250.837 251.727 250.713C251.528 250.588 251.42 250.29 251.572 250.111C255.198 249.626 258.896 249.688 262.504 250.295ZM247.634 227.723C246.988 228.614 247.381 229.944 248.196 230.683C249.011 231.422 250.123 231.717 251.189 231.988C252.202 232.245 253.214 232.503 254.227 232.76C254.502 232.83 254.818 232.893 255.048 232.726C255.188 232.625 255.215 232.407 255.15 232.26L255.14 232.241L255.694 232.563C263.946 237.328 272.643 241.323 281.635 244.477C283.045 244.972 283.365 246.982 282.62 248.278C281.875 249.573 280.46 250.307 279.116 250.961C278.586 251.218 278.137 252.144 278.725 252.189C280.416 251.372 282.367 251.103 284.216 251.434C285.905 251.735 287.557 250.23 287.798 248.531C288.04 246.832 287.142 245.128 285.865 243.982C284.589 242.835 282.973 242.15 281.377 241.52C271.47 237.607 260.929 234.949 251.984 229.164C250.904 228.466 249.285 227.799 248.52 228.833L247.634 227.723ZM193.704 243.96C195.649 246.559 198.423 248.533 201.522 249.523C202.467 249.825 203.478 250.038 204.448 249.831C204.43 249.358 203.826 249.188 203.358 249.107C201.593 248.8 199.939 247.89 198.739 246.564C198.137 245.898 197.638 245.124 196.916 244.589C196.011 243.918 194.798 243.693 193.704 243.96ZM129.304 240.293C130.183 240.342 129.664 242.021 130.409 242.493C130.706 242.681 131.09 242.592 131.436 242.53C133.487 242.161 135.715 243.103 136.881 244.835C137.174 245.269 136.889 245.905 136.431 246.157C135.972 246.409 135.415 246.379 134.896 246.319C134.085 246.224 133.52 247.097 133.239 247.866C132.958 248.635 132.628 249.549 131.836 249.752C131.23 249.907 130.612 249.552 130.136 249.145C129.66 248.737 129.219 248.248 128.625 248.051C128.03 247.854 127.223 248.117 127.122 248.736C127.013 249.407 126.094 249.497 125.421 249.415L123.015 249.124C122.87 248.46 123.812 248.125 124.484 248.213C125.156 248.302 126.014 248.437 126.358 247.851C126.536 247.548 126.492 247.14 126.712 246.865C127.075 246.412 127.796 246.657 128.304 246.937C128.848 247.237 129.391 247.537 129.935 247.836C130.433 248.111 130.971 248.394 131.537 248.337C132.102 248.28 132.648 247.713 132.459 247.176C132.218 246.489 132.946 245.829 133.651 245.654C134.356 245.479 135.136 245.541 135.761 245.171C134.53 243.599 132.087 243.149 130.379 244.179C129.865 244.488 129.388 243.689 129.392 243.089C129.396 242.488 129.367 241.677 128.78 241.559C128.333 241.469 127.976 241.898 127.654 242.223C127.333 242.547 126.722 242.77 126.481 242.382C126.786 241.147 128.037 240.221 129.304 240.293ZM149.722 244.004C150.56 244.315 151.469 244.687 151.87 245.457C152.271 246.226 151.695 247.428 150.811 247.275C150.671 247.084 150.665 246.812 150.796 246.615C150.904 246.453 151.1 246.325 151.105 246.133C151.111 245.937 150.915 245.798 150.74 245.696C149.827 245.159 148.913 244.623 148 244.086C148.381 243.619 149.146 243.79 149.722 244.004ZM181.095 245.911L181.1 246.084C181.114 246.413 181.331 246.724 181.635 246.852C181.853 246.474 181.533 245.916 181.095 245.911ZM118.5 243.388C117.778 244.143 116.807 244.606 115.81 244.671C116.078 244.982 116.297 245.344 116.456 245.735C115.785 245.989 115.154 245.29 114.728 244.668C114.563 244.427 114.398 244.079 114.579 243.851C114.65 243.762 114.759 243.72 114.863 243.685C116.035 243.291 117.288 243.188 118.5 243.388ZM185.74 199.65C183.918 202.967 181.763 206.103 179.318 208.995C178.867 209.527 179.171 210.331 179.48 210.956C184.277 220.654 186.487 231.481 191.494 241.073C191.925 241.899 192.459 242.785 193.35 243.066C194.242 243.346 195.43 242.51 195.082 241.646C189.67 228.227 184.843 214.084 185.74 199.65ZM118.298 232.857C118.531 233.02 118.53 233.377 118.513 233.674C118.407 235.57 118.762 237.492 119.534 239.203C119.794 239.778 120.634 239.593 121.076 239.162C121.518 238.731 121.882 238.117 122.472 238.01C123.097 237.898 123.69 238.457 123.886 239.099C124.083 239.741 123.985 240.438 123.885 241.106C123.825 241.512 123.738 241.963 123.422 242.198C123.105 242.433 122.526 242.183 122.615 241.783L122.968 240.205C123.014 240 123.058 239.776 122.973 239.587C122.827 239.264 122.388 239.233 122.087 239.392C121.786 239.55 121.562 239.836 121.278 240.028C120.372 240.645 119.094 240.112 118.46 239.187C117.826 238.261 117.669 237.071 117.532 235.935C116.974 237.837 116.793 239.864 117.003 241.844C116.721 242.137 116.324 241.63 116.239 241.221C115.69 238.587 116.098 235.741 117.359 233.402C117.559 233.032 117.962 232.624 118.298 232.857ZM135 237.272C133.667 237.808 132.548 238.844 131.925 240.121C131.786 240.404 131.297 240.302 131.168 240.014C131.038 239.726 131.157 239.391 131.305 239.112C131.688 238.385 132.27 237.761 132.974 237.324C132.149 237.262 131.325 237.201 130.5 237.14C131.678 235.952 133.896 236.017 135 237.272ZM124.662 235.299C125.262 235.389 125.72 235.857 126.101 236.318C125.718 236.355 125.351 236.523 125.078 236.786C125.552 237.283 126.026 237.78 126.5 238.276C125.203 238.404 123.877 237.523 123.524 236.299C123.36 235.729 124.062 235.209 124.662 235.299ZM265.481 187.306C269.487 199.709 271.665 212.684 271.926 225.698C274.442 223.477 277.7 222.087 281.065 221.8C279.297 222.421 278.163 224.143 277.535 225.887C276.907 227.63 276.65 229.495 275.929 231.204C281.447 229.514 287.487 229.521 293 231.224C288.273 232.573 283.809 234.814 279.921 237.789C279.245 237.413 279.834 236.401 280.456 235.943C282.965 234.092 285.751 232.608 288.696 231.552C284.012 230.631 279.079 230.966 274.567 232.512C275.395 229.71 276.103 226.873 276.688 224.012C273.461 225.513 270.511 227.594 268.03 230.122C267.385 229.544 268.322 228.64 268.987 228.085C270.775 226.595 270.85 223.946 270.732 221.64C270.275 212.714 269.084 203.775 266.352 195.253C266.608 204.859 264.635 214.516 260.627 223.275C260.441 223.682 259.803 224.088 259.662 223.664C259.787 223.179 259.911 222.694 260.036 222.209C258.861 220.715 258.305 218.762 258.519 216.884C256.421 219.364 254.597 222.07 253.09 224.938C252.426 225.11 252.367 223.996 252.693 223.4C254.468 220.148 256.713 217.146 259.34 214.512C259.626 216.813 259.912 219.114 260.198 221.415C264.82 210.912 266.398 199.127 264.701 187.801C264.76 187.464 265.145 187.22 265.481 187.306ZM132.268 232.4C132.54 232.562 132.599 233.018 132.304 233.138C131.825 233.333 131.903 233.98 132.019 234.457C132.135 234.934 132.046 235.625 131.525 235.654C131.073 235.678 130.845 235.146 130.82 234.721C130.795 234.296 130.782 233.78 130.385 233.575C129.138 234.313 127.89 235.051 126.642 235.789C126.282 235.389 126.674 234.791 127.084 234.437C128.275 233.412 129.754 232.685 131.329 232.35C131.643 232.283 131.997 232.237 132.268 232.4ZM244.472 230.412C244.581 230.595 244.344 230.935 244.27 230.719L244.268 230.698C244.14 230.693 244.021 230.544 244 230.363C244.159 230.282 244.362 230.229 244.472 230.412ZM74.0947 212.998C74.0078 214.359 74.01 215.727 74.101 217.089C74.186 218.361 74.4238 219.767 75.4339 220.55C75.7552 220.799 76.3275 220.904 76.487 220.531C76.526 220.44 76.5282 220.338 76.5289 220.239C76.5448 218.107 76.1403 215.972 75.345 213.991C75.1252 213.444 74.6534 212.803 74.0947 212.998ZM151.864 190.781L151.163 196.618C150.941 198.465 150.719 200.326 150.859 202.181C151.043 204.629 151.851 206.983 152.676 209.296C153.194 210.75 153.766 212.268 154.936 213.278C154.25 209.478 154.416 205.528 155.418 201.798C155.507 201.469 155.603 201.135 155.597 200.793C155.588 200.267 155.34 199.779 155.111 199.305C153.742 196.478 152.834 193.431 152.433 190.319C152.258 190.049 151.903 190.462 151.864 190.781ZM214.655 209.469C214.435 210.554 214.801 211.74 215.595 212.513C215.623 211.432 215.287 210.345 214.655 209.469ZM230.5 134.421C229.681 138.025 225.704 139.581 222.58 141.408C220.358 142.706 218.356 144.401 216.688 146.394C216.291 146.868 215.563 146.511 214.998 146.284C213.232 145.574 211.091 146.701 210.288 148.471C209.486 150.242 209.863 152.413 210.901 154.048C211.94 155.683 213.553 156.847 215.248 157.723C215.78 157.466 215.617 156.584 215.153 156.212C214.689 155.839 214.067 155.744 213.574 155.414C213.115 155.106 212.801 154.62 212.527 154.132C211.708 152.674 211.121 150.88 211.753 149.326C212.385 147.773 214.722 147.038 215.689 148.395C217.161 150.462 213.827 153.69 215.352 155.716C215.206 154.722 215.767 153.664 216.656 153.251C216.597 155.109 216.539 156.967 216.48 158.825C216.925 158.353 217.544 158.058 218.183 158.015C218.246 159.721 218.44 161.421 218.763 163.094C219.152 162.841 219.333 162.295 219.176 161.85L230.219 171.974C227.814 170.852 225.569 169.366 223.577 167.58C225.565 171.347 223.626 175.901 222.443 180.012C221.442 183.492 221.007 187.145 221.162 190.772C220.45 190.012 219.212 190.573 218.395 191.212C215.77 193.265 213.542 195.856 211.88 198.789C211.677 198.436 211.695 197.995 211.769 197.592C212.238 195.036 214.497 193.324 216.49 191.728C218.483 190.131 220.545 187.986 220.338 185.393C220.058 181.891 221.672 178.569 222.658 175.205C223.643 171.84 223.818 167.695 221.306 165.317C220.436 164.493 219.327 163.977 218.45 163.16C217.573 162.343 216.943 161.018 217.442 159.913C217.017 160.168 216.592 160.422 216.168 160.677C216.049 158.969 214.109 158.209 212.649 157.391C210.145 155.988 208.314 153.153 208.515 150.224C208.716 147.294 211.271 144.596 214.117 144.761C215.339 144.832 216.908 145.219 217.515 144.124C219.757 140.079 225.572 139.613 228.212 135.833C228.788 135.009 229.652 133.905 230.5 134.421ZM148.541 174.487L148.473 174.628C148.689 174.679 148.905 174.73 149.121 174.781C149.404 174.48 149.341 173.885 148.948 173.757C148.555 173.628 148.18 174.284 148.541 174.487ZM221.107 159.789C221.149 160.4 221.345 161.001 221.674 161.528C221.672 161.15 222.305 161.049 222.579 161.324C222.853 161.598 222.855 162.019 222.839 162.397C224.109 162.264 225.014 163.459 225.965 164.266C228.182 166.145 231.489 166.147 234.461 165.987C235.281 165.942 236.374 166.086 236.5 166.855C235.105 167.327 233.584 167.326 232.103 167.253C229.788 167.138 227.442 166.85 225.33 165.946C223.218 165.042 221.35 163.447 220.611 161.368C220.399 160.774 220.453 159.892 221.107 159.789ZM222.763 157.289C223.604 159.509 226.65 160.668 228.856 159.607C229.25 159.417 229.625 159.167 230.059 159.089C230.789 158.958 231.498 159.335 232.179 159.62C233.138 160.021 234.21 160.257 235.235 160.055C236.26 159.852 237.216 159.14 237.459 158.167C237.521 157.917 237.544 157.641 237.717 157.445C237.891 157.248 238.296 157.226 238.381 157.47C238.873 158.876 237.778 160.454 236.332 160.989C234.885 161.525 233.243 161.24 231.794 160.712C231.308 160.534 230.808 160.326 230.288 160.363C229.766 160.401 229.303 160.681 228.824 160.886C226.606 161.839 223.724 161.042 222.381 159.104C222.159 158.784 221.971 158.416 222.004 158.034C222.036 157.652 222.363 157.272 222.763 157.289ZM245.582 155.515C245.452 156.141 245.536 156.81 245.817 157.384C246.255 157.181 246.519 156.659 246.423 156.186L246.426 156.184C246.419 155.773 245.983 155.428 245.582 155.515ZM230.085 154.296C230.457 154.348 230.757 154.664 231.02 154.974C231.554 155.603 232.049 156.277 232.5 156.989C231.187 157.358 229.804 157.387 228.48 157.073C228.072 156.977 227.904 156.344 228.055 155.889C228.206 155.434 228.562 155.126 228.901 154.842C229.255 154.546 229.654 154.236 230.085 154.296ZM229.335 156.199L229.461 156.263L230.335 156.066C230.432 155.906 230.469 155.697 230.435 155.505C229.998 155.252 229.395 155.633 229.335 156.199ZM212.937 149.171C212.445 149.677 212.347 150.483 212.508 151.18C212.788 152.402 213.74 153.399 213.903 154.644C214.245 154.548 214.396 154.122 214.373 153.758C214.35 153.394 214.209 153.045 214.194 152.681C214.144 151.462 215.458 150.203 214.77 149.21C214.366 148.628 213.43 148.666 212.937 149.171ZM238.374 144.795C239.771 144.892 240.858 146.111 241.614 147.36C242.224 148.369 242.734 149.597 242.388 150.738C241.923 152.274 240.209 152.868 238.729 153.244L237.171 153.639C236.757 153.744 236.325 153.849 235.91 153.747C235.337 153.606 234.916 153.104 234.535 152.628C233.764 151.664 232.947 150.568 233.003 149.306C233.068 147.836 234.28 146.745 235.438 145.933C236.324 145.314 237.315 144.721 238.374 144.795ZM227.097 146.803C228.429 147.743 229.283 149.397 228.914 150.94C228.544 152.483 226.744 153.669 225.172 153.175C223.731 152.723 222.24 152.226 221.167 151.2C220.095 150.175 219.582 148.46 220.411 147.245C220.875 146.565 221.676 146.15 222.499 145.948C224.062 145.563 225.799 145.886 227.097 146.803ZM238.492 146.518C237.616 146.634 236.72 146.691 235.897 147.028C235.074 147.365 234.315 148.05 234.139 148.966C233.911 150.152 234.687 151.266 235.416 152.198C235.758 152.635 236.384 152.634 236.914 152.555C238.527 152.316 240.089 151.697 241.454 150.758C240.763 150.588 240.072 150.419 239.381 150.25C239.473 149.81 240.046 149.789 240.471 149.806C240.896 149.822 241.477 149.538 241.323 149.117C240.669 148.911 239.982 148.818 239.3 148.844C239.099 148.852 238.864 148.894 238.774 149.084C238.705 149.233 238.755 149.408 238.786 149.57C238.991 150.656 238.023 151.801 236.982 151.704C235.941 151.606 235.178 150.299 235.559 149.268C235.941 148.238 237.341 147.83 238.166 148.509C238.35 148.334 238.332 147.976 238.131 147.823C238.739 147.381 239.537 147.244 240.245 147.462C240.328 147.061 240.011 146.667 239.644 146.536C239.276 146.406 238.876 146.467 238.492 146.518ZM223.06 147.119C222.04 147.247 220.836 147.917 221.021 148.886C221.15 149.566 221.976 149.964 222.692 149.869C223.408 149.775 224.013 149.318 224.519 148.824L222.4 148.992C222.123 149.014 221.715 148.885 221.816 148.637C221.844 148.567 221.909 148.519 221.974 148.478C222.893 147.888 224.22 147.966 225.057 148.658C225.875 148.916 226.664 149.497 226.806 150.31C226.948 151.123 226.111 152.038 225.296 151.771C225.224 152.374 226.194 152.561 226.745 152.26C228.072 151.533 228.196 149.564 227.231 148.43C226.265 147.296 224.576 146.928 223.06 147.119ZM222.53 150.226C222.423 151.035 223.322 151.806 224.151 151.616C223.907 150.992 223.361 150.483 222.702 150.268L222.53 150.226ZM224.581 150.628L225.461 151.329L225.487 151.202C225.859 151.01 225.887 150.416 225.534 150.192C225.182 149.968 224.621 150.224 224.581 150.628ZM237.124 149.395C236.659 149.441 236.389 150.137 236.697 150.509L236.607 150.517C236.89 150.911 237.568 150.85 237.773 150.405C237.978 149.96 237.589 149.349 237.124 149.395ZM139.11 93.3402C138.536 94.0588 138.343 95.0014 138.209 95.91C137.531 100.511 137.926 105.267 139.353 109.694C139.611 110.494 139.916 111.306 140.49 111.92C142.059 113.599 144.773 113.128 147.043 112.742C149.156 112.384 151.301 112.217 153.444 112.244C154.437 112.257 155.416 112.031 156.383 111.806C158.939 111.213 161.496 110.619 164.052 110.026C164.084 106.624 162.707 103.231 160.312 100.807C159.952 100.443 159.391 100.083 158.972 100.377C159.433 100.842 159.296 101.741 158.717 102.049C158.028 101.798 158.273 100.78 158.08 100.074C157.832 99.1668 156.78 98.7724 155.861 98.558C151.143 97.4579 145.657 97.2704 142.522 93.5892C142.23 93.2466 141.955 92.8699 141.559 92.6542C140.751 92.2133 139.684 92.6217 139.11 93.3402ZM173.023 79.3259C175.756 80.6021 178.184 82.5894 180.029 85.0597C180.279 85.3934 180.529 85.777 180.497 86.1996C180.439 86.9675 179.558 87.2996 178.838 87.4525C177.564 87.7233 176.289 87.9941 175.014 88.2649C174.548 88.3639 173.815 88.1506 174.005 87.6938C175.54 86.7102 177.382 86.2623 179.173 86.437C179.316 86.1261 179.145 85.7605 178.955 85.4783C178.329 84.5459 177.471 83.8171 176.625 83.101C175.25 81.9376 173.875 80.7742 172.5 79.6108C172.529 79.371 172.819 79.2131 173.023 79.3259ZM162.981 75.5497C164.181 76.1037 164.616 77.5396 164.834 78.8209C164.969 79.6169 165.071 80.432 164.938 81.2283C164.704 82.622 163.745 83.8391 162.528 84.5983C161.31 85.3576 159.857 85.6941 158.416 85.7713C155.077 85.9501 151.684 84.7403 149.246 82.5017C148.185 81.5273 148.328 79.7348 149.22 78.6098C150.112 77.4848 151.54 76.9033 152.943 76.5255C154.532 76.0978 156.169 75.8702 157.8 75.6437C158.92 75.4882 160.043 75.3325 161.174 75.2948C161.788 75.2743 162.425 75.2933 162.981 75.5497ZM149.663 80.0808C149.295 80.7215 149.901 81.4645 150.457 81.9586C151.546 82.9264 152.911 83.9667 154.332 83.5957C155.285 83.347 156.309 82.4993 157.104 83.0706C157.037 83.3788 156.675 83.5273 156.356 83.5674C156.036 83.6076 155.688 83.5975 155.427 83.7822C155.166 83.9669 155.128 84.4535 155.437 84.542C156.445 84.8311 157.385 83.9817 158.102 83.2306C158.82 82.4795 159.849 81.6876 160.812 82.1C160.94 82.1548 161.072 82.2527 161.074 82.3892C161.076 82.5883 160.823 82.6735 160.624 82.7171C159.565 82.9494 158.618 83.6332 158.08 84.5549C159.49 84.3534 160.754 83.6234 161.978 82.9083C162.843 82.4025 163.793 81.781 163.968 80.8098C162.759 81.1593 161.502 81.3487 160.241 81.3711C157.603 81.4179 155.038 83.0072 152.467 82.4309C151.816 82.2851 151.368 81.7189 150.977 81.1903C151.383 80.8094 152.033 81.1234 152.563 81.3067C153.093 81.49 153.945 81.2096 153.747 80.6943C153.125 80.4351 152.502 80.1759 151.88 79.9167C151.129 79.604 150.062 79.3846 149.663 80.0808ZM155.585 80.3292C155.401 80.3543 155.196 80.403 155.098 80.5582C154.957 80.7825 155.149 81.0925 155.404 81.1781C155.659 81.2637 155.937 81.1947 156.197 81.1254C156.839 80.9541 157.481 80.7828 158.123 80.6115C157.319 80.3112 156.437 80.2131 155.585 80.3292ZM161.46 79.2257C160.476 79.5877 159.449 79.9778 158.758 80.7537C160.298 80.492 161.865 80.3854 163.427 80.4361C163.98 80.1952 163.774 79.2827 163.219 79.0461C162.664 78.8094 162.027 79.0173 161.46 79.2257ZM162.248 77.0579C161.701 77.1013 161.213 77.3947 160.702 77.5902C159.25 78.1453 157.629 77.9041 156.073 77.822C154.706 77.7499 153.327 77.8084 151.984 78.0725C151.263 78.2145 150.419 78.5582 150.328 79.2729C151.558 78.7077 152.991 78.9094 154.346 79.0073C157.415 79.2289 160.528 78.8464 163.445 77.8893C163.433 77.3526 162.795 77.0144 162.248 77.0579ZM140.61 77.2323C140.246 77.3927 139.872 77.6151 139.727 77.9837C139.582 78.3523 139.819 78.8722 140.216 78.8613C141.42 78.0217 142.942 77.6467 144.4 77.8302C144.862 77.8883 145.334 77.514 145.38 77.0525C143.844 76.5084 142.1 76.5741 140.61 77.2323ZM156.502 70.9322L156.506 70.9862C156.052 70.8249 155.492 71.0741 155.31 71.5187C156.059 71.4666 156.799 71.306 157.502 71.0434C157.499 70.6319 156.85 70.7103 156.502 70.9322ZM166.076 69.2836C165.771 69.4222 166.129 69.9911 166.387 69.7778L166.394 69.8015C166.625 69.6173 166.346 69.1622 166.076 69.2836Z" fill="#00160A"/>
</svg>
