<svg width="23" height="22" viewBox="0 0 23 22" fill="none" xmlns="http://www.w3.org/2000/svg">
<path d="M16.2154 1.91663H19.0904C19.3573 1.91555 19.6215 1.97022 19.866 2.07714C20.1106 2.18406 20.3301 2.34088 20.5105 2.53756C20.691 2.73423 20.8283 2.96641 20.9138 3.21924C20.9994 3.47208 21.0311 3.73998 21.0071 4.0058C20.6867 6.95475 19.679 9.78742 18.065 12.2762C16.5936 14.5917 14.6305 16.5548 12.315 18.0262C9.81491 19.6458 6.96845 20.6537 4.00625 20.9683C3.74124 20.9922 3.47415 20.9607 3.22198 20.8758C2.9698 20.7909 2.73808 20.6544 2.54156 20.475C2.34503 20.2956 2.18801 20.0772 2.0805 19.8338C1.97299 19.5904 1.91734 19.3273 1.91709 19.0612L1.91709 16.1862C1.91251 15.7211 2.0772 15.2702 2.38047 14.9176C2.68374 14.565 3.10489 14.3346 3.56542 14.2695C4.48548 14.1482 5.38887 13.9232 6.25834 13.5987C6.60135 13.4698 6.97413 13.4419 7.33251 13.5183C7.6909 13.5947 8.01986 13.7723 8.28042 14.03L9.4975 15.247C11.8967 13.8828 13.8833 11.8963 15.2475 9.49705L14.0304 8.27996C13.7728 8.0194 13.5952 7.69044 13.5188 7.33206C13.4423 6.97367 13.4702 6.60089 13.5992 6.25788C13.9236 5.38841 14.1487 4.48503 14.27 3.56496C14.3357 3.09944 14.5702 2.67429 14.9289 2.37037C15.2875 2.06645 15.7454 1.90497 16.2154 1.91663Z" stroke="white" stroke-width="2" stroke-linecap="round" stroke-linejoin="round"/>
</svg>
