<svg width="33" height="33" viewBox="0 0 33 33" fill="none" xmlns="http://www.w3.org/2000/svg">
<path d="M32.1337 26.95V31.1051L29.0493 26.7826C29.0243 26.3836 28.9089 26.0096 28.7008 25.6686C28.47 25.2906 28.161 24.9908 27.7777 24.7776L27.7682 24.7723L27.7584 24.7675C25.8917 23.8331 24.0041 23.1307 22.096 22.6618C20.1878 22.193 18.2611 21.9583 16.3168 21.9583C14.3725 21.9583 12.4459 22.193 10.5376 22.6618C8.62954 23.1307 6.74197 23.8331 4.87522 24.7675L4.8655 24.7723L4.856 24.7776C4.47266 24.9908 4.16367 25.2906 3.9329 25.6686C3.72477 26.0096 3.60941 26.3836 3.5844 26.7826L0.5 31.1051V26.95C0.5 25.8837 0.772754 24.9111 1.31853 24.0213C1.86646 23.1281 2.58878 22.4526 3.49027 21.9851C5.56488 20.9471 7.66998 20.1699 9.80592 19.6521C11.9428 19.134 14.1129 18.875 16.3168 18.875C18.5208 18.875 20.6908 19.134 22.8277 19.6521C24.9637 20.1699 27.0688 20.9471 29.1434 21.9851C30.0449 22.4526 30.7672 23.1281 31.3151 24.0213C31.8609 24.9111 32.1337 25.8837 32.1337 26.95ZM16.3168 15.8333C14.2071 15.8333 12.4134 15.0872 10.9087 13.581C9.40396 12.0748 8.65842 10.279 8.65842 8.16667C8.65842 6.05433 9.40396 4.25858 10.9087 2.75233C12.4134 1.2461 14.2071 0.5 16.3168 0.5C18.4266 0.5 20.2203 1.2461 21.725 2.75233C23.2297 4.25858 23.9752 6.05433 23.9752 8.16667C23.9752 10.279 23.2297 12.0748 21.725 13.581C20.2203 15.0872 18.4266 15.8333 16.3168 15.8333ZM16.3168 12.75C17.5724 12.75 18.6597 12.2966 19.5515 11.4039C20.4433 10.5112 20.896 9.42308 20.896 8.16667C20.896 6.91025 20.4433 5.82215 19.5515 4.92944C18.6597 4.03671 17.5724 3.58333 16.3168 3.58333C15.0612 3.58333 13.974 4.03671 13.0822 4.92944C12.1903 5.82215 11.7376 6.91025 11.7376 8.16667C11.7376 9.42308 12.1903 10.5112 13.0822 11.4039C13.974 12.2966 15.0612 12.75 16.3168 12.75Z" fill="#266E73" stroke="#C6ECCF"/>
</svg>
