<svg width="24" height="24" viewBox="0 0 24 24" fill="none" xmlns="http://www.w3.org/2000/svg">
<path d="M23.5 19.8V22.4398L21.4931 19.6302C21.4686 19.3305 21.3784 19.0479 21.2204 18.7893C21.039 18.4925 20.7952 18.2559 20.4928 18.0879L20.4833 18.0826L20.4736 18.0778C19.0925 17.3872 17.6951 16.8676 16.2817 16.5207C14.8681 16.1737 13.4406 16 12 16C10.5594 16 9.13187 16.1737 7.71831 16.5207C6.30489 16.8676 4.90748 17.3872 3.52639 18.0778L3.51668 18.0826L3.50718 18.0879C3.2048 18.2559 2.96098 18.4925 2.77961 18.7893C2.62158 19.0479 2.53137 19.3305 2.50687 19.6302L0.5 22.4398V19.8C0.5 19.0407 0.694007 18.3503 1.08234 17.7179C1.47282 17.0819 1.98601 16.6027 2.62674 16.2706C4.14376 15.5124 5.68229 14.9451 7.24269 14.5672C8.80407 14.1891 10.3896 14 12 14C13.6104 14 15.1959 14.1891 16.7573 14.5672C18.3177 14.9451 19.8562 15.5124 21.3733 16.2706C22.014 16.6027 22.5272 17.0819 22.9177 17.7179C23.306 18.3503 23.5 19.0407 23.5 19.8ZM12 11.5C10.4837 11.5 9.19803 10.9659 8.11605 9.88395C7.03407 8.80197 6.5 7.51634 6.5 6C6.5 4.48366 7.03407 3.19803 8.11605 2.11605C9.19803 1.03407 10.4837 0.5 12 0.5C13.5163 0.5 14.802 1.03407 15.8839 2.11605C16.9659 3.19803 17.5 4.48366 17.5 6C17.5 7.51634 16.9659 8.80197 15.8839 9.88395C14.802 10.9659 13.5163 11.5 12 11.5ZM12 9.5C12.9587 9.5 13.7918 9.15282 14.4723 8.4723C15.1528 7.79178 15.5 6.95866 15.5 6C15.5 5.04134 15.1528 4.20822 14.4723 3.5277C13.7918 2.84718 12.9587 2.5 12 2.5C11.0413 2.5 10.2082 2.84718 9.5277 3.5277C8.84718 4.20822 8.5 5.04134 8.5 6C8.5 6.95866 8.84718 7.79178 9.5277 8.4723C10.2082 9.15282 11.0413 9.5 12 9.5Z" fill="#C6ECCF" stroke="#266E73"/>
</svg>
