<svg width="200" height="200" viewBox="0 0 200 200" fill="none" xmlns="http://www.w3.org/2000/svg">
<path d="M48.5003 141C48.8803 141.06 50.9603 141.16 50.9603 140.8C50.9603 140.59 50.5803 140.6 50.5803 140.6C50.6303 139 52.6603 138.6 54.1103 139.44C54.51 139.67 54.8795 139.949 55.2103 140.27C53.1603 140.38 50.4403 141.78 50.6203 143.81C50.7237 144.339 50.9456 144.838 51.2695 145.27C51.5934 145.701 52.0108 146.053 52.4903 146.3C53.0898 146.749 53.7725 147.073 54.4987 147.255C55.225 147.437 55.9802 147.473 56.7203 147.36C58.0385 147.024 59.1984 146.239 60.0003 145.14C61.8129 145.198 63.5863 144.605 65.0003 143.47C65.06 143.423 65.1094 143.364 65.1455 143.297C65.1816 143.23 65.2037 143.156 65.2103 143.08C65.2103 142.73 65.2103 142.75 63.2103 140.53C63.1537 140.467 63.0828 140.418 63.0034 140.388C62.9241 140.358 62.8387 140.347 62.7544 140.357C62.6702 140.367 62.5895 140.397 62.5192 140.444C62.4488 140.492 62.3909 140.555 62.3503 140.63C62.3158 140.674 62.2857 140.72 62.2603 140.77C62.1015 141.068 61.8447 141.303 61.5333 141.434C61.2218 141.565 60.8747 141.585 60.5503 141.49C59.5503 141.2 58.2603 138.55 55.9103 136.97C53.8603 135.59 51.1103 135.18 49.1703 136.82C48.3354 137.537 47.7417 138.494 47.4703 139.56C47.3624 139.889 47.3838 140.246 47.5303 140.56C47.793 140.814 48.1358 140.97 48.5003 141ZM52.2603 144.71C51.9862 144.514 51.7959 144.222 51.7273 143.892C51.6587 143.562 51.7169 143.219 51.8903 142.93C52.3338 142.317 52.9501 141.85 53.6603 141.59C53.0874 142.561 52.6181 143.59 52.2603 144.66V144.71ZM61.6803 143.13C61.9203 142.41 61.6803 142.66 62.0803 142.48C62.3834 142.329 62.6576 142.126 62.8903 141.88L63.8003 142.96C63.0467 143.438 62.2135 143.776 61.3403 143.96C61.4403 143.7 61.6003 143.3 61.6803 143.08V143.13ZM58.0603 140.58C59.0103 141.77 59.8003 142.83 61.2503 142.71C61.0434 143.141 60.8761 143.589 60.7503 144.05C60.0203 144.1 59.9203 143.93 59.6303 144.05C59.0603 144.27 58.1203 146.32 55.8403 146.31C55.9823 145.993 56.0734 145.655 56.1103 145.31C56.7555 145.18 57.3594 144.895 57.8703 144.48C58.0893 144.29 58.2315 144.027 58.2703 143.74C58.2703 143.39 58.1503 142.94 57.4103 142.35C57.686 141.766 57.9037 141.156 58.0603 140.53V140.58ZM54.7003 144.36C53.8203 143.89 55.3203 143.06 56.2903 143.09C56.5132 143.092 56.731 143.156 56.9186 143.277C57.1062 143.397 57.2559 143.568 57.3503 143.77C57.2167 143.985 57.0406 144.171 56.8328 144.315C56.625 144.46 56.3898 144.561 56.1417 144.611C55.8936 144.662 55.6378 144.661 55.39 144.609C55.1421 144.557 54.9074 144.456 54.7003 144.31V144.36ZM55.8803 138.24C56.5594 138.817 57.1761 139.464 57.7203 140.17C57.4039 140.747 57.162 141.362 57.0003 142C56.5801 141.879 56.1395 141.846 55.706 141.903C55.2725 141.96 54.8553 142.105 54.4803 142.33C52.6503 143.33 53.0803 145.52 55.6203 145.27C55.4711 145.558 55.3601 145.864 55.2903 146.18C54.2763 145.978 53.328 145.528 52.5303 144.87C53.2392 143.769 53.7912 142.574 54.1703 141.32C54.5591 141.141 54.9796 141.042 55.4073 141.029C55.8349 141.015 56.2609 141.087 56.6603 141.24L56.8703 140.45L56.6503 140.35C56.1803 140.03 55.9703 139.78 55.4303 139.35C55.6308 138.985 55.7821 138.595 55.8803 138.19V138.24ZM52.0003 136.64C53.2518 136.663 54.4635 137.083 55.4603 137.84C55.2813 138.248 55.1472 138.673 55.0603 139.11C54.581 138.734 54.0155 138.483 53.415 138.38C52.8144 138.277 52.1976 138.325 51.6203 138.52C51.8313 137.913 51.9592 137.281 52.0003 136.64ZM49.7103 137.42C50.2647 136.989 50.9309 136.725 51.6303 136.66C51.32 137.332 51.1273 138.053 51.0603 138.79C50.7624 138.969 50.5185 139.225 50.3547 139.531C50.191 139.838 50.1134 140.183 50.1303 140.53C49.4297 140.569 48.7286 140.463 48.0703 140.22C48.2191 139.109 48.8015 138.103 49.6903 137.42H49.7103ZM34.7703 135.75C32.9703 134.97 28.9703 137.28 28.2403 138.52C28.1347 138.793 28.1347 139.096 28.2403 139.37C28.8703 141.76 34.7503 150.2 35.8403 151.51C36.0303 151.75 36.2903 151.42 36.1203 151.14C35.6003 150.28 35.6603 152.01 38.3203 143.4C38.5667 143.303 38.7963 143.168 39.0003 143C39.0931 142.897 39.1444 142.763 39.1444 142.625C39.1444 142.486 39.0931 142.353 39.0003 142.25C38.9095 142.138 38.8054 142.037 38.6903 141.95L39.3203 139.62L41.8203 141C41.3148 142.264 40.946 143.578 40.7203 144.92C39.7121 145.283 38.7672 145.803 37.9203 146.46C37.3303 147.11 38.2603 148.31 38.8403 149.03C39.4203 149.75 39.9103 150.24 40.0203 150.35C40.1303 150.46 40.4803 150.35 40.4503 150.17C40.3868 150.025 40.3026 149.89 40.2003 149.77C39.6585 148.927 39.1933 148.036 38.8103 147.11C39.5876 146.645 40.4081 146.256 41.2603 145.95C41.5703 145.84 42.5303 145.54 42.7903 145.7C44.0733 146.376 45.4114 146.941 46.7903 147.39C46.846 147.416 46.91 147.42 46.9681 147.399C47.0262 147.379 47.0738 147.336 47.1003 147.28C47.1268 147.224 47.1302 147.16 47.1095 147.102C47.0889 147.044 47.046 146.996 46.9903 146.97L45.2603 145.92C45.6286 145.085 45.8648 144.198 45.9603 143.29L50.2303 145.6C50.4903 145.75 50.6903 145.34 50.5003 145.23C50.3103 145.12 37.3503 136.88 34.7703 135.75ZM33.2503 136.81C33.5993 136.705 33.9714 136.705 34.3203 136.81C34.5503 136.91 35.1103 137.21 35.8703 137.63C35.614 138.338 35.4395 139.073 35.3503 139.82C34.6803 139.44 34.2803 139.15 33.7503 139.24C33.4614 139.305 33.1912 139.435 32.9603 139.62C33.0603 138.84 33.1503 138.24 33.2503 136.81ZM29.2503 139.01C30.2875 138.021 31.5457 137.294 32.9203 136.89C32.3866 139.249 32.0125 141.641 31.8003 144.05C30.7919 142.453 29.9413 140.762 29.2603 139L29.2503 139.01ZM33.7903 147.42C33.2403 146.51 32.6403 145.5 32.0703 144.51C32.4103 143.08 32.5203 142.42 32.7303 141.07C33.2775 142.019 33.9101 142.916 34.6203 143.75C34.2172 144.941 33.9423 146.171 33.8003 147.42H33.7903ZM35.5403 150.3C35.1803 149.73 34.7203 148.96 34.1203 147.97C34.5 146.715 34.7512 145.425 34.8703 144.12C35.0903 144.65 37.0503 143.89 37.5803 143.69C37.1903 144.92 35.8303 149.2 35.5503 150.3H35.5403ZM35.2403 143.81C34.6206 142.737 34.0727 141.625 33.6003 140.48L33.9103 140.31C34.0503 140.39 37.4703 142.41 37.7203 142.57C36.941 143.066 36.1134 143.481 35.2503 143.81H35.2403ZM38.2403 141.61C37.4903 141.11 36.4703 140.5 35.6903 140.05C35.9572 139.342 36.132 138.603 36.2103 137.85L39.0503 139.45C39.0003 139.83 38.6603 140.61 38.3003 141.61H38.2403ZM44.8603 145.61L43.3203 144.68C42.636 144.41 41.8746 144.41 41.1903 144.68C41.5779 143.511 41.859 142.309 42.0303 141.09L45.6503 143.09C45.2805 143.906 45.0344 144.772 44.9203 145.66L44.8603 145.61Z" fill="#EEC573"/>
<path d="M194.35 149.17C192.73 134.09 178.77 110.9 170.43 98.2299C175.087 98.6024 179.761 98.7193 184.43 98.5799C185.76 98.5799 189.24 98.3399 189.91 98.2099C190.3 98.1299 190.36 97.7599 189.77 97.7399C189.18 97.7199 184.98 97.5199 184.41 97.5099H174.24C172.68 97.5699 170.24 97.7099 170.1 97.7099C167.1 93.1399 165.01 90.2799 164.99 90.2699C164.967 90.2466 164.939 90.2285 164.909 90.2168C164.878 90.205 164.846 90.2 164.813 90.2019C164.78 90.2038 164.748 90.2127 164.719 90.228C164.69 90.2432 164.665 90.2644 164.645 90.2903C164.625 90.3161 164.611 90.346 164.603 90.3778C164.595 90.4096 164.594 90.4427 164.601 90.4749C164.607 90.507 164.62 90.5375 164.639 90.5642C164.658 90.591 164.682 90.6134 164.71 90.6299C165.17 90.9999 185.38 120.53 191.56 140.87C194.01 148.94 195.46 159.07 187.56 161.87C168.8 168.57 21.8702 170.75 7.98022 162.87C6.05022 161.78 5.60022 159.51 5.98022 156.45C6.57022 152.2 8.86022 146.45 11.6202 140.01C14.7302 143.01 40.5302 166.7 44.7102 165.81C48.8902 164.92 72.4002 154 73.3702 151.91C73.9337 150.458 74.2318 148.917 74.2502 147.36C74.3686 147.197 74.4237 146.997 74.4053 146.796C74.387 146.596 74.2963 146.409 74.1502 146.27C72.6002 144.73 41.8502 120.35 39.8702 120.42C38.4902 120.48 35.9902 121.9 34.8002 122.6C34.4144 121.969 33.84 121.475 33.1581 121.187C32.4762 120.9 31.7214 120.835 31.0002 121C30.3202 121.275 29.7114 121.7 29.2195 122.244C28.7276 122.788 28.3654 123.436 28.1602 124.14C28.1714 124.194 28.2009 124.242 28.2437 124.277C28.2865 124.312 28.34 124.331 28.3952 124.331C28.4504 124.331 28.5039 124.312 28.5467 124.277C28.5895 124.242 28.619 124.194 28.6302 124.14C29.2317 123.123 30.1852 122.361 31.3102 122C31.778 121.928 32.2566 121.99 32.6903 122.18C33.124 122.369 33.495 122.678 33.7602 123.07L22.6402 127.82C22.0498 127.213 21.3127 126.769 20.5002 126.53C18.6002 126.03 17.3202 127.28 16.5602 129.11C16.5435 129.163 16.5454 129.219 16.5657 129.271C16.586 129.322 16.6233 129.365 16.6715 129.392C16.7197 129.419 16.7757 129.429 16.8301 129.419C16.8845 129.41 16.934 129.382 16.9702 129.34C18.2502 127.49 19.7302 126.86 21.5002 128.34C19.3602 129.29 16.3702 130.64 14.2702 131.68C14.4202 131.44 36.0002 92.3599 36.0002 92.2599C36.9502 90.4999 38.8602 87.3499 40.8302 86.9399C41.7206 86.7458 42.6289 86.6452 43.5402 86.6399C42.1502 88.9399 30.8702 107.64 30.8502 110.28C30.8502 113.28 31.3702 112.81 32.9702 113.28C34.5702 113.75 124.1 113.2 124.26 113.2C125.81 113.2 131.87 113 132.43 112.59C134.17 111.31 133.78 109.4 133.02 107.39C132.84 106.91 131.93 104.92 130.71 102.26C135.96 100.68 139.91 102.69 140.27 111.26C140.63 118.67 137.71 120.93 132.12 120.61C127.63 120.35 124.53 119.03 123.55 120.78C122.45 122.73 125.49 127.11 126.81 128.93C126.62 128.93 118.25 128.76 116.14 128.67C113.167 128.555 110.19 128.591 107.22 128.78C105.175 128.825 103.142 129.103 101.16 129.61C100.41 129.98 99.4402 131.91 99.0302 132.72C98.2202 134.31 94.5302 144.29 93.5102 147.17C92.9102 148.83 90.8802 154.33 92.2402 155.3C92.1902 156.37 92.3602 157.8 93.3002 158.3C94.2402 158.8 107.16 159.16 108.15 159.18C109.9 159.23 127.59 159.46 138.88 158.96C150.17 158.46 155.1 157.38 154.81 157.41C155.097 157.325 155.355 157.163 155.554 156.94C155.754 156.718 155.887 156.444 155.94 156.15C156.094 155.411 156.046 154.644 155.8 153.93C157.06 151.48 147.53 131.14 144.89 129.71C144.734 129.622 144.559 129.574 144.38 129.57C143.85 129.57 131.99 129.07 127.38 128.92C126.38 127.51 123.13 122.2 124.38 121.07C126.28 119.41 142.15 127.73 141.3 111.17C140.86 103.68 137.41 99.2899 130.41 101.83C129.8 100.51 124.68 89.5699 123.31 86.6599C128.618 86.9775 133.942 86.8604 139.23 86.3099C139.306 87.2432 139.575 88.1507 140.019 88.9751C140.463 89.7995 141.073 90.5229 141.81 91.0999C145.81 94.0999 161.73 93.6499 164.62 89.9799C165.43 88.8724 165.99 87.6023 166.261 86.2574C166.532 84.9124 166.508 83.5246 166.19 82.1899C166.456 82.0206 166.662 81.7724 166.78 81.4799C166.94 81.1699 166.78 80.7799 166.09 80.6399C165.2 80.5066 164.3 80.453 163.4 80.4799C163.4 79.6599 163.45 78.1299 163.4 76.3899C163.49 76.3299 164.14 75.5499 164.21 75.4599C165.007 74.5287 165.636 73.4662 166.07 72.3199C166.4 71.3899 166.53 70.3199 165.66 69.7999C164.32 69.0699 163.38 70.4099 162.93 71.9099C162.51 69.5999 161.54 66.2099 159.22 66.5499C155.28 67.1499 158 76.6999 159.28 80.4799C158.156 80.3216 157.015 80.3216 155.89 80.4799C157.14 77.3399 157.78 73.2799 154.57 72.6699C154.084 72.5623 153.576 72.5997 153.11 72.7774C152.645 72.9551 152.241 73.2654 151.95 73.6699C151.886 73.4436 151.765 73.2373 151.6 73.0703C151.434 72.9033 151.229 72.7811 151.003 72.7151C150.777 72.6492 150.538 72.6416 150.308 72.6932C150.079 72.7447 149.866 72.8537 149.69 73.0099C148.22 74.0699 149.06 76.4999 150.77 77.2999C150.68 78.328 150.68 79.3619 150.77 80.3899C149.706 80.2613 148.628 80.2849 147.57 80.4599C147.511 78.0182 147.243 75.5861 146.77 73.1899C147.378 72.7576 147.889 72.2036 148.271 71.5632C148.653 70.9228 148.898 70.21 148.99 69.4699C149.13 68.1399 148.66 67.0299 147.55 66.7399C146.16 66.3799 145.34 67.3499 145.1 68.7399C143.87 67.0399 141.46 66.4299 140.29 68.3799C136.54 64.4799 134.73 66.6599 135.68 68.3799C136.39 69.6999 138.24 70.4399 139.68 70.8499C139.68 73.0899 140.68 74.9799 141.92 76.9099C142.75 78.2099 143.68 79.4599 144.4 80.3799C142.844 80.3299 141.287 80.4304 139.75 80.6799C138.81 80.9299 138.66 81.6099 139.53 82.0999C139.255 83.2721 139.154 84.4783 139.23 85.6799C133.858 85.3941 128.473 85.5211 123.12 86.0599C122.78 85.3299 121.77 83.1999 121.65 82.9499C121.53 82.6999 122.49 79.7999 123.84 52.8399C130.04 52.3199 157.92 52.9399 160.48 51.9499C160.627 51.8972 160.757 51.8065 160.857 51.687C160.957 51.5675 161.024 51.4236 161.05 51.2699C161.9 48.4799 162.48 24.4999 161.05 22.2699C160.7 21.7199 159.45 21.5499 158.76 21.4499C149.85 20.1499 112.67 20.7099 110.76 21.7199C108.85 22.7299 109.66 32.5899 110.02 34.5499C90.7102 33.9299 46.1202 35.1399 41.9202 36.7099C40.9202 37.0699 40.5502 38.4399 40.3502 39.4699C38.6902 48.0399 43.3502 75.6199 44.9102 84.1399C44.8102 84.1399 44.9102 84.1399 43.6902 86.0399C42.6576 85.9634 41.6194 86.0171 40.6002 86.1999C38.3202 86.5499 36.2202 89.6999 35.0602 91.6599C35.0102 91.7599 32.0602 96.6599 31.6202 97.4599C29.1102 97.0699 17.4402 97.2199 15.9602 97.2999C14.4802 97.3799 12.9602 97.4899 11.6202 97.5899C11.3802 97.5899 11.3602 98.0499 11.6202 98.0599C14.4202 98.2299 15.4502 98.2899 17.6202 98.3199C22.9302 98.3999 30.7602 98.6199 31.0102 98.5899C30.4902 99.4999 22.7902 113.2 21.7602 115.14C17.2802 123.54 13.7602 131.23 13.5502 131.88C12.3878 132.409 11.296 133.08 10.3002 133.88C9.97904 134.761 9.78705 135.684 9.73022 136.62C9.68022 138.23 10.2602 138.62 11.1502 139.52C8.76212 144.637 6.79884 149.941 5.28022 155.38C4.78444 157.58 4.76399 159.861 5.22022 162.07C5.62852 164.278 6.39173 166.406 7.48022 168.37C7.96916 168.866 8.60276 169.196 9.29022 169.31C11.9202 170.05 20.0702 171 22.8002 171.31C22.5944 172.532 22.5373 173.774 22.6302 175.01C22.6329 176.283 22.8181 177.549 23.1802 178.77C23.1835 178.8 23.1927 178.829 23.2073 178.856C23.2219 178.883 23.2416 178.906 23.2653 178.925C23.2889 178.944 23.3161 178.958 23.3453 178.967C23.3745 178.975 23.405 178.978 23.4352 178.975C23.4654 178.972 23.4947 178.962 23.5213 178.948C23.548 178.933 23.5715 178.914 23.5905 178.89C23.6096 178.866 23.6238 178.839 23.6323 178.81C23.6408 178.781 23.6435 178.75 23.6402 178.72C23.8002 177.473 23.8437 176.215 23.7702 174.96C23.7636 173.752 23.6262 172.548 23.3602 171.37C24.7402 171.49 26.0702 171.59 27.2302 171.63C27.0457 172.797 26.9954 173.981 27.0802 175.16C27.0836 176.433 27.2688 177.699 27.6302 178.92C27.6302 178.981 27.6544 179.039 27.6976 179.083C27.7407 179.126 27.7992 179.15 27.8602 179.15C27.9212 179.15 27.9797 179.126 28.0229 179.083C28.066 179.039 28.0902 178.981 28.0902 178.92C28.2556 177.674 28.3025 176.415 28.2302 175.16C28.2234 173.992 28.0892 172.829 27.8302 171.69C30.0602 171.74 62.8802 174.69 119.56 173.57C134.75 173.27 153.01 172.57 168.05 170.92C167.852 172.126 167.795 173.351 167.88 174.57C167.885 175.84 168.074 177.103 168.44 178.32C168.433 178.353 168.434 178.388 168.442 178.421C168.45 178.455 168.465 178.486 168.487 178.512C168.508 178.539 168.535 178.56 168.566 178.575C168.597 178.59 168.631 178.598 168.665 178.598C168.699 178.598 168.733 178.59 168.764 178.575C168.795 178.56 168.822 178.539 168.844 178.512C168.865 178.486 168.881 178.455 168.889 178.421C168.897 178.388 168.897 178.353 168.89 178.32C169.065 177.075 169.112 175.815 169.03 174.56C169.019 173.325 168.875 172.094 168.6 170.89C169.71 170.77 172.28 170.45 172.5 170.42C172.303 171.619 172.25 172.838 172.34 174.05C172.341 175.323 172.526 176.59 172.89 177.81C172.897 177.871 172.927 177.927 172.975 177.965C173.023 178.004 173.084 178.022 173.145 178.015C173.206 178.008 173.262 177.978 173.301 177.93C173.339 177.882 173.357 177.821 173.35 177.76C173.515 176.517 173.558 175.261 173.48 174.01C173.474 172.778 173.33 171.55 173.05 170.35C177.56 169.74 191.35 167.88 193.23 164.03C195.45 159.64 195.27 153.93 194.35 149.17ZM103.35 133.07C103.46 132.8 106.81 132.07 110.47 133.07C110.504 133.063 110.538 133.063 110.572 133.071C110.605 133.079 110.636 133.095 110.663 133.116C110.689 133.138 110.711 133.165 110.726 133.196C110.74 133.227 110.748 133.261 110.748 133.295C110.748 133.329 110.74 133.363 110.726 133.394C110.711 133.425 110.689 133.452 110.663 133.474C110.636 133.495 110.605 133.511 110.572 133.519C110.538 133.527 110.504 133.527 110.47 133.52C108.648 133.844 106.787 133.891 104.95 133.66C104.09 133.52 103 133.51 103.32 133.07H103.35ZM154.76 156.85C145.51 158.61 94.4102 158.21 93.6402 157.85C92.8702 157.49 92.8002 156.33 92.7802 155.57C98.3202 157.37 152.45 155.98 155.46 154.39C155.62 155.27 155.66 156.68 154.73 156.85H154.76ZM135.35 133.18C135.35 132.84 137.55 132.65 137.65 132.64C138.958 132.539 140.272 132.539 141.58 132.64C142.31 132.72 143.32 132.82 143.24 133.13C143.16 133.44 141.65 133.57 141.39 133.61C140.413 133.7 139.432 133.74 138.45 133.73C137.79 133.71 135.28 133.59 135.32 133.18H135.35ZM148.2 136.51C150.702 141.277 152.803 146.244 154.48 151.36C154.693 152.006 154.811 152.68 154.83 153.36C150.32 154.76 98.3402 156.2 93.0802 154.69C92.8302 154.62 92.7602 154.69 92.7002 154.27C92.3202 151.55 96.7702 140.74 97.8002 138.22C116.72 137.59 148 136.62 148.17 136.51H148.2ZM139.78 70.3999C138.686 69.7992 137.694 69.0297 136.84 68.1199C136.45 67.5299 136.54 67.1199 137.69 67.6799C138.41 68.0099 139.42 68.5999 140.1 69.0099C139.925 69.4549 139.818 69.9233 139.78 70.3999ZM163.78 72.1899C164.58 70.7499 165.37 70.3399 165.29 71.1899C164.86 72.7109 164.249 74.1748 163.47 75.5499C163.41 74.5499 163.34 73.8799 163.26 73.2199C163.3 73.0799 163.5 72.6599 163.75 72.1899H163.78ZM159.53 80.8899C159.73 81.4599 159.86 81.7999 159.87 81.8199C159.881 81.8482 159.898 81.8741 159.919 81.896C159.94 81.9179 159.965 81.9354 159.993 81.9475C160.021 81.9596 160.051 81.966 160.081 81.9664C160.112 81.9669 160.142 81.9612 160.17 81.9499C160.61 81.7799 159.96 81.3699 158.92 75.3399C158.61 73.5399 157.69 67.9899 159.51 67.7299C160.99 67.5099 161.79 71.1799 162.07 72.6299C162.589 75.4249 162.923 78.251 163.07 81.0899C163.07 81.1453 163.089 81.1991 163.125 81.2414C163.16 81.2837 163.21 81.3117 163.265 81.3202C163.32 81.3287 163.376 81.3172 163.422 81.2877C163.469 81.2583 163.504 81.2129 163.52 81.1599C163.523 81.1033 163.523 81.0465 163.52 80.9899C164.424 81.0165 165.323 81.1406 166.2 81.3599C166.089 81.4903 165.948 81.593 165.79 81.6599C163.69 82.7399 157.34 82.5299 155.15 82.4899C155.45 81.8899 155.66 81.4299 155.89 80.8799C157.085 81.0763 158.304 81.0797 159.5 80.8899H159.53ZM151.73 78.6999C151.96 76.6999 152.47 73.5099 154.49 73.8899C156.51 74.2699 156 77.1999 155.56 79.1599C155.289 80.2843 154.955 81.3927 154.56 82.4799H151.56C151.536 81.2183 151.583 79.9563 151.7 78.6999H151.73ZM150.46 73.9999C150.507 73.9556 150.562 73.9215 150.622 73.8999C150.683 73.8782 150.747 73.8694 150.811 73.8741C150.875 73.8789 150.938 73.8969 150.994 73.9272C151.051 73.9575 151.101 73.9993 151.14 74.0499C151.3 74.2094 151.443 74.3835 151.57 74.5699C151.286 75.2076 151.088 75.8801 150.98 76.5699C150.46 75.8499 149.79 74.5399 150.46 73.9999ZM147.31 67.9199C148.61 68.3299 147.59 71.7499 146.72 72.7899C146.48 71.7136 146.121 70.6672 145.65 69.6699C145.94 68.7899 146.43 67.6399 147.31 67.9099V67.9199ZM144.85 80.9999C145.34 81.6199 145.66 81.9999 145.66 81.9999C145.7 82.0391 145.753 82.0625 145.808 82.0658C145.864 82.0691 145.919 82.052 145.963 82.0178C146.007 81.9835 146.037 81.9344 146.048 81.8796C146.058 81.8248 146.048 81.7681 146.02 81.7199C146.02 81.7199 144.25 79.1999 142.79 76.5899C141.69 74.5899 140.64 72.5899 140.93 70.3799C141.16 68.6399 142.08 67.8999 143.63 68.9099C145.87 70.3499 146.89 79.2299 147.21 81.9099C147.213 81.98 147.238 82.0475 147.281 82.103C147.324 82.1585 147.383 82.1993 147.45 82.2199C147.72 82.2199 147.68 81.9299 147.67 81.7899C147.66 81.6499 147.67 80.9499 147.67 80.8799C148.733 81.0143 149.808 81.0143 150.87 80.8799C150.93 81.6099 151 82.1799 151.05 82.4799C147.5 82.4799 143.21 82.7199 140.27 81.5699C141.781 81.2709 143.312 81.0805 144.85 80.9999ZM140.06 82.4699C141.523 83.0368 143.064 83.3741 144.63 83.4699C146.4 83.6299 158.45 83.6499 159.82 83.5799C161.886 83.546 163.931 83.1639 165.87 82.4499C166.056 83.6778 165.986 84.931 165.664 86.1305C165.343 87.3301 164.776 88.45 164 89.4199C161.57 92.2699 146.2 92.9199 142.51 90.3199C140.08 88.6499 139.64 85.3099 140.06 82.4599V82.4699ZM132 111.83C132.21 112.5 36.8602 112.53 36.7602 112.52C32.7602 112.52 33.7602 112.52 32.4202 112.19C32.0602 112.11 31.9902 112.11 31.9202 111.76C31.8354 111.211 31.8119 110.654 31.8502 110.1C31.8712 110.141 31.9051 110.174 31.9466 110.194C31.9882 110.214 32.0351 110.219 32.0802 110.21C32.0802 110.21 131.97 108.85 132.62 108.83C132.89 110 132.93 111.09 132 111.83ZM160.13 51.1399C160.13 51.1399 160.19 51.0399 160.21 51.0699C160.23 51.0999 160.13 51.1299 160.08 51.1399H160.13ZM110.4 25.9199C110.4 25.2699 110.66 22.8099 111.24 22.5099C112.56 21.8499 154.51 21.2899 160.24 23.0799C161.24 25.1799 160.92 48.7699 160.08 51.1399C155.16 51.9099 130.4 51.8499 123.96 52.5099C124.35 44.6399 124.52 38.0099 124.2 36.7199C124.139 36.5517 124.039 36.4 123.909 36.2768C123.778 36.1537 123.622 36.0623 123.45 36.0099C121.26 35.0599 113.02 34.7899 110.62 34.7099C110.309 31.7907 110.235 28.851 110.4 25.9199ZM41.2502 51.0999C41.1002 48.9999 40.3602 38.3999 42.3602 37.6599C43.3602 37.3099 46.8802 36.9599 51.9902 36.6599C61.7802 36.0499 77.2102 35.5599 91.2502 35.4599C94.3702 35.4599 120.73 35.2299 123.31 36.9999C124.07 40.4599 121.64 78.8999 121.1 82.6099C97.4702 83.3799 69.4702 84.5399 45.6402 83.9599C45.2402 81.6699 42.1802 63.9999 41.2502 51.0999ZM45.3302 84.6299C45.3321 84.6066 45.3321 84.5832 45.3302 84.5599C62.1802 85.0799 114.91 83.3499 121.33 83.3099C122.04 84.9599 132.01 107.08 132.43 108.31C132.32 108.31 32.0002 109.67 31.8702 109.77C33.1302 105.55 43.5502 87.7099 45.3302 84.6299ZM72.8202 151.63C72.0802 153.07 49.6602 163.09 45.0502 164.48C45.1396 164.019 45.1732 163.549 45.1502 163.08C51.9602 160.72 66.7402 154.49 73.3702 150.08C73.2439 150.618 73.0595 151.141 72.8202 151.64V151.63ZM73.5102 149.42C71.5102 150.6 69.6002 151.42 45.1402 162.54C45.1412 162.087 45.0806 161.636 44.9602 161.2C48.1602 159.7 69.8602 151.29 73.7302 147.94C73.6802 148.37 73.6102 148.89 73.5102 149.43V149.42ZM22.0002 128.9C22.4811 129.466 22.7787 130.165 22.8537 130.905C22.9287 131.644 22.7775 132.388 22.4202 133.04C22.2602 133.29 22.6402 133.55 22.8002 133.29C23.4039 132.632 23.7608 131.785 23.81 130.893C23.8593 130.002 23.5978 129.12 23.0702 128.4C27.9302 126.17 32.7102 124.07 34.0202 123.5C34.348 124.166 34.5234 124.896 34.5337 125.638C34.5441 126.38 34.3892 127.115 34.0802 127.79C33.9602 128.11 34.3202 128.23 34.4902 128.02C35.0402 127.321 35.3825 126.482 35.478 125.597C35.5735 124.713 35.4183 123.82 35.0302 123.02C36.1102 122.41 38.6302 121.02 39.8602 121.02C41.4002 121.02 72.6502 146.44 73.2302 147.02C70.6202 149.71 46.3902 159.3 44.3502 160.28C40.0502 159.28 13.8102 136.71 11.3502 134.39C12.8802 133.12 20.2802 129.7 22.0002 128.9ZM10.5902 134.85C13.7102 137.9 39.7402 160.62 44.1002 161.34C44.0127 161.717 43.9724 162.103 43.9802 162.49C36.9802 159.07 16.9802 141.75 10.3602 136.18C10.3902 136.18 10.5402 135.2 10.6202 134.85H10.5902ZM10.7402 138.28C10.4581 137.85 10.3182 137.343 10.3402 136.83C16.8802 143.43 35.3402 159.66 43.9702 163.04C43.9524 163.575 44.0062 164.109 44.1302 164.63C39.0002 163.48 11.4202 139.1 10.7702 138.28H10.7402ZM192.74 163.7C186.28 176.52 10.9802 173.17 8.14022 168.17C6.9364 166.077 6.12317 163.783 5.74022 161.4C6.12598 162.245 6.77034 162.945 7.58022 163.4C22.3002 171.97 168.75 169.73 187.87 162.86C191.92 161.4 193.96 158.25 194.42 153.86C194.692 157.231 194.107 160.616 192.72 163.7H192.74Z" fill="#228087"/>
<path d="M43.0004 95.6899C113.71 96.6899 120.46 96.0799 122.44 95.7699C122.91 95.6999 123.21 95.5399 123.19 94.9899C123.19 93.5399 119.79 86.8899 118.89 86.4299C118.49 86.2199 46.8904 87.2299 46.6404 87.3099C46.5938 87.3211 46.5501 87.3421 46.5122 87.3714C46.4743 87.4007 46.443 87.4377 46.4204 87.4799C45.7404 88.5899 42.4204 94.0699 42.5704 95.3099C42.5866 95.4134 42.6384 95.508 42.7169 95.5773C42.7954 95.6467 42.8957 95.6865 43.0004 95.6899ZM46.9304 87.9999C47.6504 87.9099 118.09 87.2099 118.52 87.2499C119.267 88.3239 119.935 89.4501 120.52 90.6199C118.88 90.6199 45.5804 91.0099 45.2004 91.0199C45.6404 90.1399 46.2204 89.1399 46.9304 87.9999ZM44.9304 91.4999C45.3204 91.4999 119.49 91.1199 120.76 91.0899C121.418 92.3152 121.938 93.6098 122.31 94.9499C118.75 95.5199 86.3104 95.2399 43.3604 94.9499C43.7617 93.7387 44.2808 92.5698 44.9104 91.4599L44.9304 91.4999ZM98.1904 99.0899C97.9909 98.6484 97.6649 98.2759 97.2537 98.0196C96.8426 97.7633 96.3646 97.6346 95.8804 97.6499C93.3404 97.6499 72.0104 97.0599 70.0904 97.8399C68.8646 99.3251 67.9162 101.019 67.2904 102.84C67.2304 103.28 67.4504 103.48 67.7204 103.51C73.7204 104.16 93.6104 104.78 98.7704 103.83C99.4104 103.71 99.4904 103.03 99.3604 102.38C99.0508 101.256 98.6597 100.157 98.1904 99.0899ZM68.0004 102.84C68.5748 101.217 69.3544 99.6747 70.3204 98.2499C71.8404 97.7499 91.6104 98.7899 95.9104 98.7799C96.1664 98.7707 96.4196 98.8357 96.6395 98.967C96.8595 99.0982 97.0369 99.2902 97.1504 99.5199C97.6364 100.559 98.0151 101.644 98.2804 102.76C93.2104 103.55 71.6804 103.1 68.0004 102.84ZM167.64 100.37C166.23 98.4299 159.16 98.5199 156.79 98.5899C154.79 98.5899 147.52 98.9199 147.52 100.88C147.529 101.039 147.575 101.193 147.655 101.331C147.735 101.468 147.846 101.584 147.98 101.67C148.17 101.82 146.86 115 148.66 122.07C149.25 124.41 150.01 125.57 152.24 126.54C156.52 128.4 163.62 127.99 166.47 124.02C167.04 122.86 166.92 119.48 166.97 118.45C171.4 119.33 175.03 117.53 175.97 112.76C176.56 109.69 175.8 107.68 174.49 106.46C173.615 105.747 172.581 105.257 171.475 105.031C170.369 104.804 169.225 104.849 168.14 105.16C168.102 105.173 168.062 105.176 168.023 105.17C167.983 105.164 167.946 105.149 167.913 105.125C167.881 105.102 167.855 105.071 167.837 105.035C167.819 104.999 167.81 104.96 167.81 104.92C167.81 104.39 168 100.8 167.64 100.37ZM148.64 100.58C151.34 98.9999 162.34 98.8799 165.89 100.49C166.01 100.55 166.46 100.78 166.46 100.88C166.46 100.98 166 101.22 165.89 101.27C163.21 102.48 153.64 103.03 148.61 101.19C148.26 101 148.61 100.62 148.61 100.58H148.64ZM168.42 106.18C169.329 105.918 170.288 105.88 171.214 106.07C172.141 106.26 173.008 106.672 173.74 107.27C174.82 108.27 175.36 109.99 174.86 112.54C174.761 113.426 174.454 114.277 173.964 115.022C173.474 115.768 172.815 116.387 172.04 116.83C170.4 117.568 168.554 117.709 166.82 117.23C166.735 117.199 166.645 117.186 166.554 117.192C166.464 117.197 166.375 117.221 166.295 117.263C166.214 117.304 166.143 117.361 166.085 117.432C166.028 117.502 165.985 117.583 165.96 117.67C165.69 118.43 166.07 121.5 165.52 123.44C162.99 126.87 156.52 127.18 152.69 125.57C150.75 124.74 150.21 123.88 149.69 121.81C148.35 116.9 148.27 106.9 148.57 101.98C151.72 103.47 162.63 103.9 166.92 101.7C166.92 104.8 166.54 105.32 167.32 105.95C167.471 106.064 167.645 106.143 167.83 106.183C168.015 106.223 168.206 106.222 168.39 106.18H168.42ZM71.2804 127.37C68.6541 125.142 65.8289 123.161 62.8404 121.45C61.6891 120.771 60.4646 120.224 59.1904 119.82C58.1204 119.54 57.6704 120.09 57.8904 120.82C58.3411 121.868 58.937 122.848 59.6604 123.73C61.9613 126.643 64.6073 129.265 67.5404 131.54C72.0004 135.27 77.7804 139.79 82.0004 143C82.2154 143.157 82.4596 143.27 82.7187 143.331C82.9778 143.393 83.2465 143.402 83.5092 143.358C83.7719 143.314 84.0231 143.218 84.2483 143.076C84.4734 142.934 84.6679 142.748 84.8204 142.53C85.5604 141.72 86.0204 140.3 85.1904 139.53C84.2304 138.67 78.3604 133.14 71.2804 127.37ZM61.7004 125.15L60.3304 122.94C60.8181 122.737 61.2305 122.388 61.5104 121.94L63.6804 122.82C63.1358 122.928 62.6439 123.217 62.2844 123.64C61.9249 124.063 61.7191 124.595 61.7004 125.15ZM64.7704 127.7C64.0477 127.092 63.3785 126.423 62.7704 125.7C62.8404 124.49 63.2204 123.95 64.4304 123.91C65.2365 124.295 65.9978 124.768 66.7004 125.32C66.1626 125.451 65.6827 125.755 65.3341 126.184C64.9855 126.614 64.7874 127.147 64.7704 127.7ZM81.8704 142.25C80.7604 141.32 66.0004 128.8 65.0904 128C65.1667 127.44 65.4112 126.917 65.7915 126.499C66.1719 126.081 66.6701 125.788 67.2204 125.66C70.6704 128.22 75.6304 132.46 84.2804 139.66C83.9436 139.643 83.6073 139.7 83.2948 139.826C82.9824 139.953 82.7015 140.147 82.4718 140.393C82.2422 140.64 82.0693 140.934 81.9654 141.255C81.8615 141.576 81.8291 141.915 81.8704 142.25ZM161.11 153.33C162.36 154.18 163.23 153.79 164.04 152.61C166.04 149.77 173.04 137.2 173.04 137.1C173.04 137 173.12 137.19 172.79 133.15C172.776 132.998 172.721 132.853 172.631 132.729C172.542 132.606 172.42 132.509 172.28 132.449C172.14 132.388 171.986 132.367 171.835 132.386C171.684 132.406 171.541 132.466 171.42 132.56L168 135.05C168 135.05 160.41 150.74 160.33 150.88C160.193 151.319 160.194 151.79 160.334 152.228C160.473 152.666 160.745 153.051 161.11 153.33ZM171.7 133.78C171.76 134.51 171.84 135.48 171.9 136.15C171.158 135.794 170.38 135.516 169.58 135.32L171.7 133.78ZM168.84 136C169.707 136.614 170.708 137.012 171.76 137.16C171.61 137.42 163.97 151.36 163.89 151.5C163.658 151.027 163.276 150.645 162.804 150.412C162.333 150.178 161.797 150.107 161.28 150.21C162.06 148.76 168.56 136.5 168.84 136Z" fill="#175256"/>
<path d="M164.241 116.17C164.133 116.019 163.996 115.89 163.838 115.792C163.68 115.695 163.504 115.629 163.321 115.6C162.729 115.442 162.128 115.322 161.521 115.24C161.861 117.62 162.061 120.24 162.051 120.47C162.035 120.622 161.961 120.762 161.843 120.86C161.725 120.957 161.573 121.004 161.421 120.99C161.267 120.972 161.127 120.895 161.03 120.776C160.933 120.656 160.886 120.503 160.9 120.35C160.9 120.18 160.84 119.49 160.79 115.14C158.79 114.89 149.16 114.14 149.54 116.06C149.54 116.16 148.751 121.06 151.811 123.41C154.871 125.76 160.991 125.3 163.131 122.91C163.738 122.182 164.138 121.305 164.29 120.37C164.527 118.978 164.51 117.555 164.241 116.17ZM166.641 107.12C166.641 107.57 166.041 111.01 165.641 115.63L166.12 115.73C167.88 116.103 169.713 115.904 171.351 115.16C171.922 114.843 172.394 114.375 172.717 113.807C173.04 113.239 173.2 112.593 173.18 111.94C173.248 111.128 173.107 110.313 172.77 109.571C172.434 108.829 171.913 108.186 171.257 107.703C170.601 107.22 169.833 106.912 169.025 106.81C168.217 106.708 167.396 106.815 166.641 107.12ZM167.09 107.46C167.729 107.359 168.381 107.396 169.004 107.568C169.627 107.741 170.205 108.045 170.701 108.46C171.176 108.896 171.544 109.436 171.777 110.038C172.009 110.64 172.099 111.287 172.04 111.93C171.95 114.5 169.311 114.99 166.781 114.73C166.901 112.91 167 110.82 167.09 107.46ZM156.381 48.7599C156.378 48.938 156.41 49.1149 156.477 49.2803C156.543 49.4458 156.641 49.5965 156.765 49.7239C156.89 49.8512 157.038 49.9527 157.202 50.0224C157.366 50.092 157.542 50.1286 157.721 50.1299C157.993 50.1358 158.26 50.0606 158.49 49.9137C158.719 49.7669 158.899 49.555 159.007 49.3053C159.116 49.0555 159.147 48.7792 159.098 48.5115C159.048 48.2438 158.92 47.9969 158.73 47.8023C158.54 47.6077 158.296 47.4742 158.029 47.4188C157.762 47.3635 157.485 47.3888 157.233 47.4916C156.981 47.5943 156.766 47.7698 156.614 47.9957C156.462 48.2216 156.381 48.4877 156.381 48.7599ZM46.9305 81.7499C47.1605 82.1999 47.4605 82.2499 47.6505 82.1099C47.8405 81.9699 111.171 81.4199 115.881 81.1699C116.893 81.1855 117.903 81.0575 118.881 80.7899C121.131 78.7899 122.011 41.3999 121.131 39.6699C118.881 35.1799 48.4605 38.0699 44.1305 39.3799C40.6805 40.4199 45.3405 78.5599 46.9305 81.7499ZM43.9405 40.9999C43.9405 40.8199 44.1605 40.1199 44.3305 40.0699C49.1205 38.6299 118.671 36.2599 120.561 40.0199C120.722 40.7722 120.796 41.5406 120.781 42.3099C120.951 46.6699 120.781 56.0099 120.331 64.3799C120.241 65.9799 119.531 79.0899 118.491 80.2799C114.341 81.1599 50.3905 81.3599 47.5505 81.4699C45.9305 77.7099 42.4305 47.5999 43.9405 40.9999ZM157.851 26.7099C158.122 26.7158 158.39 26.6408 158.619 26.4944C158.848 26.3479 159.028 26.1367 159.136 25.8876C159.245 25.6384 159.277 25.3626 159.228 25.0951C159.18 24.8277 159.053 24.5808 158.863 24.3858C158.674 24.1908 158.431 24.0566 158.165 24.0001C157.899 23.9436 157.623 23.9675 157.37 24.0687C157.118 24.17 156.902 24.3439 156.749 24.5685C156.595 24.7931 156.513 25.0581 156.51 25.3299C156.507 25.5088 156.538 25.6868 156.604 25.8534C156.669 26.02 156.767 26.172 156.892 26.3004C157.016 26.4288 157.165 26.5311 157.33 26.6014C157.495 26.6717 157.672 26.7086 157.851 26.7099Z" fill="#02494E"/>
<path d="M63.5105 66.1999H75.3905C76.7653 66.1946 78.0818 65.6441 79.051 64.6692C80.0203 63.6943 80.5632 62.3746 80.5605 60.9999V51.3599C80.5607 49.9822 80.0182 48.6599 79.0506 47.6792C78.083 46.6985 76.7681 46.1383 75.3905 46.1199H63.5105C62.8217 46.1172 62.1391 46.251 61.5022 46.5134C60.8652 46.7758 60.2865 47.1616 59.7994 47.6487C59.3123 48.1358 58.9264 48.7145 58.664 49.3515C58.4016 49.9884 58.2679 50.671 58.2705 51.3599V60.9999C58.2732 61.6854 58.4108 62.3636 58.6755 62.996C58.9403 63.6283 59.327 64.2023 59.8136 64.6851C60.3002 65.168 60.8771 65.5503 61.5114 65.8102C62.1457 66.0701 62.825 66.2025 63.5105 66.1999ZM59.1205 51.3599C59.1388 50.204 59.6081 49.1011 60.4283 48.2865C61.2485 47.4719 62.3546 47.0102 63.5105 46.9999H75.3905C75.9743 46.9933 76.5537 47.1024 77.0951 47.3209C77.6364 47.5395 78.1292 47.8631 78.5448 48.2731C78.9604 48.6832 79.2907 49.1715 79.5165 49.7099C79.7423 50.2482 79.8593 50.826 79.8605 51.4099V60.9999C79.8579 61.5843 79.7402 62.1624 79.5142 62.7013C79.2881 63.2402 78.9581 63.7293 78.543 64.1406C78.128 64.552 77.6359 64.8776 77.095 65.0988C76.5541 65.32 75.9749 65.4325 75.3905 65.4299H63.5105C62.9314 65.4273 62.3585 65.3106 61.8244 65.0865C61.2904 64.8625 60.8057 64.5354 60.398 64.1241C59.9904 63.7127 59.6678 63.2251 59.4486 62.689C59.2294 62.153 59.1179 61.579 59.1205 60.9999V51.3599ZM95.6305 73.3399C95.8305 73.9299 96.3305 73.7999 96.4705 73.4299C96.6605 72.8999 97.7705 69.0899 97.9105 68.4299C98.6805 68.1899 96.5105 68.9399 103.221 66.4999C103.29 66.4729 103.35 66.4255 103.392 66.364C103.434 66.3024 103.457 66.2295 103.457 66.1549C103.457 66.0802 103.434 66.0074 103.392 65.9458C103.35 65.8842 103.29 65.8368 103.221 65.8099L92.9405 61.6999C92.8774 61.67 92.8075 61.6572 92.7379 61.6627C92.6683 61.6682 92.6013 61.6919 92.5437 61.7313C92.486 61.7708 92.4397 61.8246 92.4093 61.8875C92.379 61.9504 92.3656 62.0202 92.3705 62.0899C92.3705 62.0899 95.0805 71.7499 95.6305 73.3399ZM93.4005 62.7699L102.061 66.1799C100.901 66.6099 98.9405 67.3499 98.0005 67.7299C97.5805 67.8899 97.4105 67.9599 97.3105 68.0899C97.2105 68.2199 97.5605 67.4399 96.0905 71.9699L93.4005 62.7699ZM117.001 33.4499C117.012 33.5099 117.045 33.5638 117.092 33.6022C117.14 33.6406 117.199 33.661 117.261 33.6599C117.471 33.6599 123.941 34.2799 125.261 33.9299C126.111 33.6999 126.261 32.1999 126.341 31.3199C126.441 29.9899 126.341 26.7299 125.781 25.6199C125.021 24.1199 119.411 24.6199 117.781 24.9099C117.348 24.9707 116.934 25.1279 116.571 25.3699C116.359 25.6158 116.235 25.9256 116.221 26.2499C116.211 28.6715 116.472 31.0866 117.001 33.4499ZM117.291 26.1399C118.871 25.6499 123.371 25.4599 124.801 26.1399C125.291 27.4399 125.551 31.9099 124.961 32.9499C124.031 33.1899 118.351 33.1899 117.401 33.1999C117.371 32.4199 116.911 28.2099 117.291 26.1399ZM130.421 33.4099C130.434 33.469 130.467 33.5218 130.514 33.5599C130.561 33.598 130.62 33.6191 130.681 33.6199C130.891 33.6199 137.361 34.2399 138.681 33.8899C139.531 33.6599 139.681 32.1599 139.771 31.2799C139.861 29.9499 139.771 26.6899 139.201 25.5799C138.441 24.0699 132.831 24.5799 131.201 24.8699C130.769 24.9349 130.356 25.0917 129.991 25.3299C129.783 25.5784 129.661 25.8867 129.641 26.2099C129.631 28.6314 129.893 31.0465 130.421 33.4099ZM130.711 26.0999C132.291 25.5999 136.791 25.4199 138.221 26.0999C138.711 27.3999 138.971 31.8699 138.381 32.8999C137.451 33.1499 131.771 33.1499 130.821 33.1599C130.791 32.3799 130.331 28.1699 130.711 26.0999ZM144.461 33.8499C144.472 33.9098 144.505 33.9638 144.552 34.0022C144.6 34.0406 144.659 34.061 144.721 34.0599C144.931 34.0599 151.401 34.6799 152.721 34.3299C153.571 34.0999 153.721 32.5999 153.801 31.7199C153.901 30.3899 153.801 27.1299 153.241 26.0199C152.481 24.5199 146.871 25.0199 145.241 25.3099C144.809 25.3733 144.396 25.5303 144.031 25.7699C143.819 26.0158 143.695 26.3256 143.681 26.6499C143.671 29.0715 143.932 31.4866 144.461 33.8499ZM144.751 26.5399C146.331 26.0499 150.831 25.8599 152.261 26.5399C152.751 27.8399 153.011 32.3099 152.421 33.3499C151.491 33.5899 145.811 33.5899 144.861 33.5999C144.831 32.8199 144.371 28.6099 144.751 26.5399ZM130.511 48.7899C130.581 48.9899 130.741 49.0099 130.771 48.9999C130.991 48.9999 137.451 49.6199 138.771 49.2699C139.621 49.0399 139.771 47.5399 139.861 46.6599C139.951 45.3299 139.861 42.0699 139.301 40.9699C138.531 39.4599 132.921 39.9699 131.301 40.2499C130.865 40.3119 130.449 40.469 130.081 40.7099C129.871 40.9612 129.748 41.2733 129.731 41.5999C129.721 44.0181 129.983 46.4299 130.511 48.7899ZM130.811 41.4799C132.391 40.9899 136.881 40.7999 138.311 41.4799C138.801 42.7799 139.061 47.2499 138.471 48.2899C137.541 48.5299 131.871 48.5299 130.921 48.5399C130.881 47.7599 130.421 43.5499 130.811 41.4799ZM153.891 40.5599C155.491 38.1999 156.891 36.0699 156.941 35.9699C156.991 35.8699 156.261 34.9699 155.831 35.6099C152.771 40.3199 153.191 39.8699 152.971 39.7899C151.211 39.1499 145.531 39.3699 144.641 40.1999C144.041 40.7599 144.271 42.7899 144.341 43.6599C143.701 43.2999 143.211 43.0399 143.031 42.9699C142.571 42.7899 142.601 43.2399 142.851 43.3999L144.411 44.3999C144.537 45.7141 144.741 47.0197 145.021 48.3099C145.03 48.3708 145.062 48.4259 145.11 48.4647C145.158 48.5035 145.219 48.5231 145.281 48.5199C145.491 48.5199 151.961 49.1399 153.281 48.7899C155.001 48.3099 154.471 41.9999 153.891 40.5599ZM145.311 40.9699C147.663 40.4346 150.1 40.3903 152.471 40.8399L149.001 46.3099C148.651 46.1099 146.781 45.0099 145.221 44.1299C145.155 43.086 145.185 42.0383 145.311 40.9999V40.9699ZM152.981 47.7699C152.041 48.0199 146.371 48.0199 145.421 48.0299C145.421 47.6299 145.271 46.3199 145.201 44.8699L149.001 47.2299C149.097 47.2404 149.194 47.2234 149.28 47.1809C149.367 47.1384 149.44 47.0722 149.491 46.9899C149.811 46.5799 151.421 44.2399 153.061 41.8299C153.371 43.6299 153.471 46.9099 153.001 47.7699H152.981ZM113.221 26.3799C113.492 26.3838 113.758 26.3071 113.986 26.1594C114.214 26.0118 114.392 25.7998 114.499 25.5504C114.606 25.3011 114.637 25.0255 114.587 24.7587C114.537 24.492 114.41 24.246 114.22 24.052C114.03 23.858 113.787 23.7247 113.521 23.6691C113.256 23.6135 112.98 23.638 112.728 23.7395C112.476 23.8411 112.26 24.0151 112.108 24.2395C111.955 24.4638 111.873 24.7285 111.871 24.9999C111.87 25.3607 112.012 25.7073 112.264 25.9652C112.516 26.2232 112.86 26.372 113.221 26.3799Z" fill="#EEC573"/>
</svg>
