<svg width="50" height="39" viewBox="0 0 50 39" fill="none" xmlns="http://www.w3.org/2000/svg">
<path d="M37.0113 23.8716C40.3221 24.2837 43.9713 23.8537 46.533 22.5816C49.9405 20.8974 49.9405 18.1383 46.533 16.4541C43.9471 15.182 40.2496 14.752 36.9388 15.182M12.9171 23.8716C9.6063 24.2837 5.95713 23.8537 3.39547 22.5816C-0.0120311 20.8974 -0.0120311 18.1383 3.39547 16.4541C5.9813 15.182 9.67879 14.752 12.9896 15.182M39.5005 10.8283C39.3555 10.8103 39.1863 10.8103 39.0413 10.8283C35.7063 10.7387 33.048 8.71409 33.048 6.20576C33.048 3.64367 35.8271 1.58325 39.283 1.58325C42.7388 1.58325 45.518 3.66159 45.518 6.20576C45.4938 8.71409 42.8355 10.7387 39.5005 10.8283ZM10.428 10.8283C10.573 10.8103 10.7421 10.8103 10.8871 10.8283C14.2221 10.7387 16.8805 8.71409 16.8805 6.20576C16.8805 3.64367 14.1013 1.58325 10.6455 1.58325C7.18963 1.58325 4.41046 3.66159 4.41046 6.20576C4.43463 8.71409 7.09297 10.7387 10.428 10.8283ZM25.0005 24.212C24.8555 24.1941 24.6863 24.1941 24.5413 24.212C21.2063 24.1224 18.548 22.0978 18.548 19.5895C18.548 17.0274 21.3271 14.967 24.783 14.967C28.2388 14.967 31.018 17.0453 31.018 19.5895C30.9938 22.0978 28.3355 24.1403 25.0005 24.212ZM17.968 29.8558C14.5605 31.5399 14.5605 34.2991 17.968 35.9833C21.8346 37.9003 28.1663 37.9003 32.033 35.9833C35.4405 34.2991 35.4405 31.5399 32.033 29.8558C28.1905 27.9566 21.8346 27.9566 17.968 29.8558Z" stroke="#063336" stroke-width="1.5" stroke-linecap="round" stroke-linejoin="round"/>
</svg>
