<svg width="394" height="338" viewBox="0 0 394 338" fill="none" xmlns="http://www.w3.org/2000/svg">
<path d="M279.1 94.7415C278.512 95.4034 277.885 96.0344 277.22 96.6315C277.149 96.7094 277.104 96.8044 277.09 96.9053C277.076 97.0061 277.094 97.1085 277.142 97.2002C277.19 97.2919 277.265 97.369 277.36 97.4223C277.454 97.4757 277.564 97.503 277.675 97.5009C280.07 96.1568 281.963 94.1799 283.106 91.8309C283.395 91.0371 282.053 90.319 281.619 91.1884C280.483 93.4753 276.188 93.6075 275.052 93.2484C274.896 93.1958 274.724 93.2021 274.573 93.2659C274.421 93.3297 274.304 93.4458 274.247 93.5886C274.189 93.7315 274.196 93.8894 274.266 94.0277C274.336 94.1659 274.462 94.2731 274.619 94.3258C276.057 94.7813 277.591 94.9236 279.1 94.7415ZM271.604 85.1026C270.632 85.8943 269.604 86.6266 268.527 87.295C268.324 87.4149 268.159 87.5805 268.047 87.7758C267.935 87.9711 267.88 88.1895 267.887 88.4101C267.887 89.0905 270.489 90.867 270.509 90.8859C270.618 90.9603 270.753 90.9969 270.889 90.9894C271.025 90.9818 271.153 90.9306 271.252 90.8448C271.351 90.759 271.413 90.644 271.429 90.5201C271.444 90.3963 271.411 90.2715 271.335 90.1678C271.191 89.9221 270.365 88.9959 269.848 88.3722C272.182 86.2365 273.235 85.5373 272.45 85.0081C272.318 84.9333 272.163 84.9019 272.009 84.9191C271.855 84.9363 271.712 85.001 271.604 85.1026ZM269.807 83.9496C270.633 83.6094 270.427 82.74 271.418 80.472C271.457 80.3901 271.478 80.302 271.48 80.2125C271.483 80.1231 271.465 80.0341 271.43 79.9508C271.394 79.8674 271.341 79.7912 271.274 79.7267C271.206 79.6621 271.125 79.6103 271.036 79.5743C270.946 79.5383 270.85 79.5188 270.752 79.5169C270.654 79.515 270.557 79.5307 270.466 79.5632C270.375 79.5957 270.292 79.6442 270.221 79.7061C270.151 79.768 270.094 79.842 270.055 79.9239C268.898 82.1352 267.99 82.5888 268.362 83.3637C268.406 83.4943 268.481 83.6146 268.581 83.7167C268.681 83.8188 268.803 83.9002 268.94 83.9556C269.076 84.0111 269.225 84.0392 269.374 84.0382C269.524 84.0371 269.671 84.007 269.807 83.9496ZM278.315 86.35C279.141 86.0098 278.955 85.1215 279.926 82.8724C280.005 82.7069 280.009 82.5194 279.938 82.3511C279.866 82.1827 279.724 82.0473 279.544 81.9746C279.363 81.9019 279.158 81.8979 278.974 81.9635C278.79 82.0291 278.642 82.1588 278.563 82.3242C277.613 84.2142 276.498 85.008 276.849 85.764C276.896 85.8953 276.973 86.0159 277.075 86.118C277.176 86.2201 277.3 86.3015 277.439 86.3568C277.577 86.4121 277.727 86.4401 277.878 86.4389C278.029 86.4377 278.178 86.4074 278.315 86.35ZM109.955 54.4846C108.964 47.7373 109.15 47.586 108.51 47.586C72.4137 47.586 74.3342 47.3592 74.3342 48.0585V54.3144C74.3342 54.579 74.5613 54.9004 74.8504 54.9004C111.38 55.0138 110.079 55.2028 109.955 54.4846ZM121.499 47.586C111.628 47.586 112.206 47.5861 111.979 47.7373C111.752 47.8885 111.793 47.605 112.743 54.598C112.743 55.1839 112.846 55.0137 121.499 55.0137C121.636 55.0137 121.767 54.964 121.864 54.8754C121.961 54.7867 122.015 54.6666 122.015 54.5412V48.0397C122.01 47.9176 121.953 47.8023 121.857 47.7177C121.76 47.6331 121.632 47.586 121.499 47.586ZM300.328 47.6995L287.236 48.531C287.172 48.531 287.108 48.5428 287.049 48.5658C286.99 48.5889 286.937 48.6226 286.892 48.665C286.848 48.7074 286.813 48.7575 286.791 48.8125C286.768 48.8674 286.758 48.926 286.761 48.9847V56.1288C286.761 56.2542 286.815 56.3743 286.912 56.463C287.009 56.5516 287.14 56.6013 287.277 56.6013H300.348C300.485 56.6013 300.617 56.5516 300.713 56.463C300.81 56.3743 300.865 56.2542 300.865 56.1288C300.865 48.0396 301.092 47.6806 300.328 47.6995ZM81.128 81.3414V75.7659C81.128 75.6406 81.0736 75.5205 80.9768 75.4318C80.88 75.3432 80.7487 75.2934 80.6118 75.2934H75.5525C75.4156 75.2934 75.2843 75.3432 75.1875 75.4318C75.0907 75.5205 75.0363 75.6406 75.0363 75.7659C75.0363 82.0218 75.0363 81.7194 75.2015 81.9084C75.3667 82.0974 75.2015 82.0596 80.6324 81.8139C80.764 81.8047 80.8873 81.7515 80.9788 81.6643C81.0702 81.5771 81.1233 81.4622 81.128 81.3414ZM110.616 74.0271C82.367 75.369 83.4202 75.0855 83.4202 75.7659C83.4202 81.5493 83.4202 81.2658 83.5647 81.4359C83.7093 81.606 82.1192 81.5871 110.637 81.2091C110.774 81.2091 110.905 81.1594 111.002 81.0708C111.099 80.9821 111.153 80.862 111.153 80.7366V74.4996C111.156 74.4352 111.144 74.3709 111.118 74.3109C111.092 74.251 111.052 74.1969 111.002 74.1522C110.951 74.1074 110.89 74.0732 110.824 74.0516C110.757 74.03 110.686 74.0217 110.616 74.0271ZM152.494 74.0083V79.4892C152.494 79.6146 152.549 79.7347 152.646 79.8234C152.742 79.912 152.874 79.9617 153.011 79.9617C160.114 79.9617 159.763 79.9617 159.99 79.7916C160.218 79.6215 160.176 79.7917 159.247 73.9327C159.247 73.3657 158.937 73.5358 153.052 73.5358C152.981 73.5305 152.909 73.5389 152.842 73.5603C152.774 73.5817 152.712 73.6156 152.66 73.66C152.608 73.7044 152.566 73.7583 152.537 73.8183C152.509 73.8782 152.494 73.9429 152.494 74.0083ZM182.912 79.8672C183.139 79.6215 183.077 79.8673 182.354 74.3107C182.354 73.7248 183.387 73.9327 163.129 73.5925C163.056 73.592 162.983 73.6058 162.916 73.633C162.849 73.6602 162.789 73.7002 162.74 73.7502C162.692 73.8003 162.655 73.8593 162.633 73.9234C162.611 73.9874 162.604 74.055 162.613 74.1216C163.398 80.0184 163.253 80.0184 163.873 80.0184C184.11 80.0184 182.685 80.1696 182.912 79.8672ZM186.67 79.9617C195.467 80.1885 194.93 80.2263 195.157 79.9617C195.384 79.6971 195.323 80.094 195.323 73.9515C195.317 73.8245 195.258 73.7043 195.158 73.6162C195.058 73.5281 194.925 73.479 194.786 73.479C185.204 73.8192 185.762 73.7247 185.555 73.9515C185.349 74.1783 185.411 73.9515 186.175 79.4892C186.183 79.6087 186.238 79.7215 186.329 79.8079C186.419 79.8943 186.54 79.9487 186.67 79.9617ZM83.3169 104.116C84.5353 97.1229 84.5353 97.5009 84.3081 97.2741C84.081 97.0473 84.432 97.0851 77.2045 97.4442C77.0749 97.4538 76.9539 97.5077 76.8659 97.5953C76.7778 97.6829 76.7292 97.7977 76.7296 97.9167V104.456C76.7296 104.581 76.784 104.702 76.8808 104.79C76.9776 104.879 77.1089 104.929 77.2458 104.929L82.9246 104.513C83.0275 104.493 83.121 104.444 83.1915 104.373C83.2621 104.302 83.306 104.212 83.3169 104.116ZM92.9811 103.7C92.9811 96.8394 92.9811 97.2174 92.8159 97.0095C92.6507 96.8016 92.9398 96.8772 87.2198 97.104C86.6209 97.104 86.7448 97.104 85.9395 103.643C85.9307 103.71 85.9375 103.778 85.9595 103.842C85.9814 103.906 86.0181 103.965 86.0669 104.015C86.1157 104.065 86.1757 104.105 86.2427 104.132C86.3098 104.159 86.3824 104.173 86.4557 104.173H92.4649C92.6018 104.173 92.7331 104.123 92.8299 104.034C92.9267 103.946 92.9811 103.825 92.9811 103.7ZM103.306 96.7638C103.306 103.606 103.306 103.228 103.451 103.436C103.595 103.643 100.539 103.738 154.146 101.035C154.218 101.031 154.288 101.013 154.352 100.982C154.416 100.952 154.472 100.909 154.516 100.857C154.561 100.806 154.594 100.746 154.612 100.682C154.63 100.619 154.633 100.552 154.621 100.487L153.3 92.7759C153.279 92.6573 153.21 92.5503 153.107 92.4766C153.003 92.4028 152.873 92.368 152.742 92.379C100.849 96.5748 103.306 96.0834 103.306 96.7638ZM171.864 99.8257C171.864 90.8482 171.864 91.3773 171.699 91.1694C171.534 90.9615 172.422 90.9237 156.728 92.3412C156.587 92.36 156.46 92.4272 156.371 92.5291C156.283 92.631 156.241 92.7598 156.253 92.8893C157.574 100.808 157.409 100.846 158.029 100.846L171.369 100.298C171.502 100.293 171.628 100.241 171.72 100.153C171.813 100.065 171.864 99.9478 171.864 99.8257ZM183.242 91.5096V99.5988C183.242 99.7242 183.297 99.8443 183.393 99.933C183.49 100.022 183.622 100.071 183.759 100.071H196.913C197.049 100.071 197.181 100.022 197.278 99.933C197.374 99.8443 197.429 99.7242 197.429 99.5988C197.429 90.3378 197.429 90.9615 197.264 90.7536C197.098 90.5457 198.069 90.5646 183.738 91.0371C183.605 91.042 183.478 91.094 183.386 91.1821C183.294 91.2701 183.242 91.3875 183.242 91.5096ZM249.281 68.0548C234.826 68.8675 235.301 68.6029 235.301 69.2455V76.5597C235.301 76.6851 235.355 76.8052 235.452 76.8939C235.549 76.9825 235.68 77.0322 235.817 77.0322H249.322C249.459 77.0322 249.59 76.9825 249.687 76.8939C249.784 76.8052 249.839 76.6851 249.839 76.5597C249.839 68.5272 250.066 68.017 249.281 68.0548ZM88.9131 129.536C89.5532 120.2 89.5739 120.956 89.3674 120.748C89.1609 120.54 89.9869 120.597 78.1751 120.597C78.0382 120.597 77.9068 120.647 77.81 120.735C77.7132 120.824 77.6588 120.944 77.6588 121.069V129.518C77.6588 129.643 77.7132 129.763 77.81 129.852C77.9068 129.94 78.0382 129.99 78.1751 129.99H88.3968C88.5288 129.986 88.6543 129.937 88.7496 129.853C88.8448 129.77 88.903 129.657 88.9131 129.536ZM116.068 120.068C115.935 120.072 115.808 120.124 115.716 120.212C115.624 120.301 115.572 120.418 115.572 120.54V127.703C115.572 127.828 115.627 127.949 115.723 128.037C115.82 128.126 115.952 128.176 116.088 128.176H124.225C124.361 128.176 124.493 128.126 124.59 128.037C124.686 127.949 124.741 127.828 124.741 127.703V120.257C124.735 120.13 124.677 120.009 124.576 119.921C124.476 119.833 124.343 119.784 124.204 119.784L116.068 120.068ZM163.79 118.612C125.856 119.519 127.797 119.425 127.797 120.105C127.797 128.138 127.797 127.665 127.942 127.873C128.086 128.081 125.877 128.1 163.831 127.268C163.963 127.259 164.086 127.206 164.178 127.119C164.269 127.032 164.322 126.917 164.327 126.796V119.085C164.33 119.02 164.318 118.956 164.292 118.896C164.266 118.836 164.226 118.782 164.175 118.737C164.124 118.693 164.064 118.658 163.997 118.637C163.931 118.615 163.86 118.607 163.79 118.612ZM196.747 118.442C195.88 126.229 195.859 125.756 196.087 126.002C196.314 126.248 194.992 126.153 212.483 126.153C212.569 126.161 212.655 126.148 212.734 126.117C212.814 126.086 212.883 126.037 212.937 125.975C212.99 125.913 213.026 125.84 213.04 125.762C213.055 125.684 213.048 125.604 213.02 125.53C211.202 117.686 211.388 117.648 210.769 117.667C196.314 117.97 196.809 117.856 196.747 118.442ZM216.922 126.059H222.87C223 126.059 223.125 126.015 223.221 125.934C223.317 125.853 223.375 125.743 223.386 125.624C224.253 116.949 224.274 117.497 224.026 117.27C223.778 117.044 224.398 117.1 214.754 117.629C214.68 117.636 214.608 117.656 214.543 117.69C214.479 117.724 214.423 117.771 214.38 117.827C214.336 117.882 214.307 117.946 214.293 118.013C214.279 118.08 214.282 118.149 214.3 118.215C216.571 126.286 216.365 126.059 216.922 126.059ZM137.358 44.3731C129.656 49.6462 128.582 50.1565 128.54 50.818C128.54 51.8197 132.67 55.2028 132.815 55.2406C132.93 55.298 133.062 55.3195 133.191 55.3018C133.32 55.284 133.44 55.228 133.531 55.1423C133.622 55.0566 133.681 54.946 133.697 54.8272C133.713 54.7084 133.686 54.5881 133.62 54.4846C132.98 53.7097 131.411 51.763 130.915 51.1204C131.927 50.2132 136.222 46.8868 138.246 45.4504C138.989 44.9212 138.101 43.8628 137.358 44.3731ZM166.516 43.8816C166.389 43.7905 166.23 43.7436 166.069 43.7492C165.908 43.7549 165.754 43.8129 165.635 43.9127C165.516 44.0126 165.439 44.1479 165.419 44.2945C165.399 44.4411 165.436 44.5895 165.525 44.7133C167.374 46.9735 169.051 49.3479 170.543 51.8197C170.543 52.0087 167.528 55.3729 166.309 57.0928C166.226 57.2043 166.192 57.3409 166.215 57.4744C166.238 57.608 166.316 57.7284 166.433 57.8109C166.55 57.8893 166.691 57.9315 166.836 57.9315C166.981 57.9315 167.122 57.8893 167.239 57.8109C168.395 56.6958 171.678 53.275 172.133 52.6324C173.372 50.7991 169.407 46.7544 166.516 43.8816ZM146.052 45.1858C145.688 45.0777 145.304 45.0419 144.924 45.0808C144.544 45.1196 144.178 45.2323 143.849 45.4112C143.521 45.5902 143.238 45.8312 143.019 46.1183C142.801 46.4053 142.652 46.7318 142.582 47.0758C142.416 48.5384 142.347 50.0091 142.376 51.4795H140.311C140.106 51.5086 139.92 51.6036 139.786 51.7475C139.651 51.8913 139.577 52.0744 139.577 52.2638C139.577 52.4532 139.651 52.6363 139.786 52.7801C139.92 52.924 140.106 53.019 140.311 53.0482L142.479 53.3506C142.465 54.3625 142.541 55.3739 142.706 56.3746C142.892 57.3952 144.462 57.1873 144.585 56.2423C144.668 55.3366 144.668 54.4263 144.585 53.5207C145.556 53.5207 146.506 53.5206 146.65 52.6512C146.795 51.7818 145.556 51.6495 144.585 51.5739C144.4 47.6427 144.833 47.0569 144.916 46.9624C145.473 46.5655 146.361 46.9624 145.535 48.1531C145.439 48.284 145.402 48.4442 145.433 48.5996C145.464 48.755 145.56 48.8932 145.701 48.9847C146.692 49.6651 148.282 46.1497 146.052 45.1858ZM152.804 51.2527C151.91 51.3092 151.013 51.3092 150.12 51.2527C149.944 51.2527 149.776 51.3164 149.652 51.4298C149.528 51.5432 149.459 51.697 149.459 51.8575C149.459 52.0179 149.528 52.1717 149.652 52.2851C149.776 52.3985 149.944 52.4623 150.12 52.4623L152.185 52.708C153.32 52.8592 152.701 52.4434 153.011 54.9571C153.011 55.2227 153.126 55.4775 153.331 55.6654C153.536 55.8532 153.815 55.9587 154.105 55.9587C154.395 55.9587 154.674 55.8532 154.879 55.6654C155.084 55.4775 155.2 55.2227 155.2 54.9571C155.188 54.3252 155.139 53.6943 155.055 53.0671H156.232C156.506 53.0671 156.769 52.9675 156.962 52.7903C157.156 52.613 157.265 52.3727 157.265 52.1221C157.265 51.8714 157.156 51.6311 156.962 51.4538C156.769 51.2766 156.506 51.1771 156.232 51.1771C154.518 51.1771 154.766 51.2905 154.725 50.9881C154.559 50.1187 154.394 49.2303 154.312 48.3609C154.312 48.2005 154.242 48.0467 154.118 47.9333C153.994 47.8199 153.826 47.7561 153.651 47.7561C153.476 47.7561 153.307 47.8199 153.184 47.9333C153.06 48.0467 152.99 48.2005 152.99 48.3609C152.887 49.5705 152.804 50.7991 152.804 51.2527Z" fill="#67A0A4"/>
<path d="M163.46 50.8746C163.354 50.0905 163.292 49.302 163.274 48.5121C163.246 48.3677 163.163 48.2368 163.041 48.1426C162.918 48.0483 162.763 47.9966 162.603 47.9966C162.442 47.9966 162.287 48.0483 162.165 48.1426C162.042 48.2368 161.959 48.3677 161.931 48.5121C161.931 49.3626 161.808 50.1564 161.725 51.0069C160.934 51.0519 160.141 51.0519 159.35 51.0069C159.167 51.0345 159 51.1209 158.879 51.2507C158.759 51.3805 158.692 51.5453 158.692 51.7157C158.692 51.886 158.759 52.0508 158.879 52.1807C159 52.3105 159.167 52.3969 159.35 52.4244C160.114 52.4244 160.816 52.5378 161.601 52.5945C161.436 54.2577 161.271 55.9398 162.654 55.9398C164.038 55.9398 163.873 54.2388 163.707 52.6701C164.843 52.6701 166.33 52.6701 166.289 51.6873C166.247 50.7045 164.657 50.7801 163.46 50.8746ZM121.499 61.9689C118.897 62.5926 117.369 64.9551 117.121 68.2626C117.018 71.0031 117.864 74.4807 115.242 76.0872C115.06 76.1987 114.918 76.3567 114.833 76.5415C114.749 76.7264 114.726 76.9299 114.767 77.1267C115.139 78.7899 118.401 76.4085 117.74 83.4771C117.491 84.3761 117.497 85.3185 117.757 86.2149C118.017 87.1113 118.523 87.9319 119.227 88.599C119.878 89.0212 120.626 89.3019 121.413 89.4198C122.2 89.5377 123.006 89.4897 123.77 89.2794C123.912 89.2461 124.038 89.1705 124.128 89.0644C124.218 88.9583 124.267 88.8278 124.267 88.6935C124.267 88.5592 124.218 88.4288 124.128 88.3227C124.038 88.2166 123.912 88.1409 123.77 88.1076C122.345 87.9186 120.693 88.1076 119.95 86.9925C119.32 85.4629 119.226 83.7915 119.682 82.2108C119.888 81.194 119.822 80.1464 119.487 79.1585C119.153 78.1706 118.56 77.2722 117.761 76.5408C121.292 72.5907 116.791 64.7472 121.891 63.1596C122.024 63.0856 122.126 62.9733 122.181 62.8405C122.237 62.7076 122.243 62.5617 122.198 62.4255C122.153 62.2894 122.06 62.1707 121.933 62.088C121.807 62.0054 121.654 61.9635 121.499 61.9689ZM147.415 63.3108C145.866 61.7421 143.698 62.4981 142.046 62.2335C141.949 62.2149 141.85 62.2138 141.753 62.2303C141.656 62.2469 141.564 62.2807 141.482 62.3298C141.399 62.3789 141.328 62.4425 141.273 62.5168C141.217 62.591 141.178 62.6746 141.158 62.7627C141.137 62.8508 141.136 62.9417 141.154 63.0303C141.172 63.1188 141.209 63.2032 141.263 63.2787C141.316 63.3541 141.386 63.4192 141.467 63.4701C141.548 63.521 141.64 63.5568 141.736 63.5754C143.47 63.8778 145.411 63.4242 146.134 64.8606C147.497 67.62 144.379 74.7453 147.063 77.7693C144.668 80.4342 147.518 84.6489 145.37 86.5578C144.565 87.2103 143.512 87.5494 142.438 87.5028C142.278 87.4769 142.113 87.5059 141.975 87.5842C141.837 87.6624 141.735 87.7846 141.689 87.9272C141.643 88.0698 141.656 88.223 141.726 88.3574C141.795 88.4918 141.916 88.598 142.066 88.6557C142.661 88.8321 143.289 88.8991 143.912 88.853C144.536 88.8068 145.143 88.6483 145.7 88.3866C146.256 88.125 146.751 87.7652 147.155 87.3281C147.559 86.8911 147.865 86.3852 148.055 85.8396C148.331 84.7325 148.331 83.5826 148.055 82.4754C147.373 77.9583 149.48 79.1868 149.521 77.8449C149.562 76.503 147.6 77.5425 147.951 73.6302C148.509 68.5083 149.232 65.1441 147.415 63.3108Z" fill="#EEC573"/>
<path d="M126.64 70.8712C125.981 70.8321 125.322 70.9595 124.735 71.2394C124.149 71.5193 123.658 71.9411 123.316 72.4588C122.83 72.8735 122.468 73.3953 122.266 73.9744C122.064 74.5535 122.027 75.1705 122.159 75.7663C122.613 76.6954 123.403 77.4529 124.397 77.9108C125.39 78.3687 126.525 78.4991 127.611 78.28C127.136 80.17 126.578 81.0394 123.915 80.548C123.729 80.5373 123.546 80.5872 123.397 80.6886C123.248 80.79 123.143 80.9364 123.101 81.1019C123.059 81.2673 123.082 81.4411 123.167 81.5923C123.252 81.7435 123.392 81.8623 123.564 81.9277C126 82.4569 128.313 81.9277 129.056 79.8109C131.369 74.5 129.056 71.3059 126.64 70.8712ZM125.876 76.5412C124.534 76.1065 124.204 75.5962 124.1 75.2182C123.997 74.8402 124.286 74.1598 124.864 73.5361C125.443 72.9124 125.814 72.4777 126.393 72.6856C128.581 73.5361 128.354 77.3917 125.876 76.5979V76.5412ZM136.429 75.4828C132.939 74.9158 130.791 78.6958 132.299 80.4724C133.023 81.1166 133.993 81.477 135.004 81.477C136.014 81.477 136.984 81.1166 137.709 80.4724C137.709 80.9449 137.709 81.4741 137.833 81.7576C137.837 81.8883 137.895 82.0128 137.994 82.1071C138.093 82.2013 138.227 82.2586 138.37 82.2679C138.514 82.268 138.653 82.2168 138.757 82.1252C138.861 82.0335 138.922 81.9085 138.927 81.7765C138.927 81.0583 139.299 77.8075 139.216 77.5807C139.013 77.0272 138.644 76.5371 138.151 76.1662C137.658 75.7953 137.061 75.5585 136.429 75.4828ZM137.254 77.7697C137.254 78.3367 136.49 79.2439 136.119 79.4329C135.086 79.9432 134.054 79.9054 133.806 79.5652C133.558 79.225 134.363 77.1271 135.623 77.1271C136.098 77.1271 137.151 77.3161 137.254 77.7697ZM258.656 47.7187C255.662 47.2273 252.853 50.7238 254.03 53.6722C254.305 54.5232 254.899 55.2584 255.707 55.7491C256.515 56.2397 257.486 56.4546 258.449 56.356C264.149 55.8079 262.972 48.4558 258.656 47.7187ZM258.449 54.4471C255.827 55.0141 254.898 51.9712 256.384 50.2135C256.585 49.9484 256.85 49.7289 257.157 49.5716C257.465 49.4144 257.808 49.3236 258.16 49.3063C258.654 49.3877 259.121 49.5736 259.522 49.8493C259.924 50.1249 260.249 50.4826 260.473 50.8939C260.719 51.6107 260.644 52.3875 260.265 53.0538C259.885 53.72 259.232 54.2211 258.449 54.4471ZM270.385 48.3235C270.199 49.6843 269.002 54.7495 268.981 56.0725C269.009 56.2898 269.115 56.4923 269.284 56.6479C269.452 56.8035 269.672 56.9033 269.909 56.9316C270.146 56.9598 270.386 56.9148 270.592 56.8036C270.798 56.6925 270.958 56.5217 271.046 56.3182C271.376 54.9952 271.583 49.7599 271.748 48.4558C271.913 47.6053 270.509 47.5108 270.385 48.3235ZM264.107 55.6945C263.981 55.6607 263.848 55.6526 263.717 55.6706C263.587 55.6887 263.462 55.7325 263.352 55.799C263.242 55.8656 263.149 55.9532 263.08 56.0559C263.011 56.1586 262.967 56.2739 262.951 56.3938C262.765 57.9436 260.741 58.4161 261.382 59.2288C261.47 59.3475 261.603 59.4323 261.755 59.4672C261.908 59.502 262.069 59.4844 262.208 59.4178C262.816 59.1656 263.359 58.8 263.804 58.3443C264.248 57.8887 264.584 57.3531 264.789 56.7718C264.823 56.6601 264.833 56.5432 264.817 56.4282C264.801 56.3131 264.76 56.2021 264.696 56.1017C264.633 56.0013 264.548 55.9135 264.447 55.8436C264.346 55.7737 264.23 55.723 264.107 55.6945ZM249.652 54.3148C249.652 53.8937 249.47 53.4899 249.144 53.1922C248.819 52.8944 248.378 52.7272 247.918 52.7272C247.458 52.7272 247.017 52.8944 246.691 53.1922C246.366 53.4899 246.183 53.8937 246.183 54.3148C246.183 54.7358 246.366 55.1397 246.691 55.4374C247.017 55.7351 247.458 55.9024 247.918 55.9024C248.378 55.9024 248.819 55.7351 249.144 55.4374C249.47 55.1397 249.652 54.7358 249.652 54.3148ZM199.576 78.6391C199.576 79.0601 199.759 79.4639 200.084 79.7617C200.41 80.0594 200.851 80.2267 201.311 80.2267C201.771 80.2267 202.212 80.0594 202.537 79.7617C202.863 79.4639 203.045 79.0601 203.045 78.6391C203.045 78.218 202.863 77.8142 202.537 77.5165C202.212 77.2187 201.771 77.0515 201.311 77.0515C200.851 77.0515 200.41 77.2187 200.084 77.5165C199.759 77.8142 199.576 78.218 199.576 78.6391ZM95.3143 127.42C95.3409 127.198 95.3161 126.974 95.2415 126.761C95.167 126.549 95.0444 126.353 94.8817 126.187C94.719 126.021 94.5199 125.888 94.2974 125.797C94.0748 125.706 93.8338 125.659 93.5901 125.659C93.3463 125.659 93.1053 125.706 92.8828 125.797C92.6602 125.888 92.4611 126.021 92.2984 126.187C92.1357 126.353 92.0131 126.549 91.9386 126.761C91.864 126.974 91.8392 127.198 91.8658 127.42C91.8392 127.642 91.864 127.866 91.9386 128.079C92.0131 128.291 92.1357 128.487 92.2984 128.653C92.4611 128.819 92.6602 128.952 92.8828 129.043C93.1053 129.134 93.3463 129.181 93.5901 129.181C93.8338 129.181 94.0748 129.134 94.2974 129.043C94.5199 128.952 94.719 128.819 94.8817 128.653C95.0444 128.487 95.167 128.291 95.2415 128.079C95.3161 127.866 95.3409 127.642 95.3143 127.42ZM107.498 126.078C107.498 126.499 107.681 126.903 108.006 127.201C108.331 127.498 108.772 127.666 109.232 127.666C109.692 127.666 110.134 127.498 110.459 127.201C110.784 126.903 110.967 126.499 110.967 126.078C110.967 125.657 110.784 125.253 110.459 124.955C110.134 124.658 109.692 124.49 109.232 124.49C108.772 124.49 108.331 124.658 108.006 124.955C107.681 125.253 107.498 125.657 107.498 126.078ZM187.93 122.374C187.5 122.417 187.102 122.603 186.813 122.898C186.524 123.193 186.364 123.575 186.364 123.971C186.364 124.367 186.524 124.749 186.813 125.043C187.102 125.338 187.5 125.525 187.93 125.568C188.36 125.525 188.757 125.338 189.046 125.043C189.335 124.749 189.495 124.367 189.495 123.971C189.495 123.575 189.335 123.193 189.046 122.898C188.757 122.603 188.36 122.417 187.93 122.374ZM208.105 79.5463C208.334 79.5515 208.562 79.5139 208.775 79.436C208.988 79.358 209.182 79.2413 209.344 79.0928C209.506 78.9444 209.634 78.7673 209.719 78.5723C209.804 78.3773 209.845 78.1686 209.839 77.9587C209.792 77.5651 209.588 77.2011 209.266 76.9368C208.944 76.6724 208.527 76.5262 208.094 76.5262C207.662 76.5262 207.244 76.6724 206.922 76.9368C206.6 77.2011 206.396 77.5651 206.349 77.9587C206.344 78.1702 206.385 78.3806 206.472 78.5769C206.558 78.7731 206.687 78.9511 206.852 79.0999C207.016 79.2486 207.212 79.365 207.428 79.4417C207.643 79.5185 207.874 79.5541 208.105 79.5463ZM96.8011 36.9835C97.1732 36.9437 97.5163 36.7802 97.7653 36.5241C98.0143 36.268 98.1519 35.9372 98.1519 35.5943C98.1519 35.2515 98.0143 34.9206 97.7653 34.6645C97.5163 34.4084 97.1732 34.245 96.8011 34.2052C96.4291 34.245 96.086 34.4084 95.837 34.6645C95.588 34.9206 95.4504 35.2515 95.4504 35.5943C95.4504 35.9372 95.588 36.268 95.837 36.5241C96.086 36.7802 96.4291 36.9437 96.8011 36.9835ZM104.421 36.9835C104.793 36.9437 105.136 36.7802 105.385 36.5241C105.634 36.268 105.772 35.9372 105.772 35.5943C105.772 35.2515 105.634 34.9206 105.385 34.6645C105.136 34.4084 104.793 34.245 104.421 34.2052C104.049 34.245 103.706 34.4084 103.457 34.6645C103.208 34.9206 103.07 35.2515 103.07 35.5943C103.07 35.9372 103.208 36.268 103.457 36.5241C103.706 36.7802 104.049 36.9437 104.421 36.9835ZM112.66 36.9646C113.032 36.9248 113.375 36.7613 113.625 36.5052C113.874 36.2491 114.011 35.9183 114.011 35.5754C114.011 35.2326 113.874 34.9017 113.625 34.6456C113.375 34.3895 113.032 34.2261 112.66 34.1863C112.288 34.2261 111.945 34.3895 111.696 34.6456C111.447 34.9017 111.31 35.2326 111.31 35.5754C111.31 35.9183 111.447 36.2491 111.696 36.5052C111.945 36.7613 112.288 36.9248 112.66 36.9646ZM105.082 114.662C105.136 114.562 105.16 114.451 105.153 114.34C105.146 114.228 105.107 114.12 105.04 114.027C104.973 113.934 104.881 113.858 104.773 113.807C104.664 113.756 104.543 113.731 104.421 113.736C103.884 113.736 103.781 114.247 103.368 114.984C100.497 120.2 96.6359 127.269 96.3468 128.214C96.2699 128.414 96.2794 128.633 96.3734 128.827C96.4673 129.021 96.6386 129.175 96.8523 129.257C97.0659 129.339 97.3057 129.343 97.5227 129.269C97.7396 129.194 97.9174 129.047 98.0195 128.856C98.7422 127.817 104.359 115.929 105.082 114.662ZM110.926 112.924C110.864 112.826 110.776 112.744 110.669 112.687C110.562 112.63 110.44 112.601 110.317 112.601C110.193 112.601 110.071 112.63 109.965 112.687C109.858 112.744 109.769 112.826 109.707 112.924C106.3 119.406 101.096 128.648 100.89 129.367C100.859 129.5 100.862 129.638 100.896 129.77C100.93 129.903 100.996 130.026 101.089 130.133C101.182 130.239 101.299 130.326 101.432 130.386C101.565 130.446 101.712 130.479 101.86 130.482C102.666 130.482 102.934 130.236 109.955 115.626C110.946 113.642 111.235 113.358 110.926 112.924ZM173.392 128.762C171.377 126.086 170.229 122.944 170.079 119.698C169.929 116.451 170.784 113.232 172.545 110.41C172.644 110.275 172.68 110.109 172.645 109.95C172.61 109.79 172.507 109.65 172.359 109.559C172.212 109.469 172.031 109.436 171.856 109.468C171.682 109.5 171.529 109.594 171.43 109.73C169.039 112.592 167.829 116.136 168.014 119.736C168.199 123.336 169.767 126.76 172.442 129.404C172.549 129.475 172.677 129.513 172.809 129.513C172.94 129.512 173.068 129.473 173.174 129.402C173.28 129.33 173.358 129.229 173.397 129.114C173.437 128.999 173.435 128.876 173.392 128.762Z" fill="#EEC573"/>
<path d="M190.552 108.406C189.106 108.917 192.162 110.485 191.687 119.501C191.274 127.061 188.197 129.461 188.693 130.217C188.746 130.287 188.817 130.344 188.9 130.384C188.983 130.424 189.075 130.444 189.168 130.444C189.261 130.444 189.353 130.424 189.436 130.384C189.519 130.344 189.59 130.287 189.643 130.217C191.846 127.045 193.162 123.425 193.475 119.678C193.788 115.93 193.089 112.17 191.44 108.728C191.367 108.578 191.233 108.461 191.067 108.401C190.901 108.341 190.716 108.343 190.552 108.406ZM173.949 119.142C170.604 121.334 173.433 124.812 176.84 123.942V129.064C176.84 129.839 175.973 130.236 175.456 129.574C175.357 129.452 175.211 129.368 175.047 129.34C174.884 129.312 174.715 129.342 174.574 129.423C174.433 129.504 174.331 129.631 174.288 129.778C174.244 129.925 174.264 130.082 174.341 130.217C174.588 130.587 174.957 130.876 175.395 131.042C175.832 131.207 176.317 131.241 176.777 131.138C177.237 131.035 177.649 130.8 177.954 130.468C178.259 130.136 178.44 129.723 178.471 129.291C178.471 128.686 179.111 120.408 178.265 119.406C178.002 119.127 177.681 118.898 177.321 118.734C176.961 118.569 176.569 118.472 176.167 118.447C175.766 118.422 175.363 118.471 174.982 118.59C174.601 118.709 174.25 118.897 173.949 119.142ZM176.365 120.332C176.589 120.542 176.729 120.814 176.762 121.106C176.796 121.397 176.722 121.691 176.551 121.939C176.097 122.392 174.486 122.241 174.259 121.485C174.032 120.729 175.622 119.86 176.365 120.332ZM182.643 118.82C181.932 118.95 181.287 119.289 180.807 119.785C180.326 120.281 180.035 120.907 179.979 121.569C179.923 122.23 180.104 122.89 180.496 123.448C180.887 124.006 181.467 124.432 182.147 124.66C182.709 124.853 183.325 124.874 183.902 124.721C184.478 124.568 184.986 124.248 185.348 123.81C185.422 123.691 185.451 123.553 185.431 123.418C185.411 123.283 185.343 123.157 185.237 123.06C185.132 122.964 184.994 122.902 184.847 122.883C184.699 122.865 184.548 122.892 184.419 122.959C183.861 123.262 181.899 123.262 181.755 121.788C181.721 121.495 181.786 121.2 181.941 120.943C182.096 120.686 182.334 120.478 182.622 120.348C182.911 120.218 183.235 120.173 183.553 120.217C183.87 120.261 184.165 120.394 184.398 120.597C184.543 120.722 184.737 120.79 184.936 120.784C185.135 120.779 185.324 120.701 185.461 120.568C185.598 120.436 185.672 120.258 185.666 120.076C185.66 119.893 185.576 119.72 185.43 119.595C185.068 119.271 184.625 119.031 184.14 118.896C183.655 118.761 183.141 118.735 182.643 118.82ZM84.266 37.4557C84.4703 37.5167 84.6904 37.5166 84.8946 37.4555C85.0988 37.3943 85.2765 37.2752 85.4018 37.1155C85.8767 36.5296 87.2396 31.162 87.6526 29.8768C87.7074 29.7139 87.6892 29.5378 87.6021 29.3871C87.515 29.2365 87.366 29.1237 87.188 29.0736C87.01 29.0234 86.8176 29.0401 86.653 29.1198C86.4884 29.1996 86.3652 29.3359 86.3104 29.4988C84.328 34.8097 82.6966 37.0021 84.266 37.4557ZM145.101 211.6C143.408 213.355 141.601 215.014 139.691 216.571C139.585 216.666 139.501 216.779 139.444 216.904C139.387 217.029 139.357 217.163 139.357 217.299C139.357 217.434 139.387 217.568 139.444 217.693C139.501 217.818 139.585 217.931 139.691 218.026C141.281 219.33 142.953 220.521 144.481 221.806C144.594 221.886 144.732 221.929 144.874 221.929C145.016 221.929 145.154 221.886 145.266 221.806C145.355 221.708 145.404 221.584 145.404 221.457C145.404 221.329 145.355 221.205 145.266 221.107C144.172 219.803 143.077 218.518 141.921 217.327C143.514 215.813 144.977 214.189 146.299 212.47C146.939 211.733 145.679 210.92 145.101 211.6ZM215.084 218.574C215.332 218.574 215.084 218.574 217.748 216.968C222.683 213.793 223.179 213.585 223.034 212.678C222.848 211.355 220.969 211.147 215.91 208.898C215.718 208.8 215.492 208.776 215.281 208.831C215.07 208.886 214.891 209.015 214.784 209.191C214.678 209.366 214.651 209.573 214.711 209.766C214.771 209.959 214.913 210.123 215.104 210.221C216.054 210.712 219.049 212.432 220.205 213.074C217.211 215.645 214.671 217.781 214.671 217.781C214.617 217.854 214.584 217.939 214.577 218.028C214.57 218.117 214.588 218.205 214.63 218.285C214.671 218.366 214.735 218.434 214.815 218.485C214.894 218.536 214.987 218.567 215.084 218.574ZM200.174 215.342C202.942 215.342 205.564 214.927 208.228 214.813C208.42 214.813 208.603 214.744 208.739 214.62C208.875 214.495 208.951 214.327 208.951 214.152C208.951 213.976 208.875 213.808 208.739 213.684C208.603 213.56 208.42 213.49 208.228 213.49C205.523 213.49 202.942 213.093 200.174 213.263C199.873 213.263 199.584 213.373 199.371 213.568C199.158 213.763 199.039 214.027 199.039 214.303C199.039 214.579 199.158 214.843 199.371 215.038C199.584 215.233 199.873 215.342 200.174 215.342ZM184.832 215.872C186.153 215.872 191.853 215.324 192.472 215.286C192.658 215.286 192.837 215.218 192.968 215.098C193.1 214.977 193.174 214.814 193.174 214.643C193.174 214.473 193.1 214.309 192.968 214.189C192.837 214.068 192.658 214.001 192.472 214.001C191.853 214.001 186.153 213.66 184.832 213.812C184.559 213.845 184.31 213.968 184.129 214.158C183.948 214.347 183.849 214.59 183.849 214.842C183.849 215.093 183.948 215.336 184.129 215.525C184.31 215.715 184.559 215.838 184.832 215.872ZM166.123 214.662C165.979 214.665 165.837 214.693 165.705 214.746C165.574 214.798 165.454 214.874 165.355 214.969C165.255 215.064 165.177 215.175 165.124 215.298C165.072 215.42 165.046 215.551 165.049 215.683C165.049 216.798 166.308 216.741 167.114 216.741C169.485 216.642 171.849 216.434 174.197 216.117C174.38 216.09 174.547 216.003 174.668 215.874C174.788 215.744 174.855 215.579 174.855 215.409C174.855 215.238 174.788 215.073 174.668 214.944C174.547 214.814 174.38 214.727 174.197 214.7C172.813 214.794 167.444 214.624 166.123 214.662ZM157.801 215.702C156.273 215.702 150.449 215.456 148.962 215.702C148.689 215.702 148.426 215.801 148.232 215.978C148.039 216.156 147.93 216.396 147.93 216.647C147.93 216.897 148.039 217.138 148.232 217.315C148.426 217.492 148.689 217.592 148.962 217.592C150.511 217.781 156.293 217.251 157.801 217.195C158.017 217.195 158.224 217.116 158.377 216.976C158.53 216.836 158.616 216.646 158.616 216.448C158.616 216.25 158.53 216.06 158.377 215.92C158.224 215.78 158.017 215.702 157.801 215.702ZM77.9265 8.91671C77.4477 8.37017 76.8251 7.94381 76.1171 7.67755C75.4092 7.41129 74.6389 7.31386 73.8786 7.39437C73.1182 7.47488 72.3927 7.73071 71.7698 8.13788C71.147 8.54506 70.6472 9.09027 70.3174 9.72243C69.9876 10.3546 69.8384 11.0531 69.884 11.7524C69.9295 12.4517 70.1683 13.1289 70.5778 13.7208C70.9874 14.3126 71.5544 14.7996 72.2256 15.1362C72.8969 15.4727 73.6506 15.6478 74.416 15.6451C75.2738 15.6574 76.1174 15.444 76.8465 15.0303C77.5757 14.6167 78.1599 14.0202 78.5295 13.3116C78.8992 12.6031 79.0389 11.8123 78.932 11.0333C78.8251 10.2542 78.4761 9.51959 77.9265 8.91671ZM76.7907 12.6967C76.5305 13.1411 76.125 13.5 75.631 13.7231C75.137 13.9463 74.5791 14.0226 74.0354 13.9414C73.4917 13.8602 72.9893 13.6255 72.5985 13.2702C72.2076 12.9149 71.9478 12.4567 71.8554 11.9596C71.7563 11.6031 71.7459 11.2307 71.825 10.87C71.9041 10.5093 72.0707 10.1695 72.3125 9.87558C72.5544 9.5817 72.8652 9.34127 73.2221 9.17203C73.579 9.0028 73.9729 8.90909 74.3747 8.89781C74.843 8.93398 75.2947 9.07412 75.6905 9.30609C76.0864 9.53807 76.4144 9.85487 76.6463 10.2291C76.8782 10.6033 77.0069 11.0236 77.0213 11.4535C77.0356 11.8835 76.9352 12.3102 76.7288 12.6967H76.7907ZM97.3788 9.38921C96.7836 8.67716 95.9499 8.16322 95.0052 7.92605C94.0606 7.68888 93.057 7.74155 92.1482 8.07599C91.2394 8.41043 90.4753 9.00823 89.9729 9.77788C89.4706 10.5475 89.2576 11.4466 89.3666 12.3376C89.4588 13.2303 89.8596 14.0728 90.5108 14.7426C91.1621 15.4125 92.0297 15.8748 92.9877 16.0624C93.9457 16.25 94.9441 16.1531 95.8377 15.7857C96.7314 15.4183 97.4738 14.7997 97.957 14.0197C98.3186 13.2704 98.4557 12.4465 98.354 11.6327C98.2524 10.8189 97.9158 10.0445 97.3788 9.38921ZM92.4228 9.78611C92.9387 9.47554 93.5585 9.34304 94.1714 9.41229C94.7842 9.48154 95.3502 9.74803 95.7681 10.1641C96.1529 10.5789 96.4001 11.0857 96.4806 11.6249C96.5611 12.164 96.4715 12.7129 96.2224 13.207C95.9587 13.6315 95.5619 13.9737 95.0832 14.1894C94.6046 14.405 94.0662 14.4842 93.5379 14.4166C92.9901 14.3317 92.4822 14.1 92.0783 13.7509C91.6745 13.4017 91.3928 12.9507 91.269 12.455C91.1452 11.9594 91.1849 11.4412 91.3829 10.9661C91.5809 10.491 91.9284 10.0804 92.3815 9.78611H92.4228ZM116.769 9.88061C116.291 9.33469 115.669 8.90866 114.962 8.64233C114.255 8.376 113.486 8.27807 112.726 8.3577C111.967 8.43732 111.242 8.69189 110.619 9.09763C109.996 9.50337 109.496 10.047 109.164 10.6778C108.833 11.3085 108.683 12.0058 108.726 12.7044C108.769 13.4031 109.005 14.0802 109.412 14.6727C109.819 15.2651 110.383 15.7534 111.052 16.0921C111.722 16.4307 112.473 16.6086 113.238 16.609C114.098 16.625 114.944 16.4143 115.676 16.0021C116.409 15.5899 116.996 14.9936 117.368 14.2843C117.74 13.5751 117.882 12.7827 117.776 12.0019C117.669 11.2211 117.32 10.4847 116.769 9.88061ZM115.613 13.6606C115.368 14.0204 115.026 14.3166 114.62 14.5208C114.214 14.725 113.757 14.8303 113.294 14.8267C112.831 14.8231 112.376 14.7107 111.974 14.5002C111.572 14.2897 111.236 13.9883 110.997 13.6247C110.759 13.2612 110.627 12.8477 110.613 12.4239C110.599 12.0001 110.705 11.5801 110.919 11.2044C111.134 10.8286 111.45 10.5095 111.838 10.2777C112.226 10.0459 112.673 9.90919 113.135 9.88061C113.613 9.89593 114.08 10.0205 114.492 10.243C114.904 10.4655 115.249 10.7788 115.496 11.1545C115.742 11.5301 115.882 11.9562 115.902 12.3939C115.923 12.8316 115.823 13.2671 115.613 13.6606Z" fill="#EEC573"/>
<path d="M292.873 41.3681C293.462 40.2671 293.733 39.0464 293.661 37.8224C293.589 36.5983 293.175 35.4115 292.46 34.3751C290.788 32.1071 287.422 32.1827 284.717 32.2394C276.353 32.4284 80.0337 26.9285 79.8272 26.9096C78.6299 26.6452 77.3676 26.8073 76.2961 27.3632C73.0127 29.5556 73.116 37.3613 76.8123 39.3269C77.9051 39.7777 79.1174 39.9288 80.3022 39.7616L286.472 44.8079C287.776 44.804 289.055 44.4835 290.18 43.8792C291.305 43.2749 292.234 42.4084 292.873 41.3681ZM91.4945 29.3099C90.3706 31.708 89.4389 34.1778 88.7067 36.6998C88.7011 36.8121 88.7205 36.9243 88.7636 37.0296C88.8068 37.1349 88.8728 37.2311 88.9578 37.3124C89.0427 37.3937 89.1448 37.4583 89.2578 37.5025C89.3708 37.5466 89.4924 37.5693 89.6153 37.5692C90.5446 37.5692 90.7098 36.7943 92.114 32.1449C92.878 29.5367 93.0845 29.4611 92.7128 29.102C122.304 29.9525 286.368 34.1294 286.699 34.1483C289.239 34.1483 290.622 34.8665 291.18 36.2084C291.601 37.1135 291.717 38.1128 291.515 39.0789C291.313 40.045 290.801 40.934 290.044 41.6327C289.132 42.2182 288.102 42.6331 287.014 42.8536C285.927 43.0742 284.802 43.096 283.705 42.9179C271.666 42.5399 78.3817 38.0228 78.1752 37.985C75.4701 37.3802 75.2429 31.5401 76.8949 29.2532C77.4938 28.4405 78.4024 28.4783 79.8272 28.6484C93.2497 29.2532 91.6803 28.8185 91.4945 29.3099ZM159.474 141.67C159.474 139.78 161.209 140.612 85.1343 142.483C84.6977 142.455 84.26 142.522 83.8577 142.68C83.4554 142.838 83.1001 143.081 82.8215 143.39C82.0368 144.468 83.3997 202.377 83.441 202.925C83.4516 203.164 83.5629 203.39 83.7515 203.556C83.9402 203.721 84.1915 203.814 84.4528 203.814C84.4528 203.814 92.5683 203.549 99.6719 203.36C162.014 201.716 161.209 200.903 161.147 200.128C160.982 198.673 159.495 142.672 159.474 141.67ZM84.5354 144.694C84.5354 144.562 84.9278 144.449 85.1343 144.43C87.8807 144.43 154.973 142.54 157.409 142.54C157.595 148.21 159.33 196.443 159.474 199.372C148.86 199.996 93.2084 201.791 85.4853 201.942C84.267 186.501 84.4115 145.828 84.5354 144.694Z" fill="#67A0A4"/>
<path d="M88.0666 197.047C89.6773 195.97 119.93 172.685 120.941 171.929C128.933 177.769 151.4 194.193 156.191 197.747C156.934 198.295 157.884 197.312 157.162 196.745C148.612 190.243 126.889 174.065 122.49 170.739C124.555 169.264 150.512 149.382 153.816 146.943C154.518 146.395 153.61 145.45 152.887 145.961C144.359 152.235 124.225 167.11 120.879 169.586C114.478 164.955 93.8073 150.383 88.8307 147.095C88.6926 147.021 88.53 146.996 88.3732 147.024C88.2163 147.051 88.0757 147.13 87.9775 147.245C87.8792 147.361 87.8299 147.505 87.8387 147.651C87.8475 147.797 87.9138 147.935 88.0253 148.04C95.1083 153.332 118.794 170.379 119.331 170.72C112.558 175.879 89.223 193.853 87.0341 195.876C86.8644 196.001 86.7559 196.183 86.7327 196.381C86.7094 196.58 86.7733 196.779 86.9102 196.934C87.0471 197.089 87.2459 197.189 87.4628 197.21C87.6796 197.231 87.8969 197.173 88.0666 197.047ZM236.045 190.413C229.209 185.273 215.002 173.97 212.297 171.816C218.347 166.94 237.077 151.026 240.835 147.888C240.975 147.768 241.057 147.602 241.062 147.427C241.068 147.251 240.998 147.081 240.866 146.953C240.735 146.825 240.553 146.75 240.362 146.745C240.17 146.74 239.984 146.804 239.844 146.925C237.056 149.287 211.636 169.926 210.81 170.606C207.465 167.941 181.136 146.641 180.104 145.847C179.975 145.756 179.813 145.711 179.65 145.722C179.487 145.733 179.334 145.799 179.221 145.907C179.108 146.015 179.043 146.158 179.038 146.307C179.033 146.457 179.089 146.603 179.195 146.717C180.909 148.323 204.636 168.3 209.158 171.948C206.742 173.838 182.809 193.211 180.248 195.29C180.153 195.359 180.084 195.454 180.054 195.562C180.023 195.67 180.032 195.784 180.079 195.887C180.126 195.989 180.208 196.075 180.313 196.131C180.418 196.187 180.54 196.21 180.661 196.197C181.632 196.197 208.683 174.651 210.583 173.139C215.105 176.635 231.006 188.486 235.012 191.415C235.838 191.944 236.788 190.98 236.045 190.413ZM32.4149 282.778C32.4149 282.778 88.6448 279.829 89.6567 279.754C89.8179 279.743 89.9741 279.698 90.1128 279.622C90.2514 279.546 90.3687 279.441 90.4551 279.316C90.5414 279.191 90.5945 279.049 90.6101 278.902C90.6257 278.755 90.6032 278.606 90.5446 278.469C90.6479 265.995 92.0727 242.559 91.2054 241.349C90.9244 241.034 90.5546 240.795 90.1361 240.659C89.7175 240.522 89.2661 240.493 88.8307 240.574L32.7246 243.107C32.4616 243.116 32.2124 243.217 32.0282 243.39C31.8439 243.562 31.7385 243.792 31.7334 244.033C31.3824 251.46 30.6596 281.304 30.8455 281.833C30.9412 282.136 31.1519 282.397 31.4396 282.57C31.7273 282.744 32.0732 282.817 32.4149 282.778ZM89.4708 242.861C89.4708 244.411 89.3676 251.045 88.6861 277.902C83.0074 278.109 34.0875 280.774 32.9311 280.831C32.9311 276.843 33.6332 249.419 33.8191 244.921L88.9546 242.388C89.0899 242.393 89.2182 242.444 89.314 242.532C89.4097 242.62 89.4657 242.737 89.4708 242.861ZM108.551 277.561C108.82 278.45 109.749 278.487 110.72 278.412C170.852 274.14 167.755 275.634 168.168 274.934C168.333 274.632 168.023 276.182 168.746 256.412C168.746 253.974 169.552 237.947 168.891 237.021C168.613 236.702 168.243 236.461 167.824 236.324C167.404 236.187 166.951 236.16 166.516 236.246C166.227 236.246 113.28 238.627 110.431 238.779C110.164 238.783 109.91 238.882 109.721 239.055C109.532 239.228 109.424 239.461 109.419 239.705C109.088 246.679 108.345 276.919 108.551 277.561ZM110.616 276.503C110.616 272.402 111.339 244.921 111.504 240.593L166.929 238.06C167.404 238.06 167.404 235.282 166.433 273.536C160.693 273.762 111.835 276.427 110.554 276.503H110.616ZM180.269 272.95C180.558 273.819 181.467 273.857 182.458 273.781C242.591 269.491 239.493 271.003 239.906 270.304C240.071 270.02 239.762 271.457 240.484 251.801C240.484 249.306 241.29 233.354 240.629 232.39C240.351 232.072 239.981 231.831 239.562 231.694C239.142 231.557 238.689 231.53 238.254 231.615L182.169 234.148C181.902 234.153 181.648 234.252 181.459 234.425C181.27 234.597 181.162 234.83 181.157 235.074C180.806 242.407 180.083 272.25 180.269 272.95ZM183.181 236L238.605 233.468C239.08 233.468 239.059 230.727 238.11 268.943C232.431 269.132 183.49 271.797 182.355 271.872C182.293 271.608 182.995 240.555 183.181 235.925V236Z" fill="#C6ECCF"/>
<path d="M86.5175 243.768C80.3225 248.172 64.1535 258.699 61.8614 260.23C59.9822 259.191 38.816 247.586 36.5238 246.282C36.376 246.194 36.1961 246.164 36.0238 246.197C35.8514 246.231 35.7008 246.326 35.6049 246.461C35.5091 246.597 35.4759 246.761 35.5127 246.919C35.5495 247.077 35.6532 247.215 35.8011 247.302C38.8779 249.192 56.1207 259.209 60.0235 261.44C58.7845 262.252 37.577 276.219 36.3173 277.164C36.2088 277.244 36.1303 277.352 36.0929 277.475C36.0556 277.597 36.0613 277.727 36.1093 277.846C36.1573 277.966 36.2452 278.068 36.3603 278.139C36.4755 278.21 36.6122 278.246 36.751 278.242C37.4531 278.242 61.531 262.952 62.0885 262.574C66.9413 265.163 84.3492 274.027 86.2697 274.953C86.393 275.025 86.541 275.054 86.6855 275.033C86.8301 275.012 86.9613 274.943 87.0544 274.84C87.1152 274.71 87.1279 274.566 87.0906 274.43C87.0533 274.293 86.9681 274.172 86.8479 274.084C79.1661 269.926 71.4017 265.617 63.8851 261.44C68.3661 258.397 87.3435 244.845 87.3435 244.845C87.4996 244.745 87.6058 244.592 87.6387 244.42C87.6716 244.249 87.6286 244.072 87.519 243.929C87.4095 243.786 87.2424 243.689 87.0546 243.659C86.8668 243.629 86.6736 243.668 86.5175 243.768ZM165.256 238.93C163.645 239.969 138.845 255.732 136.965 256.96C132.484 254.144 117.905 244.845 114.622 242.521C113.92 242.029 113.073 243.031 113.755 243.522C119.31 247.529 132.03 256.167 135.107 258.189C130.502 261.326 115.014 271.116 112.062 273.8C111.988 273.865 111.937 273.949 111.915 274.04C111.894 274.132 111.902 274.227 111.94 274.314C111.977 274.401 112.042 274.476 112.127 274.529C112.211 274.583 112.31 274.612 112.413 274.613C112.702 274.613 114.209 273.838 136.842 259.285C141.901 262.347 158.256 271.268 161.931 273.063C162.045 273.107 162.171 273.112 162.289 273.078C162.406 273.044 162.506 272.972 162.571 272.876C162.635 272.781 162.661 272.667 162.642 272.556C162.623 272.444 162.562 272.343 162.468 272.269C159.412 270.379 140.228 259.039 138.721 258.057C142.438 255.656 164.492 240.839 165.979 239.856C166.113 239.768 166.203 239.635 166.231 239.486C166.258 239.338 166.219 239.185 166.123 239.062C166.027 238.939 165.882 238.856 165.72 238.832C165.557 238.807 165.39 238.842 165.256 238.93ZM211.636 251.517C216.757 254.655 232.286 264.577 235.631 266.921C235.7 266.974 235.78 267.014 235.866 267.039C235.953 267.065 236.043 267.074 236.134 267.067C236.224 267.06 236.311 267.037 236.392 266.999C236.472 266.961 236.543 266.908 236.602 266.845C236.66 266.782 236.704 266.709 236.732 266.63C236.759 266.551 236.769 266.468 236.761 266.385C236.754 266.303 236.728 266.222 236.687 266.149C236.645 266.075 236.588 266.01 236.519 265.957C233.855 264.067 217.438 252.84 213.577 250.345C215.642 249.117 234.661 237.115 236.932 235.736C237.011 235.691 237.079 235.633 237.133 235.564C237.187 235.495 237.226 235.417 237.247 235.335C237.268 235.252 237.271 235.167 237.256 235.083C237.241 234.999 237.208 234.919 237.159 234.847C237.11 234.775 237.047 234.713 236.971 234.664C236.896 234.614 236.811 234.579 236.721 234.559C236.631 234.54 236.537 234.537 236.446 234.551C236.355 234.565 236.267 234.595 236.189 234.639C234.33 235.755 212.648 248.323 211.409 249.06C207.134 246.603 192.824 238.93 188.983 237.304C188.835 237.239 188.665 237.231 188.51 237.28C188.355 237.33 188.228 237.434 188.157 237.569C187.702 238.363 187.806 237.796 209.468 250.232C203.417 254.012 184.688 266.165 182.788 267.525C182.684 267.624 182.617 267.75 182.594 267.885C182.572 268.021 182.597 268.159 182.664 268.281C182.752 268.4 182.887 268.484 183.04 268.516C183.194 268.547 183.354 268.524 183.49 268.452C185.72 267.28 211.636 251.517 211.636 251.517Z" fill="#C6ECCF"/>
<path d="M392.675 306.308C390.403 305.836 378.22 304.324 314.473 295.724C313.127 293.992 312.082 292.079 311.375 290.054C311.107 284.384 309.517 266.392 309.001 262.876C307.968 255.883 305.883 248.89 306.048 241.689C308.257 241.255 310.446 240.782 312.553 240.253C312.732 240.201 312.889 240.097 313.001 239.958C313.112 239.819 313.172 239.651 313.172 239.478C313.2 232.411 312.633 225.354 311.479 218.367C314.948 214.851 314.824 208.236 314.7 202.85C314.7 197.936 314.886 194.496 314.865 161.27C321.205 156.715 319.759 146.603 318.995 141.463C320.833 140.291 320.916 140.291 320.936 140.007C320.778 138.164 320.361 136.348 319.697 134.602C319.26 133.686 318.62 132.862 317.818 132.183C318.52 131.238 318.644 131.162 318.5 130.86C317.323 128.648 316.435 127.08 315.278 125.398V108.822C318.985 109.196 322.719 108.388 325.851 106.535C325.964 106.48 326.051 106.389 326.095 106.278C326.138 106.168 326.135 106.046 326.086 105.938C326.037 105.829 325.946 105.741 325.83 105.691C325.714 105.641 325.582 105.632 325.459 105.666C322.65 106.29 320.627 105.987 319.429 104.74C316.476 101.716 318.871 93.74 320.048 90.905C322.816 83.8364 326.243 83.5907 327.069 78.5066C327.539 74.8427 326.65 71.1407 324.545 67.9944C322.441 64.8482 319.243 62.4401 315.464 61.1564C315.464 61.0052 316.022 32.3339 316.042 31.4456C316.249 23.2997 316.517 12.1487 306.564 8.46323C304.318 7.77538 301.947 7.49922 299.584 7.65053C299.151 7.65053 80.9628 1.26233 79.4347 1.16783C75.3123 0.734214 71.1449 0.810498 67.0447 1.39463C56.7197 3.43583 56.5751 12.7346 56.5132 18.7826C56.5132 19.2929 56.6371 72.0617 56.7197 122.279C49.7606 122.128 22.0277 122.09 16.225 122.279C11.331 122.279 7.05644 122.6 4.33064 124.509C2.99976 125.472 1.92001 126.694 1.16989 128.087C0.419773 129.48 0.0181245 131.008 -0.00585938 132.561C-0.00585938 151.064 2.05914 262.082 0.944041 299.051C0.799491 303.851 3.15359 307.631 7.13904 308.746C4.68169 311.789 7.13904 315.248 10.6495 316.684C37.8456 322.052 116.749 337.474 122.986 337.474C126.186 337.474 286.864 323.167 382.948 314.681C388.483 314.681 393.955 312.092 393.273 307.405C393.026 306.271 393.026 306.384 392.675 306.308ZM306.75 261.61C308.03 270.89 308.443 280.321 309.207 289.657C307.079 290.4 304.727 290.4 302.599 289.657C296.404 278.903 286.595 264.313 288.144 251.631C288.619 247.548 288.805 245.753 286.265 242.351C288.475 242.218 290.725 242.029 293.08 241.689C293.513 241.689 293.678 241.689 295.145 234.318C298.098 242.634 298.098 243.201 298.82 243.05L304.148 242.011C303.88 248.644 305.759 255.127 306.75 261.61ZM246.06 306.743C248.992 309.654 257.087 305.42 260.742 303.247C260.822 303.203 260.887 303.138 260.927 303.061C260.967 302.983 260.982 302.897 260.969 302.812C260.904 302.418 260.93 302.017 261.043 301.633C261.157 301.249 261.357 300.891 261.63 300.582C261.684 300.508 261.754 300.444 261.835 300.395C261.917 300.347 262.009 300.314 262.105 300.298C262.435 300.298 263.075 300.846 263.385 301.886C263.695 302.925 266.668 302.302 267.515 301.886C267.866 301.697 267.887 301.735 267.515 296.216C276.931 297.822 295.496 300.752 302.207 301.886C302.413 302.698 302.62 303.492 302.847 304.248C280.132 306.138 121.499 319.104 117.513 319.368C115.18 318.877 67.3751 311.071 65.7024 310.807C109.191 307.537 222.787 299.032 252.895 296.669C248.889 302.188 245.481 302.906 245.337 303.549C245.159 304.094 245.132 304.672 245.258 305.229C245.384 305.787 245.66 306.307 246.06 306.743ZM242.549 228.516C230.779 228.875 78.1544 233.827 68.9858 231.748C61.5931 230.897 58.1239 225.057 58.6608 214.398C58.7847 208.728 58.2684 43.088 58.1652 21.1262C91.7421 22.5248 292.316 27.6467 314.039 27.8168C314.039 31.3133 313.688 48.6068 313.461 60.5327C306.564 58.9073 298.036 60.3248 299.275 66.524C299.296 66.6265 299.354 66.7195 299.44 66.7886C300.22 67.3469 300.872 68.042 301.355 68.8332C301.839 69.6245 302.146 70.496 302.257 71.397C302.369 72.2979 302.283 73.2102 302.005 74.0805C301.727 74.9507 301.262 75.7615 300.637 76.4654C300.142 76.9946 301.525 79.3004 300.865 87.3896C299.977 98.2571 306.068 106.29 313.027 108.274C313.027 110.731 312.924 119.879 312.924 122.033C305.676 111.695 301.856 109.9 289.796 102.736C289.177 102.358 289.156 103.36 291.386 95.5922C292.814 95.173 294.12 94.4665 295.21 93.5246C296.3 92.5827 297.145 91.4292 297.685 90.149C298.14 85.7489 298.14 81.3192 297.685 76.919C298.235 75.2362 298.363 73.4612 298.059 71.7267C297.755 69.9921 297.027 68.3429 295.929 66.902C294.043 63.9858 291.205 61.6852 287.814 60.3248C281.226 57.7922 275.114 60.3248 269.704 62.4983C263.509 65.1632 263.88 66.7697 264.645 72.9311C264.653 73.4225 264.787 73.9052 265.034 74.3414C265.281 74.7776 265.636 75.1553 266.069 75.4448C264.624 79.8863 262.538 88.07 264.108 92.4548C264.709 94.0277 265.649 95.474 266.873 96.7078C268.097 97.9416 269.579 98.9376 271.232 99.6368C271.087 100.204 270.778 101.262 270.55 102.056C269.539 101.81 267.68 101.395 266.586 101.168C259.627 98.2004 253.308 94.8173 246.163 95.4977C245.61 95.5694 245.086 95.7641 244.635 96.0647C243.589 95.1448 242.363 94.4138 241.021 93.9101C239.906 92.0201 221.362 64.8041 221.135 64.4828C220.206 63.1409 219.421 61.9691 220.102 60.6083C220.784 59.2475 222.601 56.8283 222.395 54.8249L239.328 54.7304C239.875 54.7304 240.401 54.5313 240.788 54.1769C241.175 53.8224 241.393 53.3417 241.393 52.8404V47.624C241.393 47.1228 241.175 46.642 240.788 46.2876C240.401 45.9332 239.875 45.734 239.328 45.734H177.915C177.367 45.734 176.842 45.9332 176.454 46.2876C176.067 46.642 175.85 47.1228 175.85 47.624V53.7098C175.85 54.2111 176.067 54.6918 176.454 55.0463C176.842 55.4007 177.367 55.5998 177.915 55.5998L201.228 55.3919C203.498 58.9848 206.884 61.8793 210.955 63.7079C211.822 64.1237 211.739 64.1804 213.412 72.2885C216.138 85.3484 218.946 98.8619 227.867 109.654C227.702 110.032 227.578 110.41 227.433 110.788C227.391 110.914 227.381 111.047 227.406 111.177C227.431 111.307 227.489 111.429 227.576 111.535C227.663 111.64 227.775 111.725 227.905 111.782C228.035 111.84 228.177 111.868 228.321 111.865C229.004 111.847 229.683 111.963 230.313 112.204C230.943 112.445 231.51 112.807 231.976 113.264C231.625 116.949 232.41 118.934 237.18 122.203C238.378 123.016 246.452 127.042 248.579 128.062C247.629 131.502 246.824 135.018 246.06 138.552C224.398 139.213 177.006 139.61 175.85 140.442C175.505 140.691 175.228 141.011 175.042 141.375C174.856 141.739 174.764 142.138 174.776 142.54C174.445 150.1 173.743 193.267 173.805 195.252C173.805 199.032 174.487 201.338 178.885 200.922C182.086 200.922 221.651 199.996 237.882 199.618C237.634 202.113 237.552 202.15 237.882 202.358C239.739 203.649 241.839 204.616 244.077 205.212C242.608 212.902 242.089 220.719 242.528 228.516H242.549ZM279.1 113.812C274.164 114.341 266.338 113.623 264.934 109.465C264.397 107.575 266.358 104.192 267.412 103.02L271.005 103.795C271.224 103.841 271.453 103.808 271.646 103.702C271.839 103.596 271.979 103.426 272.037 103.228C272.306 102.169 272.636 101.035 272.863 100.204C273.669 100.45 274.536 100.752 274.722 100.053C274.744 99.9782 274.749 99.9005 274.738 99.8241C274.727 99.7476 274.7 99.6739 274.657 99.6072C274.615 99.5405 274.559 99.4821 274.492 99.4352C274.425 99.3884 274.349 99.3542 274.267 99.3344C268.072 97.7657 264.706 92.1902 266.007 85.7075C266.656 81.4341 267.58 77.1994 268.775 73.0256C270.572 74.8713 272.979 76.1287 275.63 76.6064C278.28 77.0841 281.029 76.7558 283.457 75.6716C282.942 79.1322 283.24 82.6534 284.329 86.0004C285.419 89.3475 287.276 92.4434 289.776 95.0819C287.36 102.642 287.277 102.642 287.896 103.474C288.516 104.305 290.602 105.099 292.976 106.762C289.427 110.563 284.501 113.066 279.1 113.812ZM279.1 117.214C278.026 117.214 279.1 115.418 279.987 115.418C280.875 115.418 279.802 117.157 279.1 117.214ZM272.76 116.741C272.76 117.724 270.695 118.461 269.952 117.97C269.208 117.478 270.344 116.326 271.459 116.08C271.725 116.016 272.007 116.049 272.246 116.172C272.485 116.296 272.662 116.5 272.739 116.741H272.76ZM265.822 115.021C265.737 115.089 265.636 115.137 265.527 115.162C265.418 115.187 265.304 115.187 265.194 115.163C265.085 115.139 264.984 115.091 264.899 115.024C264.814 114.956 264.748 114.871 264.706 114.776C264.479 113.774 266.111 113.226 266.441 113.623C266.771 114.02 266.524 114.473 265.801 115.021H265.822ZM296.446 143.938C296.579 143.989 296.693 144.076 296.77 144.187C296.848 144.299 296.886 144.43 296.879 144.562C296.841 144.69 296.762 144.803 296.651 144.888C296.54 144.972 296.403 145.024 296.26 145.035C290.065 144.524 285.418 140.839 284.138 133.827C284.105 133.669 284.142 133.506 284.241 133.373C284.34 133.24 284.492 133.148 284.665 133.118C284.837 133.088 285.016 133.122 285.161 133.212C285.306 133.303 285.406 133.442 285.439 133.6C286.108 136.059 287.477 138.311 289.407 140.127C291.337 141.943 293.758 143.258 296.425 143.938H296.446ZM215.498 55.2785C215.621 55.751 214.155 55.9211 212.875 59.153C212.842 59.3017 212.87 59.4561 212.953 59.5875C213.035 59.7189 213.168 59.8182 213.324 59.8668C213.481 59.9154 213.652 59.9101 213.805 59.8518C213.958 59.7935 214.083 59.6862 214.155 59.5499C215.25 56.8283 217.81 57.3386 217.315 55.1273C216.344 50.837 217.501 48.6257 219.111 49.0604C219.421 49.0604 219.256 52.8404 220.268 53.8043C222.064 55.6943 218.802 58.5293 218.203 60.6272C218.037 61.3112 218.044 62.0208 218.223 62.7019C218.402 63.3831 218.748 64.018 219.235 64.5584C219.628 65.1065 238.151 92.4926 239.39 94.2692C235.025 98.1981 231.366 102.733 228.548 107.707C218.554 94.7984 216.592 78.5633 213.226 63.7457C212.809 62.9439 212.069 62.3208 211.161 62.0069C207.956 60.4854 205.259 58.1999 203.355 55.3919L215.498 55.2785ZM239.513 96.4994C240.443 95.5544 240.546 95.3654 240.897 95.441C241.742 95.8308 242.533 96.3131 243.251 96.8774C240.814 98.6351 234.144 105.723 232.389 111.147C231.509 110.6 230.495 110.262 229.436 110.164C231.336 104.91 235.507 100.639 239.513 96.4994ZM238.068 197.955C221.341 198.219 179.257 199.297 176.614 198.937C175.85 198.314 175.891 196.934 175.911 195.819C175.911 195.611 176.49 145.507 176.799 142.294C176.799 141.652 171.678 141.935 245.605 140.272C241.93 158.51 240.112 178.318 238.068 197.955ZM245.667 205.666C247.906 206.042 250.201 206.042 252.44 205.666C252.55 205.651 252.651 205.604 252.729 205.533C252.807 205.461 252.858 205.369 252.874 205.269C257.128 184.101 253.163 182.589 257.004 144.165C259.069 122.638 262.167 115.532 261.547 114.832C258.202 111.052 260.267 106.951 264.521 104.173C262.456 107.575 263.034 110.334 264.686 112.054C264.17 112.229 263.73 112.552 263.43 112.975C263.13 113.397 262.987 113.897 263.022 114.399C263.057 114.902 263.267 115.381 263.623 115.765C263.978 116.15 264.46 116.419 264.996 116.533C265.743 116.578 266.481 116.36 267.06 115.925C267.639 115.49 268.016 114.87 268.114 114.19C268.753 114.428 269.409 114.63 270.075 114.795C267.288 116.307 267.37 119.633 270.633 119.633C271.557 119.688 272.47 119.421 273.187 118.884C273.904 118.347 274.371 117.581 274.495 116.741C274.495 114.719 272.182 115.532 277.324 115.418C275.362 119.066 280.752 119.935 281.846 116.401C282.037 115.912 282.037 115.378 281.846 114.889C291.386 112.999 286.162 109.578 281.846 124.453C278.439 136.057 279.781 149.892 281.578 159.55C279.2 161.262 276.989 163.159 274.97 165.22C272.615 160.703 271.604 158.662 271.087 157.773C270.571 156.885 270.55 157.093 270.261 157.168C269.167 157.509 266.235 158.567 263.426 159.644C264.603 148.096 265.285 141.009 267.556 124.093C267.57 123.946 267.522 123.8 267.423 123.684C267.324 123.567 267.181 123.489 267.022 123.465C266.863 123.442 266.7 123.474 266.565 123.555C266.431 123.636 266.335 123.761 266.297 123.904C264.5 133.997 262.373 147.057 261.485 160.419C259.42 161.213 258.346 161.61 257.809 161.893C257.272 162.177 257.314 162.309 257.417 162.555C257.871 163.557 259.193 166.335 260.824 169.756C258.759 184.328 253.721 228.573 253.225 234.98C249.991 233.407 246.998 231.45 244.325 229.159C243.799 221.306 244.249 213.425 245.667 205.666ZM279.285 173.876C280.442 172.969 282.259 171.381 283.415 170.342C286.368 194.023 288.413 182.57 286.079 222.373C285.604 230.425 285.191 237.493 285.46 240.612C280.635 240.907 275.79 240.736 271.005 240.102C271.253 235.282 273.565 192.417 273.978 187.9C277.1 186.769 280.124 185.423 283.023 183.874C283.436 183.534 283.333 183.95 279.285 173.876ZM301.133 291.056V293.948C285.769 291.869 272.925 290.168 267.102 289.298C266.999 288.164 266.916 287.238 266.854 286.671C270.819 274.632 276.683 258.643 271.314 246.981C270.592 245.394 270.014 246.811 272.574 242.124C276.461 242.523 280.375 242.649 284.283 242.502C287.938 247.095 286.451 247.794 286.121 251.952C284.964 265.919 293.658 278.506 301.133 291.056ZM301.257 295.913C301.381 297.312 301.608 298.767 301.876 300.204L267.453 294.666C267.453 293.456 267.308 292.247 267.226 291.113C274.102 292.171 286.657 293.929 301.257 295.913ZM268.981 239.799C264.139 239.05 259.434 237.689 255.001 235.755C255.207 234.016 261.031 182.494 262.187 172.723C267.866 184.536 269.415 187.843 269.972 188.675C270.241 189.072 270.282 188.977 270.427 188.977C270.983 188.885 271.529 188.746 272.058 188.561C270.716 202.321 269.084 234.791 268.981 239.799ZM270.612 241.822C268.403 245.375 268.196 245.602 269.229 247.227C271.294 250.497 271.418 256.545 271.294 260.306C270.943 267.242 265.347 284.365 264.789 286.048C263.928 286.744 262.864 287.195 261.727 287.346C260.59 287.497 259.429 287.342 258.388 286.898C257.954 286.747 258.098 287.182 257.851 284.176C257.045 274.197 254.939 248.38 253.721 237.229C259.071 239.517 264.764 241.065 270.612 241.822ZM299.171 210.277C300.121 217.724 303.198 237.002 303.735 240.291L299.44 241.273C298.758 239.383 296.569 232.315 295.723 230.671C295.631 230.517 295.491 230.392 295.32 230.313C295.15 230.234 294.957 230.203 294.768 230.226C294.578 230.248 294.4 230.322 294.257 230.439C294.115 230.555 294.014 230.709 293.968 230.878C293.348 233.94 292.749 237.021 292.15 240.083C290.395 240.234 288.805 240.347 287.339 240.442C287.339 230.878 287.711 221.107 288.33 211.411C291.779 211.166 297.375 210.58 299.171 210.277ZM291.345 183.345C291.333 183.222 291.374 183.101 291.459 183.005C291.544 182.91 291.666 182.849 291.799 182.835C306.254 181.247 305.676 181.115 305.883 181.644C306.341 183.039 306.495 184.503 306.337 185.953C306.337 186.463 306.936 186.161 292.377 187.843C291.655 188.013 291.779 187.371 291.345 183.345ZM305.635 239.856C303.074 227.514 302.434 222.733 300.741 210.032C303.053 209.846 305.35 209.524 307.617 209.068C310.082 218.785 311.336 228.727 311.355 238.703C309.372 239.062 307.39 239.478 305.635 239.856ZM312.862 183.893C312.656 209.692 313.379 211.544 311.004 215.891C310.529 213.358 309.992 210.807 309.372 208.331C310.023 207.909 310.607 207.406 311.107 206.838C311.706 206.176 309.496 182.268 305.924 164.974C307.658 164.369 311.107 163.084 312.966 162.215C312.986 169.416 312.924 176.768 312.862 183.893ZM316.848 155.241C316.387 157.055 315.21 158.65 313.544 159.72C304.726 164.936 283.725 167.507 283.519 167.526C283.42 167.543 283.329 167.584 283.253 167.643C283.177 167.703 283.119 167.78 283.085 167.866C281.657 169.699 279.985 171.362 278.108 172.818C277.011 173.98 275.581 174.837 273.978 175.294C272.719 175.464 269.662 174.065 273.049 173.782C273.949 173.808 274.834 173.571 275.577 173.105C276.32 172.64 276.881 171.97 277.179 171.192C277.227 171.071 277.226 170.938 277.177 170.817C277.128 170.696 277.033 170.594 276.911 170.531C275.713 170.02 276.704 172.61 270.984 172.421C269.601 172.421 267.825 170.795 270.096 170.947C273.772 171.211 276.291 168.905 275.383 168.282C275.286 168.209 275.166 168.17 275.042 168.17C274.918 168.17 274.797 168.209 274.701 168.282C273.111 169.831 270.736 169.453 268.341 169.189C267.164 169.057 266.276 167.904 267.825 167.677C269.89 167.374 274.949 167.393 275.527 166.864C281.722 160.57 290.643 156.394 297.912 153.048C304.621 150.029 311.051 146.515 317.137 142.54C317.878 146.755 317.78 151.058 316.848 155.241ZM316.373 133.808C317.514 135.377 318.131 137.216 318.149 139.1C312.711 142.82 307.036 146.241 301.154 149.344C300.989 148.267 300.699 146.282 300.658 145.564C308.484 141.5 314.019 137.323 316.373 133.808ZM68.1391 2.81213C136.016 4.24853 297.912 9.18143 297.912 9.18143C300.865 9.18143 302.351 9.31373 303.074 9.27593H303.26C309.021 10.013 312.305 14.9459 313.379 18.9149C313.908 21.3021 314.13 23.738 314.039 26.1725C278.253 25.6244 156.645 23.0918 58.1445 19.2173C58.1445 10.8635 59.0118 3.92723 68.1391 2.81213ZM58.1445 225.7C52.8994 225.7 36.4001 225.7 31.155 225.927C31.155 220.03 30.7833 179.281 30.7213 173.366C34.6242 173.498 52.5484 173.082 56.6577 172.988C56.699 220.578 56.0795 220.654 58.1445 225.7ZM56.6164 155.77C50.8964 155.77 33.5091 155.77 29.5649 155.94C29.6888 153.785 29.7714 148.38 29.8334 145.791C33.6743 145.791 50.7312 145.356 56.6784 145.054C56.5958 148.55 56.5958 152.141 56.5958 155.638L56.6164 155.77ZM56.6164 143.353C53.7667 143.353 30.2051 144.014 29.0074 144.109C27.8097 144.203 28.0368 145.224 27.9749 147.114C27.7477 153.37 27.6858 155.902 27.8097 156.942C27.9129 157.641 28.0781 157.66 28.3672 157.679C31.0517 157.849 53.9113 157.509 56.6371 157.471V171.287C28.202 171.589 28.9867 171.551 28.9867 172.591C28.9867 173.082 28.9867 222.884 29.2139 227.212C29.2139 228.1 31.6506 227.873 59.0944 227.665C62.3778 233.335 67.6435 233.789 74.6439 234.243C81.6442 234.696 235.879 230.576 243.003 230.349C245.531 232.92 248.573 235.025 251.965 236.548C252.977 247.189 254.443 266.788 255.352 279.3C242.363 280.094 26.137 294.742 18.4552 295.252C18.4552 290.546 17.526 134.715 17.526 134.715C20.9126 134.715 52.631 134.243 56.5751 134.129V143.22L56.6164 143.353ZM8.58454 307.216C6.20979 304.966 7.22164 311.808 7.22164 131.446C7.22164 125.776 11.3516 124.301 16.1631 124.056C22.3581 123.734 33.7156 124.301 56.5751 123.697V132.258C51.8256 132.258 16.5554 132.787 16.5554 132.787C16.4191 132.792 16.2851 132.821 16.161 132.872C16.037 132.924 15.9254 132.998 15.8327 133.09C15.4197 133.506 16.4935 296.31 16.5761 296.499C16.6164 296.584 16.6828 296.656 16.7672 296.706C16.8516 296.756 16.9503 296.783 17.051 296.783C17.051 296.783 234.557 282.381 255.476 280.812C255.476 282.022 256.054 288.845 256.137 289.771C228.218 291.85 10.6495 306.97 8.58454 307.216ZM121.829 328.969L13.5612 308.406C53.1679 306.044 224.604 294.023 255.662 291.566C255.304 292.63 254.841 293.661 254.278 294.647C234.64 296.027 58.5575 309.559 58.5575 309.559C57.2566 309.673 57.3598 311.449 58.5575 311.449L117.327 321.239C117.493 321.239 121.767 320.918 303.549 306.119C303.549 306.365 303.673 306.535 303.88 306.667C305.697 307.707 308.588 306.667 308.588 305.893C308.539 304.892 308.664 303.89 308.959 302.925C308.959 302.925 309.558 303.171 310.653 306.138C310.674 306.203 310.711 306.262 310.761 306.311C310.811 306.36 310.873 306.398 310.942 306.422C314.743 307.664 318.653 308.606 322.63 309.238C323.379 309.249 324.121 309.093 324.79 308.783C325.459 308.474 326.036 308.02 326.471 307.461C326.723 306.925 326.798 306.332 326.684 305.757C326.57 305.182 326.273 304.651 325.83 304.229C322.115 302.873 318.819 300.706 316.228 297.917C344.085 301.697 374.461 305.477 385.922 307.008L121.829 328.969Z" fill="#063336"/>
</svg>
