<svg width="21" height="18" viewBox="0 0 21 18" fill="none" xmlns="http://www.w3.org/2000/svg">
<path d="M19.25 9.375H16.625C15.6625 9.375 14.875 10.05 14.875 10.875C14.875 11.7 15.6625 12.375 16.625 12.375H19.25M19.25 9V12.75C19.25 15 17.5 16.5 14.875 16.5H6.125C3.5 16.5 1.75 15 1.75 12.75V9C1.75 6.96 3.185 5.535 5.41625 5.295C5.64375 5.265 5.88 5.25 6.125 5.25H14.875C15.1025 5.25 15.3213 5.25749 15.5312 5.28749C17.7887 5.51249 19.25 6.945 19.25 9ZM15.5325 5.2875C15.3225 5.2575 15.1037 5.25001 14.8762 5.25001H6.12623C5.88123 5.25001 5.64498 5.26501 5.41748 5.29501C5.53998 5.08501 5.71498 4.89001 5.92498 4.71001L8.76873 2.265C9.96748 1.245 11.91 1.245 13.1087 2.265L14.64 3.59251C15.2 4.06501 15.4975 4.665 15.5325 5.2875Z" stroke="white" stroke-width="1.5" stroke-linecap="round" stroke-linejoin="round"/>
</svg>
